SplineFontDB: 3.0
FontName: KAN-KaveriBold
FullName: KAN Kaveri Bold
FamilyName: KAN Kaveri
Weight: Bold
Copyright: Copyright (c) 2009-2015, NLCI (http://www.nlci.in/fonts/)
Version: 1.0 Wed May 17 15:35:12 1995
ItalicAngle: 0
UnderlinePosition: -593.92
UnderlineWidth: 40.96
Ascent: 1638
Descent: 410
InvalidEm: 0
LayerCount: 2
Layer: 0 1 "Back" 1
Layer: 1 1 "Fore" 0
XUID: [1021 983 496268599 8370529]
FSType: 0
OS2Version: 0
OS2_WeightWidthSlopeOnly: 0
OS2_UseTypoMetrics: 1
CreationTime: 1250825684
ModificationTime: 1523584278
PfmFamily: 81
TTFWeight: 700
TTFWidth: 5
LineGap: 0
VLineGap: 0
Panose: 5 0 0 0 0 0 0 0 0 0
OS2TypoAscent: -147
OS2TypoAOffset: 1
OS2TypoDescent: -401
OS2TypoDOffset: 1
OS2TypoLinegap: 0
OS2WinAscent: -469
OS2WinAOffset: 1
OS2WinDescent: -211
OS2WinDOffset: 1
HheadAscent: -469
HheadAOffset: 1
HheadDescent: 211
HheadDOffset: 1
OS2SubXSize: 1434
OS2SubYSize: 1331
OS2SubXOff: 0
OS2SubYOff: 293
OS2SupXSize: 1434
OS2SupYSize: 1331
OS2SupXOff: 0
OS2SupYOff: 928
OS2StrikeYSize: 102
OS2StrikeYPos: 530
OS2Vendor: 'Alts'
OS2UnicodeRanges: 00000000.00000000.00000000.00000000
Lookup: 262 0 0 "blwm" { "blwm-2sub"  } []
MarkAttachClasses: 1
DEI: 91125
TtTable: prep
NPUSHB
 1
 1
SCANTYPE
PUSHW_1
 511
SCANCTRL
EndTTInstrs
ShortTable: maxp 16
  1
  0
  319
  188
  5
  167
  6
  2
  8
  64
  10
  0
  3
  417
  4
  2
EndShort
LangName: 1033 "" "" "Bold" "NLCI:KAN Kaveri Bold" "" "1.0 Wed May 17 15:35:12 1995"
Encoding: Original
Compacted: 1
UnicodeInterp: none
NameList: Adobe Glyph List
DisplaySize: -48
AntiAlias: 1
FitToEm: 1
WinInfo: 0 37 14
BeginPrivate: 0
EndPrivate
AnchorClass2: "Sub" "blwm-2sub" "Nukta"""  "s"""  "V""" 
BeginChars: 572 313

StartChar: .notdef
Encoding: 0 -1 0
Width: 1024
Flags: W
LayerCount: 2
Fore
SplineSet
63 0 m 1,0,-1
 63 1237 l 1,1,-1
 961 1237 l 1,2,-1
 961 0 l 1,3,-1
 63 0 l 1,0,-1
897 63 m 1,4,-1
 897 1174 l 1,5,-1
 127 1174 l 1,6,-1
 127 63 l 1,7,-1
 897 63 l 1,4,-1
EndSplineSet
EndChar

StartChar: exclam
Encoding: 4 33 4
Width: 712
VWidth: 1024
Flags: W
LayerCount: 2
Fore
SplineSet
416 436 m 0,0,-1
 302 436 l 0,1,-1
 186 1271 l 0,2,3
 186 1315 186 1315 200 1347 c 0,4,5
 214 1379 214 1379 237 1400 c 0,6,7
 260 1420 260 1420 291 1431 c 0,8,9
 322 1441 322 1441 358 1441 c 0,10,11
 393 1441 393 1441 424 1431 c 0,12,13
 455 1421 455 1421 479 1401 c 0,14,15
 502 1381 502 1381 515 1348 c 0,16,17
 528 1316 528 1316 528 1271 c 0,18,-1
 416 436 l 0,0,-1
526 146 m 0,19,20
 526 110 526 110 513 79 c 0,21,22
 499 47 499 47 476 24 c 0,23,24
 453 1 453 1 422 -12 c 0,25,26
 392 -25 392 -25 358 -26 c 0,27,28
 332 -26 332 -26 303 -16 c 0,29,30
 273 -6 273 -6 248 14 c 0,31,32
 222 34 222 34 205 68 c 0,33,34
 188 101 188 101 188 146 c 0,35,36
 188 187 188 187 204 219 c 0,37,38
 219 250 219 250 244 270 c 0,39,40
 269 290 269 290 298 302 c 0,41,42
 328 313 328 313 358 312 c 0,43,44
 387 312 387 312 417 301 c 0,45,46
 447 290 447 290 472 268 c 0,47,48
 496 246 496 246 511 216 c 0,49,50
 526 185 526 185 526 146 c 0,19,20
EndSplineSet
EndChar

StartChar: quotedbl
Encoding: 5 34 5
Width: 821
VWidth: 1024
Flags: W
LayerCount: 2
Fore
SplineSet
577 874 m 0,0,-1
 495 1365 l 0,1,2
 495 1423 495 1423 523 1460 c 0,3,4
 551 1497 551 1497 614 1497 c 0,5,6
 679 1497 679 1497 709 1460 c 0,7,8
 739 1423 739 1423 738 1365 c 0,9,-1
 654 874 l 0,10,-1
 577 874 l 0,0,-1
166 874 m 0,11,-1
 84 1365 l 0,12,13
 84 1423 84 1423 112 1460 c 0,14,15
 140 1497 140 1497 204 1497 c 0,16,17
 267 1497 267 1497 296 1460 c 0,18,19
 325 1423 325 1423 325 1365 c 0,20,-1
 244 874 l 0,21,-1
 166 874 l 0,11,-1
EndSplineSet
EndChar

StartChar: numbersign
Encoding: 6 35 6
Width: 1554
VWidth: 1024
Flags: W
LayerCount: 2
Fore
SplineSet
1105 868 m 0,0,-1
 1015 592 l 0,1,-1
 1340 592 l 0,2,-1
 1340 460 l 0,3,-1
 969 460 l 0,4,-1
 810 -50 l 0,5,-1
 665 -14 l 0,6,-1
 820 460 l 0,7,-1
 558 460 l 0,8,-1
 394 -50 l 0,9,-1
 254 -12 l 0,10,-1
 411 460 l 0,11,-1
 130 460 l 0,12,-1
 130 592 l 0,13,-1
 453 592 l 0,14,-1
 543 868 l 0,15,-1
 232 868 l 0,16,-1
 232 1007 l 0,17,-1
 587 1007 l 0,18,-1
 749 1489 l 0,19,-1
 889 1451 l 0,20,-1
 734 1007 l 0,21,-1
 1007 1007 l 0,22,-1
 1162 1489 l 0,23,-1
 1307 1449 l 0,24,-1
 1149 1007 l 0,25,-1
 1424 1007 l 0,26,-1
 1424 868 l 0,27,-1
 1105 868 l 0,0,-1
694 868 m 0,28,-1
 602 592 l 0,29,-1
 862 592 l 0,30,-1
 958 868 l 0,31,-1
 694 868 l 0,28,-1
EndSplineSet
EndChar

StartChar: dollar
Encoding: 7 36 7
Width: 1230
VWidth: 1024
Flags: W
LayerCount: 2
Fore
SplineSet
1120 430 m 0,0,1
 1120 340 1120 340 1087 267 c 0,2,3
 1054 194 1054 194 993 140 c 0,4,5
 933 86 933 86 849 51 c 0,6,7
 766 16 766 16 667 2 c 0,8,-1
 667 -214 l 0,9,-1
 543 -214 l 0,10,-1
 543 0 l 0,11,12
 470 3 470 3 395 12 c 0,13,14
 330 20 330 20 256 34 c 0,15,16
 181 47 181 47 114 70 c 0,17,-1
 114 432 l 0,18,-1
 262 432 l 0,19,-1
 306 186 l 0,20,21
 339 166 339 166 380 155 c 0,22,23
 421 144 421 144 457 138 c 0,24,25
 499 132 499 132 543 130 c 0,26,-1
 543 592 l 0,27,28
 504 603 504 603 458 618 c 0,29,30
 412 633 412 633 365 655 c 0,31,32
 318 677 318 677 275 707 c 0,33,34
 232 737 232 737 199 779 c 0,35,36
 166 820 166 820 146 875 c 0,37,38
 126 930 126 930 126 1000 c 0,39,40
 126 1072 126 1072 144 1127 c 0,41,42
 162 1182 162 1182 191 1225 c 0,43,44
 220 1267 220 1267 258 1296 c 0,45,46
 295 1325 295 1325 334 1345 c 0,47,48
 426 1391 426 1391 543 1401 c 0,49,-1
 543 1556 l 0,50,-1
 667 1556 l 0,51,-1
 667 1401 l 0,52,53
 732 1401 732 1401 798 1391 c 0,54,55
 865 1381 865 1381 921 1370 c 0,56,57
 986 1357 986 1357 1047 1340 c 0,58,-1
 1047 990 l 0,59,-1
 902 990 l 0,60,-1
 862 1223 l 0,61,62
 860 1230 860 1230 834 1239 c 0,63,64
 808 1248 808 1248 775 1255 c 0,65,66
 742 1263 742 1263 710 1268 c 0,67,68
 679 1273 679 1273 667 1273 c 0,69,-1
 667 841 l 0,70,71
 702 832 702 832 749 818 c 0,72,73
 796 804 796 804 846 783 c 0,74,75
 896 762 896 762 945 732 c 0,76,77
 994 702 994 702 1033 659 c 0,78,79
 1072 617 1072 617 1096 560 c 0,80,81
 1120 504 1120 504 1120 430 c 0,0,1
543 1267 m 0,82,83
 501 1261 501 1261 467 1239 c 0,84,85
 438 1220 438 1220 415 1182 c 0,86,87
 392 1144 392 1144 392 1076 c 0,88,89
 392 1011 392 1011 415 972 c 0,90,91
 438 932 438 932 467 909 c 0,92,93
 501 882 501 882 543 870 c 0,94,-1
 543 1267 l 0,82,83
854 354 m 0,95,96
 854 406 854 406 835 442 c 0,97,98
 816 478 816 478 787 502 c 0,99,100
 759 526 759 526 726 539 c 0,101,102
 693 553 693 553 667 560 c 0,103,-1
 667 136 l 0,104,105
 719 143 719 143 760 169 c 0,106,107
 777 179 777 179 794 196 c 0,108,109
 811 212 811 212 824 234 c 0,110,111
 837 256 837 256 846 286 c 0,112,113
 854 315 854 315 854 354 c 0,95,96
EndSplineSet
EndChar

StartChar: percent
Encoding: 8 37 8
Width: 1873
VWidth: 1024
Flags: W
LayerCount: 2
Fore
SplineSet
1815 404 m 0,0,1
 1815 302 1815 302 1791 221 c 0,2,3
 1768 140 1768 140 1723 83 c 0,4,5
 1678 26 1678 26 1611 -4 c 0,6,7
 1543 -34 1543 -34 1453 -34 c 0,8,9
 1364 -34 1364 -34 1297 -4 c 0,10,11
 1230 26 1230 26 1185 83 c 0,12,13
 1140 140 1140 140 1119 221 c 0,14,15
 1097 302 1097 302 1097 404 c 0,16,17
 1097 506 1097 506 1119 588 c 0,18,19
 1141 669 1141 669 1185 726 c 0,20,21
 1230 782 1230 782 1297 813 c 0,22,23
 1364 843 1364 843 1453 843 c 0,24,25
 1543 843 1543 843 1611 813 c 0,26,27
 1679 783 1679 783 1723 726 c 0,28,29
 1768 670 1768 670 1791 588 c 0,30,31
 1815 506 1815 506 1815 404 c 0,0,1
577 0 m 0,32,-1
 428 0 l 0,33,-1
 1298 1407 l 0,34,-1
 1449 1407 l 0,35,-1
 577 0 l 0,32,-1
780 1002 m 0,36,37
 780 900 780 900 758 819 c 0,38,39
 735 738 735 738 691 680 c 0,40,41
 646 623 646 623 579 593 c 0,42,43
 511 562 511 562 422 562 c 0,44,45
 332 562 332 562 264 593 c 0,46,47
 196 624 196 624 151 680 c 0,48,49
 105 737 105 737 83 819 c 0,50,51
 60 900 60 900 60 1002 c 0,52,53
 60 1104 60 1104 83 1186 c 0,54,55
 106 1267 106 1267 151 1324 c 0,56,57
 197 1381 197 1381 264 1411 c 0,58,59
 332 1441 332 1441 422 1441 c 0,60,61
 511 1441 511 1441 579 1411 c 0,62,63
 647 1381 647 1381 691 1324 c 0,64,65
 736 1267 736 1267 758 1186 c 0,66,67
 780 1104 780 1104 780 1002 c 0,36,37
1585 404 m 0,68,69
 1585 500 1585 500 1575 566 c 0,70,71
 1565 632 1565 632 1548 671 c 0,72,73
 1531 710 1531 710 1506 728 c 0,74,75
 1481 745 1481 745 1453 744 c 0,76,77
 1425 744 1425 744 1399 728 c 0,78,79
 1373 711 1373 711 1354 671 c 0,80,81
 1335 632 1335 632 1322 566 c 0,82,83
 1310 500 1310 500 1311 404 c 0,84,85
 1311 307 1311 307 1322 242 c 0,86,87
 1334 177 1334 177 1354 138 c 0,88,89
 1373 99 1373 99 1399 81 c 0,90,91
 1425 64 1425 64 1453 65 c 0,92,93
 1482 65 1482 65 1506 81 c 0,94,95
 1531 98 1531 98 1548 138 c 0,96,97
 1565 177 1565 177 1575 242 c 0,98,99
 1585 307 1585 307 1585 404 c 0,68,69
554 1002 m 0,100,101
 554 1098 554 1098 544 1164 c 0,102,103
 534 1230 534 1230 516 1269 c 0,104,105
 499 1308 499 1308 474 1326 c 0,106,107
 449 1343 449 1343 422 1342 c 0,108,109
 392 1342 392 1342 366 1326 c 0,110,111
 339 1309 339 1309 318 1269 c 0,112,113
 297 1230 297 1230 285 1164 c 0,114,115
 273 1098 273 1098 272 1002 c 0,116,117
 272 905 272 905 285 840 c 0,118,119
 297 774 297 774 318 734 c 0,120,121
 339 694 339 694 366 677 c 0,122,123
 393 660 393 660 422 660 c 0,124,125
 450 660 450 660 474 677 c 0,126,127
 499 694 499 694 516 734 c 0,128,129
 533 774 533 774 544 840 c 0,130,131
 554 905 554 905 554 1002 c 0,100,101
EndSplineSet
EndChar

StartChar: ampersand
Encoding: 9 38 9
Width: 1540
VWidth: 1024
Flags: W
LayerCount: 2
Fore
SplineSet
791 1101 m 0,0,1
 791 1144 791 1144 779 1182 c 0,2,3
 768 1220 768 1220 746 1248 c 0,4,5
 724 1276 724 1276 694 1292 c 0,6,7
 663 1308 663 1308 625 1309 c 0,8,9
 589 1309 589 1309 558 1296 c 0,10,11
 527 1284 527 1284 505 1263 c 0,12,13
 482 1241 482 1241 470 1211 c 0,14,15
 457 1181 457 1181 457 1145 c 0,16,17
 457 1110 457 1110 467 1076 c 0,18,19
 478 1042 478 1042 502 1005 c 0,20,21
 526 968 526 968 564 926 c 0,22,23
 602 884 602 884 656 835 c 0,24,25
 688 864 688 864 713 892 c 0,26,27
 738 921 738 921 756 952 c 0,28,29
 773 983 773 983 782 1019 c 0,30,31
 791 1056 791 1056 791 1101 c 0,0,1
462 673 m 0,32,33
 433 654 433 654 412 627 c 0,34,35
 394 603 394 603 378 567 c 0,36,37
 363 531 363 531 362 482 c 0,38,39
 362 393 362 393 390 331 c 0,40,41
 417 269 417 269 461 229 c 0,42,43
 505 190 505 190 560 173 c 0,44,45
 615 156 615 156 671 156 c 0,46,47
 724 156 724 156 762 168 c 0,48,49
 800 181 800 181 826 197 c 0,50,51
 856 215 856 215 877 239 c 0,52,-1
 462 673 l 0,32,33
1051 0 m 0,53,-1
 1051 50 l 0,54,-1
 963 148 l 0,55,56
 914 99 914 99 849 61 c 0,57,58
 821 45 821 45 787 29 c 0,59,60
 753 13 753 13 714 1 c 0,61,62
 674 -11 674 -11 628 -18 c 0,63,64
 582 -25 582 -25 532 -26 c 0,65,66
 431 -26 431 -26 348 4 c 0,67,68
 265 34 265 34 205 88 c 0,69,70
 146 142 146 142 113 217 c 0,71,72
 80 293 80 293 80 386 c 0,73,74
 80 461 80 461 101 518 c 0,75,76
 122 575 122 575 161 620 c 0,77,78
 200 664 200 664 254 694 c 0,79,80
 308 725 308 725 374 746 c 0,81,82
 371 748 371 748 357 759 c 0,83,84
 342 770 342 770 321 790 c 0,85,86
 299 810 299 810 274 838 c 0,87,88
 249 866 249 866 229 903 c 0,89,90
 208 939 208 939 194 983 c 0,91,92
 180 1027 180 1027 180 1078 c 0,93,94
 180 1165 180 1165 217 1232 c 0,95,96
 253 1299 253 1299 315 1343 c 0,97,98
 377 1388 377 1388 460 1412 c 0,99,100
 543 1435 543 1435 636 1435 c 0,101,102
 677 1435 677 1435 723 1428 c 0,103,104
 770 1422 770 1422 816 1407 c 0,105,106
 862 1392 862 1392 905 1367 c 0,107,108
 947 1342 947 1342 979 1306 c 0,109,110
 1011 1270 1011 1270 1031 1220 c 0,111,112
 1050 1170 1050 1170 1051 1105 c 0,113,114
 1051 1034 1051 1034 1029 982 c 0,115,116
 1007 930 1007 930 975 891 c 0,117,118
 942 853 942 853 903 828 c 0,119,120
 864 803 864 803 829 788 c 0,121,122
 794 773 794 773 769 766 c 0,123,124
 743 759 743 759 736 759 c 0,125,-1
 1059 424 l 0,126,127
 1084 456 1084 456 1105 493 c 0,128,129
 1123 525 1123 525 1142 567 c 0,130,131
 1160 609 1160 609 1170 658 c 0,132,133
 1171 667 1171 667 1163 680 c 0,134,135
 1155 692 1155 692 1149 694 c 0,136,-1
 1040 713 l 0,137,-1
 1040 812 l 0,138,-1
 1481 812 l 0,139,-1
 1481 713 l 0,140,-1
 1336 684 l 0,141,142
 1310 601 1310 601 1277 537 c 0,143,144
 1243 472 1243 472 1213 427 c 0,145,146
 1177 375 1177 375 1141 336 c 0,147,-1
 1338 124 l 0,148,-1
 1508 106 l 0,149,-1
 1508 0 l 0,150,-1
 1051 0 l 0,53,-1
EndSplineSet
EndChar

StartChar: quotesingle
Encoding: 10 39 10
Width: 368
VWidth: 1024
Flags: W
LayerCount: 2
Fore
SplineSet
146 874 m 0,0,-1
 65 1365 l 0,1,2
 65 1423 65 1423 92 1460 c 0,3,4
 120 1497 120 1497 184 1497 c 0,5,6
 247 1497 247 1497 277 1460 c 0,7,8
 306 1423 306 1423 306 1365 c 0,9,-1
 222 874 l 0,10,-1
 146 874 l 0,0,-1
EndSplineSet
EndChar

StartChar: parenleft
Encoding: 11 40 11
Width: 821
VWidth: 1024
Flags: W
LayerCount: 2
Fore
SplineSet
751 -298 m 0,0,1
 596 -294 596 -294 479 -229 c 0,2,3
 362 -164 362 -164 283 -48 c 0,4,5
 204 69 204 69 164 233 c 0,6,7
 124 398 124 398 124 604 c 0,8,9
 124 809 124 809 164 973 c 0,10,11
 204 1137 204 1137 283 1254 c 0,12,13
 362 1370 362 1370 479 1434 c 0,14,15
 596 1498 596 1498 751 1503 c 0,16,-1
 751 1391 l 0,17,18
 640 1376 640 1376 570 1311 c 0,19,20
 500 1247 500 1247 460 1144 c 0,21,22
 420 1041 420 1041 405 903 c 0,23,24
 390 765 390 765 390 604 c 0,25,26
 390 442 390 442 405 305 c 0,27,28
 420 167 420 167 460 63 c 0,29,30
 500 -40 500 -40 570 -104 c 0,31,32
 640 -169 640 -169 751 -184 c 0,33,-1
 751 -298 l 0,0,1
EndSplineSet
EndChar

StartChar: parenright
Encoding: 12 41 12
Width: 821
VWidth: 1024
Flags: W
LayerCount: 2
Fore
SplineSet
698 604 m 0,0,1
 698 398 698 398 658 233 c 0,2,3
 618 68 618 68 539 -48 c 0,4,5
 460 -165 460 -165 343 -229 c 0,6,7
 226 -294 226 -294 72 -298 c 0,8,-1
 72 -184 l 0,9,10
 182 -169 182 -169 251 -104 c 0,11,12
 321 -39 321 -39 361 63 c 0,13,14
 401 166 401 166 417 305 c 0,15,16
 432 443 432 443 432 604 c 0,17,18
 432 765 432 765 417 903 c 0,19,20
 402 1041 402 1041 361 1144 c 0,21,22
 321 1247 321 1247 251 1311 c 0,23,24
 181 1375 181 1375 72 1391 c 0,25,-1
 72 1503 l 0,26,27
 226 1498 226 1498 343 1434 c 0,28,29
 460 1370 460 1370 539 1254 c 0,30,31
 618 1138 618 1138 658 973 c 0,32,33
 698 809 698 809 698 604 c 0,0,1
EndSplineSet
EndChar

StartChar: asterisk
Encoding: 13 42 13
Width: 1048
VWidth: 1024
Flags: W
LayerCount: 2
Fore
SplineSet
845 1061 m 0,0,-1
 574 1063 l 0,1,-1
 560 1095 l 0,2,-1
 782 1258 l 0,3,-1
 937 1197 l 0,4,-1
 845 1061 l 0,0,-1
541 1118 m 0,5,-1
 506 1118 l 0,6,-1
 420 1380 l 0,7,-1
 524 1505 l 0,8,-1
 629 1380 l 0,9,-1
 541 1118 l 0,5,-1
780 709 m 0,10,-1
 621 751 l 0,11,-1
 537 1011 l 0,12,-1
 562 1036 l 0,13,-1
 786 872 l 0,14,-1
 780 709 l 0,10,-1
474 1063 m 0,15,-1
 202 1061 l 0,16,-1
 112 1197 l 0,17,-1
 262 1258 l 0,18,-1
 486 1093 l 0,19,-1
 474 1063 l 0,15,-1
428 751 m 0,20,-1
 268 709 l 0,21,-1
 262 872 l 0,22,-1
 486 1036 l 0,23,-1
 512 1011 l 0,24,-1
 428 751 l 0,20,-1
EndSplineSet
EndChar

StartChar: plus
Encoding: 14 43 14
Width: 2097
VWidth: 1024
Flags: W
LayerCount: 2
Fore
SplineSet
1113 564 m 0,0,-1
 1113 0 l 0,1,-1
 984 0 l 0,2,-1
 984 564 l 0,3,-1
 420 564 l 0,4,-1
 420 694 l 0,5,-1
 984 694 l 0,6,-1
 984 1258 l 0,7,-1
 1113 1258 l 0,8,-1
 1113 694 l 0,9,-1
 1677 694 l 0,10,-1
 1677 564 l 0,11,-1
 1113 564 l 0,0,-1
EndSplineSet
EndChar

StartChar: comma
Encoding: 15 44 15
Width: 665
VWidth: 1024
Flags: W
LayerCount: 2
Fore
SplineSet
508 124 m 0,0,1
 508 58 508 58 489 -2 c 0,2,3
 471 -62 471 -62 440 -116 c 0,4,5
 409 -170 409 -170 366 -215 c 0,6,7
 324 -260 324 -260 275 -292 c 0,8,9
 227 -325 227 -325 176 -346 c 0,10,11
 124 -366 124 -366 74 -369 c 0,12,-1
 74 -266 l 0,13,14
 114 -260 114 -260 159 -243 c 0,15,16
 205 -226 205 -226 243 -194 c 0,17,18
 281 -161 281 -161 304 -110 c 0,19,20
 328 -59 328 -59 325 14 c 0,21,-1
 198 14 l 0,22,23
 179 29 179 29 166 47 c 0,24,25
 154 64 154 64 146 81 c 0,26,27
 138 98 138 98 135 116 c 0,28,29
 132 133 132 133 132 148 c 0,30,31
 132 188 132 188 147 221 c 0,32,33
 162 253 162 253 186 276 c 0,34,35
 211 299 211 299 243 312 c 0,36,37
 275 325 275 325 308 325 c 0,38,39
 403 325 403 325 456 270 c 0,40,41
 508 216 508 216 508 124 c 0,0,1
EndSplineSet
EndChar

StartChar: hyphen
Encoding: 16 45 16
Width: 688
VWidth: 1024
Flags: W
LayerCount: 2
Fore
SplineSet
70 394 m 0,0,-1
 70 616 l 0,1,-1
 618 616 l 0,2,-1
 618 394 l 0,3,-1
 70 394 l 0,0,-1
EndSplineSet
EndChar

StartChar: period
Encoding: 17 46 17
Width: 665
VWidth: 1024
Flags: W
LayerCount: 2
Fore
SplineSet
482 148 m 0,0,1
 482 112 482 112 469 81 c 0,2,3
 456 49 456 49 432 26 c 0,4,5
 408 2 408 2 377 -12 c 0,6,7
 345 -26 345 -26 308 -26 c 0,8,9
 272 -26 272 -26 240 -12 c 0,10,11
 208 2 208 2 184 26 c 0,12,13
 160 50 160 50 146 81 c 0,14,15
 132 113 132 113 132 148 c 0,16,17
 132 185 132 185 146 217 c 0,18,19
 160 249 160 249 184 273 c 0,20,21
 208 297 208 297 240 311 c 0,22,23
 272 325 272 325 308 325 c 0,24,25
 345 325 345 325 377 311 c 0,26,27
 409 297 409 297 432 273 c 0,28,29
 456 249 456 249 469 217 c 0,30,31
 482 185 482 185 482 148 c 0,0,1
EndSplineSet
EndChar

StartChar: slash
Encoding: 18 47 18
Width: 1050
VWidth: 1024
Flags: W
LayerCount: 2
Fore
SplineSet
164 -195 m 0,0,-1
 0 -195 l 0,1,-1
 885 1407 l 0,2,-1
 1051 1407 l 0,3,-1
 164 -195 l 0,0,-1
EndSplineSet
EndChar

StartChar: zero
Encoding: 19 48 19
Width: 1622
VWidth: 1024
Flags: W
LayerCount: 2
Fore
SplineSet
1368 322 m 0,0,-1
 1368 1081 l 0,1,2
 1368 1114 1368 1114 1342 1140 c 0,3,4
 1316 1166 1316 1166 1274 1165 c 0,5,-1
 1057 1165 l 0,6,7
 1010 1165 1010 1165 1002 1164 c 0,8,9
 995 1163 995 1163 977 1145 c 0,10,11
 946 1108 946 1108 946 1083 c 0,12,-1
 946 315 l 0,13,14
 946 282 946 282 980 260 c 0,15,16
 1014 237 1014 237 1059 238 c 0,17,-1
 1276 238 l 0,18,19
 1309 238 1309 238 1341 266 c 0,20,21
 1366 297 1366 297 1368 322 c 0,0,-1
1645 254 m 0,22,23
 1645 186 1645 186 1602 129 c 0,24,25
 1579 102 1579 102 1552 79 c 0,26,27
 1525 55 1525 55 1497 41 c 0,28,29
 1417 4 1417 4 1346 4 c 0,30,-1
 969 6 l 0,31,32
 844 6 844 6 758 94 c 0,33,34
 668 174 668 174 668 297 c 0,35,-1
 668 1153 l 0,36,37
 668 1253 668 1253 764 1329 c 0,38,39
 864 1397 864 1397 997 1397 c 0,40,-1
 1329 1397 l 0,41,42
 1468 1397 1468 1397 1554 1311 c 0,43,44
 1599 1272 1599 1272 1622 1218 c 0,45,46
 1645 1164 1645 1164 1645 1098 c 0,47,-1
 1645 254 l 0,22,23
EndSplineSet
EndChar

StartChar: one
Encoding: 20 49 20
Width: 1622
VWidth: 1024
Flags: W
LayerCount: 2
Fore
SplineSet
1645 0 m 0,0,-1
 838 0 l 0,1,-1
 838 231 l 0,2,-1
 1104 231 l 0,3,-1
 1104 1096 l 0,4,5
 1104 1129 1104 1129 1095 1143 c 0,6,7
 1086 1157 1086 1157 1069 1161 c 0,8,-1
 840 1161 l 0,9,-1
 840 1393 l 0,10,-1
 1112 1393 l 0,11,12
 1229 1393 1229 1393 1300 1321 c 0,13,14
 1382 1247 1382 1247 1382 1147 c 0,15,-1
 1382 227 l 0,16,-1
 1645 227 l 0,17,-1
 1645 0 l 0,0,-1
EndSplineSet
EndChar

StartChar: two
Encoding: 21 50 21
Width: 1622
VWidth: 1024
Flags: W
LayerCount: 2
Fore
SplineSet
1645 0 m 0,0,-1
 637 0 l 0,1,-1
 637 512 l 0,2,3
 637 573 637 573 659 617 c 0,4,5
 682 661 682 661 735 694 c 0,6,7
 837 770 837 770 971 770 c 0,8,-1
 1296 770 l 0,9,10
 1314 770 1314 770 1339 801 c 0,11,12
 1357 834 1357 834 1358 872 c 0,13,-1
 1358 1112 l 0,14,15
 1358 1128 1358 1128 1348 1145 c 0,16,17
 1338 1153 1338 1153 1313 1153 c 0,18,-1
 989 1153 l 0,19,20
 946 1153 946 1153 922 1139 c 0,21,22
 908 1135 908 1135 907 1112 c 0,23,-1
 907 911 l 0,24,-1
 633 911 l 0,25,-1
 633 1178 l 0,26,27
 633 1272 633 1272 714 1329 c 0,28,29
 795 1386 795 1386 911 1386 c 0,30,-1
 1352 1386 l 0,31,32
 1471 1386 1471 1386 1552 1319 c 0,33,34
 1634 1245 1634 1245 1634 1143 c 0,35,-1
 1634 856 l 0,36,37
 1634 770 1634 770 1595 696 c 0,38,39
 1570 653 1570 653 1547 627 c 0,40,41
 1523 600 1523 600 1491 582 c 0,42,43
 1417 537 1417 537 1341 537 c 0,44,-1
 993 537 l 0,45,46
 942 537 942 537 924 528 c 0,47,-1
 913 524 l 0,48,-1
 913 229 l 0,49,-1
 1647 229 l 0,50,-1
 1645 0 l 0,0,-1
EndSplineSet
EndChar

StartChar: three
Encoding: 22 51 22
Width: 1622
VWidth: 1024
Flags: W
LayerCount: 2
Fore
SplineSet
1645 238 m 0,0,1
 1645 142 1645 142 1564 72 c 0,2,3
 1483 2 1483 2 1378 2 c 0,4,-1
 940 4 l 0,5,6
 821 4 821 4 731 61 c 0,7,8
 643 122 643 122 643 211 c 0,9,-1
 643 420 l 0,10,-1
 918 420 l 0,11,-1
 918 295 l 0,12,13
 918 270 918 270 939 252 c 0,14,15
 961 234 961 234 999 233 c 0,16,-1
 1276 233 l 0,17,18
 1313 233 1313 233 1341 254 c 0,19,20
 1370 274 1370 274 1370 311 c 0,21,-1
 1370 537 l 0,22,23
 1370 568 1370 568 1346 598 c 0,24,25
 1321 621 1321 621 1278 621 c 0,26,-1
 1169 621 l 0,27,-1
 1169 852 l 0,28,-1
 1260 852 l 0,29,30
 1299 852 1299 852 1337 874 c 0,31,32
 1368 884 1368 884 1368 899 c 0,33,-1
 1368 1090 l 0,34,35
 1368 1119 1368 1119 1350 1143 c 0,36,37
 1334 1157 1334 1157 1305 1157 c 0,38,-1
 999 1157 l 0,39,40
 960 1157 960 1157 936 1143 c 0,41,42
 920 1129 920 1129 920 1100 c 0,43,-1
 920 995 l 0,44,-1
 645 995 l 0,45,-1
 645 1210 l 0,46,47
 645 1292 645 1292 725 1340 c 0,48,49
 805 1388 805 1388 924 1389 c 0,50,-1
 1382 1389 l 0,51,52
 1497 1389 1497 1389 1574 1317 c 0,53,54
 1651 1245 1651 1245 1651 1143 c 0,55,-1
 1651 938 l 0,56,57
 1651 879 1651 879 1599 813 c 0,58,59
 1585 797 1585 797 1560 778 c 0,60,61
 1534 760 1534 760 1505 743 c 0,62,63
 1564 714 1564 714 1595 672 c 0,64,65
 1648 600 1648 600 1649 524 c 0,66,-1
 1645 238 l 0,0,1
EndSplineSet
EndChar

StartChar: four
Encoding: 23 52 23
Width: 1622
VWidth: 1024
Flags: W
LayerCount: 2
Fore
SplineSet
1645 326 m 0,0,-1
 1442 326 l 0,1,-1
 1442 0 l 0,2,-1
 1165 0 l 0,3,-1
 1165 326 l 0,4,-1
 791 326 l 0,5,6
 695 326 695 326 623 379 c 0,7,8
 584 404 584 404 567 436 c 0,9,10
 551 469 551 469 551 508 c 0,11,12
 551 578 551 578 596 700 c 0,13,-1
 848 1391 l 0,14,-1
 1128 1391 l 0,15,-1
 854 678 l 0,16,17
 825 596 825 596 825 563 c 0,18,-1
 823 555 l 0,19,-1
 1169 555 l 0,20,-1
 1169 1395 l 0,21,-1
 1446 1395 l 0,22,-1
 1446 555 l 0,23,-1
 1649 555 l 0,24,-1
 1645 326 l 0,0,-1
EndSplineSet
EndChar

StartChar: five
Encoding: 24 53 24
Width: 1622
VWidth: 1024
Flags: W
LayerCount: 2
Fore
SplineSet
1645 238 m 0,0,1
 1645 142 1645 142 1573 72 c 0,2,3
 1501 2 1501 2 1405 2 c 0,4,-1
 801 2 l 0,5,6
 711 2 711 2 644 61 c 0,7,8
 577 120 577 120 578 201 c 0,9,-1
 578 446 l 0,10,-1
 854 446 l 0,11,-1
 852 287 l 0,12,13
 856 256 856 256 866 252 c 0,14,15
 897 236 897 236 915 236 c 0,16,-1
 1325 236 l 0,17,18
 1335 236 1335 236 1350 252 c 0,19,20
 1364 279 1364 279 1364 311 c 0,21,-1
 1364 616 l 0,22,23
 1364 647 1364 647 1284 647 c 0,24,-1
 571 647 l 0,25,-1
 571 1395 l 0,26,-1
 1612 1395 l 0,27,-1
 1612 1163 l 0,28,-1
 850 1163 l 0,29,-1
 850 883 l 0,30,-1
 1356 883 l 0,31,32
 1479 883 1479 883 1560 811 c 0,33,34
 1641 739 1641 739 1640 635 c 0,35,-1
 1645 238 l 0,0,1
EndSplineSet
EndChar

StartChar: six
Encoding: 25 54 25
Width: 1622
VWidth: 1024
Flags: W
LayerCount: 2
Fore
SplineSet
1370 317 m 0,0,-1
 1370 586 l 0,1,2
 1370 611 1370 611 1340 632 c 0,3,4
 1310 654 1310 654 1264 653 c 0,5,-1
 887 653 l 0,6,-1
 887 340 l 0,7,8
 887 297 887 297 924 267 c 0,9,10
 961 237 961 237 999 238 c 0,11,-1
 1262 238 l 0,12,13
 1305 238 1305 238 1337 261 c 0,14,15
 1370 284 1370 284 1370 317 c 0,0,-1
1645 266 m 0,16,17
 1645 155 1645 155 1563 82 c 0,18,19
 1524 49 1524 49 1469 27 c 0,20,21
 1415 4 1415 4 1362 4 c 0,22,-1
 922 6 l 0,23,24
 797 6 797 6 702 75 c 0,25,26
 608 144 608 144 608 240 c 0,27,-1
 608 1153 l 0,28,29
 608 1253 608 1253 702 1329 c 0,30,31
 796 1397 796 1397 922 1397 c 0,32,-1
 1591 1397 l 0,33,-1
 1591 1165 l 0,34,-1
 971 1165 l 0,35,36
 928 1165 928 1165 906 1147 c 0,37,38
 884 1129 884 1129 885 1098 c 0,39,-1
 885 887 l 0,40,-1
 1331 887 l 0,41,42
 1470 887 1470 887 1559 810 c 0,43,44
 1647 733 1647 733 1647 623 c 0,45,-1
 1645 266 l 0,16,17
EndSplineSet
EndChar

StartChar: seven
Encoding: 26 55 26
Width: 1622
VWidth: 1024
Flags: W
LayerCount: 2
Fore
SplineSet
1642 1133 m 0,0,-1
 1124 0 l 0,1,-1
 844 0 l 0,2,-1
 1368 1143 l 0,3,-1
 1360 1159 l 0,4,5
 1352 1163 1352 1163 1329 1163 c 0,6,-1
 872 1163 l 0,7,-1
 872 1030 l 0,8,-1
 596 1030 l 0,9,-1
 596 1397 l 0,10,-1
 1380 1397 l 0,11,12
 1495 1397 1495 1397 1569 1321 c 0,13,14
 1644 1248 1644 1248 1642 1133 c 0,0,-1
EndSplineSet
EndChar

StartChar: eight
Encoding: 27 56 27
Width: 1622
VWidth: 1024
Flags: W
LayerCount: 2
Fore
SplineSet
1370 311 m 0,0,-1
 1370 334 l 0,1,2
 1370 400 1370 400 1309 436 c 0,3,-1
 1155 553 l 0,4,-1
 965 436 l 0,5,6
 920 403 920 403 920 375 c 0,7,-1
 920 295 l 0,8,9
 920 270 920 270 943 252 c 0,10,11
 967 234 967 234 1012 233 c 0,12,-1
 1278 233 l 0,13,14
 1315 233 1315 233 1343 254 c 0,15,16
 1372 274 1372 274 1370 311 c 0,0,-1
1370 1108 m 0,17,18
 1370 1133 1370 1133 1356 1151 c 0,19,20
 1342 1161 1342 1161 1323 1161 c 0,21,-1
 979 1161 l 0,22,23
 946 1161 946 1161 928 1157 c 0,24,-1
 920 1149 l 0,25,26
 920 1088 920 1088 938 1071 c 0,27,-1
 1149 905 l 0,28,-1
 1337 1044 l 0,29,30
 1370 1059 1370 1059 1370 1108 c 0,17,18
1645 201 m 0,31,32
 1645 121 1645 121 1565 59 c 0,33,34
 1483 2 1483 2 1378 2 c 0,35,-1
 940 4 l 0,36,37
 821 4 821 4 731 61 c 0,38,39
 643 122 643 122 643 211 c 0,40,-1
 643 455 l 0,41,42
 643 502 643 502 731 578 c 0,43,-1
 965 739 l 0,44,-1
 762 893 l 0,45,46
 643 1004 643 1004 643 1063 c 0,47,-1
 643 1208 l 0,48,49
 643 1290 643 1290 723 1338 c 0,50,51
 803 1386 803 1386 922 1386 c 0,52,-1
 1380 1386 l 0,53,54
 1491 1386 1491 1386 1565 1339 c 0,55,56
 1647 1292 1647 1292 1647 1210 c 0,57,-1
 1647 1008 l 0,58,59
 1647 934 1647 934 1550 872 c 0,60,-1
 1313 713 l 0,61,-1
 1475 623 l 0,62,63
 1647 494 1647 494 1647 418 c 0,64,-1
 1645 201 l 0,31,32
EndSplineSet
EndChar

StartChar: nine
Encoding: 28 57 28
Width: 1622
VWidth: 1024
Flags: W
LayerCount: 2
Fore
SplineSet
1364 743 m 0,0,-1
 1364 1092 l 0,1,2
 1364 1121 1364 1121 1337 1140 c 0,3,4
 1310 1159 1310 1159 1257 1159 c 0,5,-1
 975 1159 l 0,6,7
 928 1159 928 1159 905 1143 c 0,8,9
 882 1127 882 1127 883 1094 c 0,10,-1
 883 823 l 0,11,12
 883 794 883 794 913 778 c 0,13,14
 950 747 950 747 995 748 c 0,15,-1
 1364 743 l 0,0,-1
1645 283 m 0,16,17
 1645 168 1645 168 1543 84 c 0,18,19
 1442 0 1442 0 1303 0 c 0,20,-1
 664 0 l 0,21,-1
 664 231 l 0,22,-1
 1210 231 l 0,23,24
 1276 231 1276 231 1323 260 c 0,25,26
 1366 291 1366 291 1366 319 c 0,27,-1
 1366 514 l 0,28,-1
 918 514 l 0,29,30
 793 514 793 514 698 587 c 0,31,32
 604 660 604 660 604 754 c 0,33,-1
 604 1174 l 0,34,35
 604 1231 604 1231 649 1290 c 0,36,37
 692 1335 692 1335 769 1364 c 0,38,39
 846 1393 846 1393 936 1393 c 0,40,-1
 1325 1393 l 0,41,42
 1407 1393 1407 1393 1483 1357 c 0,43,44
 1559 1321 1559 1321 1595 1264 c 0,45,46
 1640 1207 1640 1207 1640 1130 c 0,47,-1
 1645 283 l 0,16,17
EndSplineSet
EndChar

StartChar: colon
Encoding: 29 58 29
Width: 665
VWidth: 1024
Flags: W
LayerCount: 2
Fore
SplineSet
482 148 m 0,0,1
 482 112 482 112 469 81 c 0,2,3
 456 49 456 49 432 26 c 0,4,5
 408 2 408 2 377 -12 c 0,6,7
 345 -26 345 -26 308 -26 c 0,8,9
 272 -26 272 -26 240 -12 c 0,10,11
 208 2 208 2 184 26 c 0,12,13
 160 50 160 50 146 81 c 0,14,15
 132 113 132 113 132 148 c 0,16,17
 132 185 132 185 146 217 c 0,18,19
 160 249 160 249 184 273 c 0,20,21
 208 297 208 297 240 311 c 0,22,23
 272 325 272 325 308 325 c 0,24,25
 345 325 345 325 377 311 c 0,26,27
 409 297 409 297 432 273 c 0,28,29
 456 249 456 249 469 217 c 0,30,31
 482 185 482 185 482 148 c 0,0,1
482 872 m 0,32,33
 482 835 482 835 469 804 c 0,34,35
 456 772 456 772 432 749 c 0,36,37
 408 725 408 725 377 712 c 0,38,39
 345 699 345 699 308 698 c 0,40,41
 272 698 272 698 240 712 c 0,42,43
 208 725 208 725 184 749 c 0,44,45
 160 773 160 773 146 804 c 0,46,47
 132 836 132 836 132 872 c 0,48,49
 132 908 132 908 146 941 c 0,50,51
 160 973 160 973 184 997 c 0,52,53
 208 1021 208 1021 240 1035 c 0,54,55
 272 1049 272 1049 308 1049 c 0,56,57
 345 1049 345 1049 377 1035 c 0,58,59
 409 1021 409 1021 432 997 c 0,60,61
 456 973 456 973 469 941 c 0,62,63
 482 908 482 908 482 872 c 0,32,33
EndSplineSet
EndChar

StartChar: semicolon
Encoding: 30 59 30
Width: 665
VWidth: 1024
Flags: W
LayerCount: 2
Fore
SplineSet
508 124 m 0,0,1
 508 58 508 58 489 -2 c 0,2,3
 471 -62 471 -62 440 -116 c 0,4,5
 409 -170 409 -170 366 -215 c 0,6,7
 324 -260 324 -260 275 -292 c 0,8,9
 227 -325 227 -325 176 -346 c 0,10,11
 124 -366 124 -366 74 -369 c 0,12,-1
 74 -266 l 0,13,14
 114 -260 114 -260 159 -243 c 0,15,16
 205 -226 205 -226 243 -194 c 0,17,18
 281 -161 281 -161 304 -110 c 0,19,20
 328 -59 328 -59 325 14 c 0,21,-1
 198 14 l 0,22,23
 179 29 179 29 166 47 c 0,24,25
 154 64 154 64 146 81 c 0,26,27
 138 98 138 98 135 116 c 0,28,29
 132 133 132 133 132 148 c 0,30,31
 132 188 132 188 147 221 c 0,32,33
 162 253 162 253 186 276 c 0,34,35
 211 299 211 299 243 312 c 0,36,37
 275 325 275 325 308 325 c 0,38,39
 403 325 403 325 456 270 c 0,40,41
 508 216 508 216 508 124 c 0,0,1
482 872 m 0,42,43
 482 835 482 835 469 804 c 0,44,45
 456 772 456 772 432 749 c 0,46,47
 408 725 408 725 377 712 c 0,48,49
 345 699 345 699 308 698 c 0,50,51
 272 698 272 698 240 712 c 0,52,53
 208 725 208 725 184 749 c 0,54,55
 160 773 160 773 146 804 c 0,56,57
 132 836 132 836 132 872 c 0,58,59
 132 908 132 908 146 941 c 0,60,61
 160 973 160 973 184 997 c 0,62,63
 208 1021 208 1021 240 1035 c 0,64,65
 272 1049 272 1049 308 1049 c 0,66,67
 345 1049 345 1049 377 1035 c 0,68,69
 409 1021 409 1021 432 997 c 0,70,71
 456 973 456 973 469 941 c 0,72,73
 482 908 482 908 482 872 c 0,42,43
EndSplineSet
EndChar

StartChar: less
Encoding: 31 60 31
Width: 2097
VWidth: 1024
Flags: W
LayerCount: 2
Fore
SplineSet
420 564 m 0,0,-1
 420 694 l 0,1,-1
 1677 1177 l 0,2,-1
 1677 1047 l 0,3,-1
 554 629 l 0,4,-1
 1677 212 l 0,5,-1
 1677 82 l 0,6,-1
 420 564 l 0,0,-1
EndSplineSet
EndChar

StartChar: equal
Encoding: 32 61 32
Width: 2097
VWidth: 1024
Flags: W
LayerCount: 2
Fore
SplineSet
420 755 m 0,0,-1
 420 885 l 0,1,-1
 1677 885 l 0,2,-1
 1677 755 l 0,3,-1
 420 755 l 0,0,-1
420 374 m 0,4,-1
 420 504 l 0,5,-1
 1677 504 l 0,6,-1
 1677 374 l 0,7,-1
 420 374 l 0,4,-1
EndSplineSet
EndChar

StartChar: greater
Encoding: 33 62 33
Width: 2097
VWidth: 1024
Flags: W
LayerCount: 2
Fore
SplineSet
420 82 m 0,0,-1
 420 212 l 0,1,-1
 1543 629 l 0,2,-1
 420 1047 l 0,3,-1
 420 1177 l 0,4,-1
 1677 694 l 0,5,-1
 1677 564 l 0,6,-1
 420 82 l 0,0,-1
EndSplineSet
EndChar

StartChar: question
Encoding: 34 63 34
Width: 1093
VWidth: 1024
Flags: W
LayerCount: 2
Fore
SplineSet
961 1042 m 0,0,1
 961 975 961 975 941 921 c 0,2,3
 922 866 922 866 889 822 c 0,4,5
 857 777 857 777 817 743 c 0,6,7
 777 709 777 709 733 684 c 0,8,9
 633 625 633 625 506 594 c 0,10,-1
 506 416 l 0,11,-1
 362 416 l 0,12,-1
 362 694 l 0,13,14
 447 717 447 717 514 763 c 0,15,16
 543 782 543 782 570 809 c 0,17,18
 597 836 597 836 618 870 c 0,19,20
 640 905 640 905 653 949 c 0,21,22
 666 993 666 993 667 1047 c 0,23,24
 667 1106 667 1106 650 1155 c 0,25,26
 633 1204 633 1204 599 1239 c 0,27,28
 565 1274 565 1274 513 1293 c 0,29,30
 461 1312 461 1312 392 1313 c 0,31,-1
 298 1061 l 0,32,33
 297 1060 297 1060 293 1059 c 0,34,35
 290 1058 290 1058 285 1057 c 0,36,37
 280 1056 280 1056 272 1057 c 0,38,39
 252 1057 252 1057 221 1059 c 0,40,41
 190 1062 190 1062 162 1075 c 0,42,43
 133 1088 133 1088 113 1115 c 0,44,45
 93 1142 93 1142 92 1191 c 0,46,47
 92 1260 92 1260 130 1307 c 0,48,49
 167 1355 167 1355 224 1384 c 0,50,51
 281 1414 281 1414 351 1427 c 0,52,53
 421 1440 421 1440 484 1441 c 0,54,55
 585 1441 585 1441 673 1413 c 0,56,57
 760 1385 760 1385 824 1333 c 0,58,59
 888 1281 888 1281 924 1207 c 0,60,61
 961 1133 961 1133 961 1042 c 0,0,1
606 136 m 0,62,63
 606 101 606 101 592 72 c 0,64,65
 578 42 578 42 555 20 c 0,66,67
 531 -2 531 -2 500 -13 c 0,68,69
 469 -25 469 -25 434 -26 c 0,70,71
 400 -26 400 -26 371 -12 c 0,72,73
 342 2 342 2 321 26 c 0,74,75
 299 50 299 50 287 80 c 0,76,77
 275 111 275 111 274 144 c 0,78,79
 274 179 274 179 287 209 c 0,80,81
 300 239 300 239 322 263 c 0,82,83
 344 286 344 286 373 299 c 0,84,85
 403 312 403 312 436 312 c 0,86,87
 474 312 474 312 505 298 c 0,88,89
 536 284 536 284 559 260 c 0,90,91
 582 236 582 236 594 203 c 0,92,93
 606 171 606 171 606 136 c 0,62,63
EndSplineSet
EndChar

StartChar: at
Encoding: 35 64 35
Width: 1961
VWidth: 1024
Flags: W
LayerCount: 2
Fore
SplineSet
1195 814 m 0,0,1
 1198 826 1198 826 1193 845 c 0,2,3
 1188 864 1188 864 1178 882 c 0,4,5
 1167 899 1167 899 1147 912 c 0,6,7
 1128 925 1128 925 1101 925 c 0,8,9
 1038 925 1038 925 982 891 c 0,10,11
 926 857 926 857 884 797 c 0,12,13
 842 737 842 737 817 654 c 0,14,15
 792 571 792 571 793 474 c 0,16,17
 793 415 793 415 804 373 c 0,18,19
 816 332 816 332 836 306 c 0,20,21
 855 280 855 280 879 268 c 0,22,23
 903 256 903 256 927 256 c 0,24,25
 961 256 961 256 988 269 c 0,26,27
 1015 282 1015 282 1037 301 c 0,28,29
 1059 320 1059 320 1077 343 c 0,30,31
 1095 366 1095 366 1111 384 c 0,32,-1
 1195 814 l 0,0,1
1841 772 m 0,33,34
 1841 668 1841 668 1818 578 c 0,35,36
 1795 488 1795 488 1756 414 c 0,37,38
 1717 340 1717 340 1663 282 c 0,39,40
 1610 224 1610 224 1550 185 c 0,41,42
 1490 146 1490 146 1426 125 c 0,43,44
 1362 105 1362 105 1300 104 c 0,45,46
 1252 104 1252 104 1220 117 c 0,47,48
 1188 129 1188 129 1167 149 c 0,49,50
 1146 169 1146 169 1135 196 c 0,51,52
 1124 223 1124 223 1120 252 c 0,53,54
 1087 224 1087 224 1054 198 c 0,55,56
 1020 172 1020 172 984 152 c 0,57,58
 948 132 948 132 910 119 c 0,59,60
 872 107 872 107 833 106 c 0,61,62
 761 106 761 106 707 133 c 0,63,64
 653 159 653 159 615 205 c 0,65,66
 578 252 578 252 560 315 c 0,67,68
 541 378 541 378 541 455 c 0,69,70
 541 573 541 573 584 676 c 0,71,72
 628 780 628 780 702 859 c 0,73,74
 777 937 777 937 878 983 c 0,75,76
 979 1029 979 1029 1093 1028 c 0,77,78
 1118 1028 1118 1028 1142 1022 c 0,79,80
 1167 1016 1167 1016 1192 1006 c 0,81,82
 1217 996 1217 996 1240 985 c 0,83,84
 1263 974 1263 974 1283 965 c 0,85,-1
 1311 1017 l 0,86,-1
 1487 1017 l 0,87,-1
 1477 978 l 0,88,89
 1470 947 1470 947 1459 902 c 0,90,91
 1448 857 1448 857 1435 802 c 0,92,93
 1422 747 1422 747 1409 690 c 0,94,95
 1378 558 1378 558 1340 394 c 0,96,97
 1332 359 1332 359 1328 331 c 0,98,99
 1324 302 1324 302 1328 282 c 0,100,101
 1332 262 1332 262 1346 250 c 0,102,103
 1360 239 1360 239 1389 239 c 0,104,105
 1409 239 1409 239 1439 254 c 0,106,107
 1469 270 1469 270 1502 301 c 0,108,109
 1534 332 1534 332 1566 377 c 0,110,111
 1598 423 1598 423 1623 482 c 0,112,113
 1648 541 1648 541 1663 613 c 0,114,115
 1679 685 1679 685 1679 770 c 0,116,117
 1679 869 1679 869 1656 950 c 0,118,119
 1632 1030 1632 1030 1592 1093 c 0,120,121
 1552 1155 1552 1155 1498 1201 c 0,122,123
 1443 1247 1443 1247 1381 1276 c 0,124,125
 1320 1306 1320 1306 1253 1320 c 0,126,127
 1186 1334 1186 1334 1122 1334 c 0,128,129
 1011 1334 1011 1334 911 1307 c 0,130,131
 810 1280 810 1280 722 1230 c 0,132,133
 634 1180 634 1180 563 1109 c 0,134,135
 491 1037 491 1037 440 948 c 0,136,137
 389 858 389 858 361 753 c 0,138,139
 333 648 333 648 334 530 c 0,140,141
 334 368 334 368 384 233 c 0,142,143
 434 97 434 97 526 -2 c 0,144,145
 618 -101 618 -101 749 -157 c 0,146,147
 879 -212 879 -212 1038 -212 c 0,148,149
 1121 -212 1121 -212 1196 -198 c 0,150,151
 1271 -184 1271 -184 1340 -161 c 0,152,153
 1410 -137 1410 -137 1477 -105 c 0,154,155
 1544 -73 1544 -73 1611 -36 c 0,156,-1
 1655 -140 l 0,157,158
 1584 -177 1584 -177 1508 -211 c 0,159,160
 1432 -245 1432 -245 1351 -272 c 0,161,162
 1269 -298 1269 -298 1178 -314 c 0,163,164
 1087 -330 1087 -330 988 -330 c 0,165,166
 865 -330 865 -330 754 -304 c 0,167,168
 642 -278 642 -278 546 -227 c 0,169,170
 450 -177 450 -177 371 -105 c 0,171,172
 293 -33 293 -33 238 58 c 0,173,174
 183 150 183 150 152 259 c 0,175,176
 122 368 122 368 122 493 c 0,177,178
 122 646 122 646 159 775 c 0,179,180
 196 905 196 905 262 1011 c 0,181,182
 328 1116 328 1116 419 1197 c 0,183,184
 510 1277 510 1277 618 1331 c 0,185,186
 726 1385 726 1385 847 1413 c 0,187,188
 968 1441 968 1441 1095 1441 c 0,189,190
 1265 1441 1265 1441 1403 1396 c 0,191,192
 1541 1351 1541 1351 1638 1265 c 0,193,194
 1735 1179 1735 1179 1788 1055 c 0,195,196
 1841 931 1841 931 1841 772 c 0,33,34
EndSplineSet
EndChar

StartChar: A
Encoding: 36 65 36
Width: 1437
VWidth: 1024
Flags: W
LayerCount: 2
Fore
SplineSet
849 0 m 0,0,-1
 849 106 l 0,1,-1
 973 122 l 0,2,3
 983 124 983 124 990 135 c 0,4,5
 997 146 997 146 992 158 c 0,6,-1
 879 490 l 0,7,-1
 430 490 l 0,8,-1
 314 166 l 0,9,10
 308 150 308 150 321 136 c 0,11,12
 333 123 333 123 344 122 c 0,13,-1
 462 106 l 0,14,-1
 462 0 l 0,15,-1
 10 0 l 0,16,-1
 10 106 l 0,17,-1
 128 124 l 0,18,-1
 598 1441 l 0,19,-1
 837 1441 l 0,20,-1
 1303 162 l 0,21,22
 1311 143 1311 143 1318 135 c 0,23,24
 1326 127 1326 127 1349 122 c 0,25,-1
 1428 106 l 0,26,-1
 1428 0 l 0,27,-1
 849 0 l 0,0,-1
646 1118 m 0,28,-1
 470 614 l 0,29,-1
 826 614 l 0,30,-1
 646 1118 l 0,28,-1
EndSplineSet
EndChar

StartChar: B
Encoding: 37 66 37
Width: 1339
VWidth: 1024
Flags: W
LayerCount: 2
Fore
SplineSet
872 1049 m 0,0,1
 872 1095 872 1095 862 1138 c 0,2,3
 852 1182 852 1182 823 1215 c 0,4,5
 794 1249 794 1249 741 1270 c 0,6,7
 688 1290 688 1290 604 1290 c 0,8,-1
 594 1290 l 0,9,10
 591 1290 591 1290 583 1290 c 0,11,12
 575 1289 575 1289 561 1288 c 0,13,14
 546 1287 546 1287 518 1285 c 0,15,-1
 518 786 l 0,16,17
 529 785 529 785 541 785 c 0,18,19
 550 784 550 784 558 784 c 0,20,-1
 570 784 l 0,21,22
 660 784 660 784 719 805 c 0,23,24
 777 825 777 825 812 861 c 0,25,26
 846 896 846 896 859 945 c 0,27,28
 872 994 872 994 872 1049 c 0,0,1
948 394 m 0,29,30
 948 529 948 529 870 595 c 0,31,32
 792 661 792 661 623 660 c 0,33,-1
 585 660 l 0,34,35
 562 660 562 660 518 658 c 0,36,-1
 518 124 l 0,37,38
 542 123 542 123 562 122 c 0,39,40
 579 121 579 121 595 120 c 0,41,42
 611 119 611 119 616 120 c 0,43,44
 696 120 696 120 758 134 c 0,45,46
 820 148 820 148 863 181 c 0,47,48
 905 214 905 214 927 266 c 0,49,50
 948 318 948 318 948 394 c 0,29,30
1263 409 m 0,51,52
 1263 311 1263 311 1241 242 c 0,53,54
 1219 174 1219 174 1183 129 c 0,55,56
 1147 83 1147 83 1098 57 c 0,57,58
 1049 31 1049 31 996 19 c 0,59,60
 942 6 942 6 886 3 c 0,61,62
 830 0 830 0 778 0 c 0,63,-1
 58 0 l 0,64,-1
 58 106 l 0,65,-1
 172 118 l 0,66,67
 191 120 191 120 205 132 c 0,68,69
 218 144 218 144 218 164 c 0,70,-1
 218 1243 l 0,71,72
 218 1263 218 1263 205 1276 c 0,73,74
 192 1288 192 1288 172 1290 c 0,75,-1
 58 1300 l 0,76,-1
 58 1407 l 0,77,-1
 734 1407 l 0,78,79
 772 1407 772 1407 820 1403 c 0,80,81
 868 1399 868 1399 917 1388 c 0,82,83
 967 1376 967 1376 1014 1355 c 0,84,85
 1061 1333 1061 1333 1098 1297 c 0,86,87
 1135 1261 1135 1261 1158 1208 c 0,88,89
 1181 1155 1181 1155 1181 1082 c 0,90,91
 1181 1019 1181 1019 1163 971 c 0,92,93
 1146 923 1146 923 1118 887 c 0,94,95
 1090 851 1090 851 1057 826 c 0,96,97
 1023 801 1023 801 990 785 c 0,98,99
 957 769 957 769 928 760 c 0,100,101
 899 751 899 751 884 749 c 0,102,103
 922 748 922 748 965 741 c 0,104,105
 1009 735 1009 735 1051 720 c 0,106,107
 1093 705 1093 705 1131 681 c 0,108,109
 1169 656 1169 656 1199 619 c 0,110,111
 1228 582 1228 582 1245 530 c 0,112,113
 1263 479 1263 479 1263 409 c 0,51,52
EndSplineSet
EndChar

StartChar: C
Encoding: 38 67 38
Width: 1333
VWidth: 1024
Flags: W
LayerCount: 2
Fore
SplineSet
1258 50 m 0,0,1
 1239 42 1239 42 1198 28 c 0,2,3
 1157 14 1157 14 1098 1 c 0,4,5
 1040 -13 1040 -13 967 -24 c 0,6,7
 895 -34 895 -34 814 -34 c 0,8,9
 706 -34 706 -34 610 -9 c 0,10,11
 514 16 514 16 432 61 c 0,12,13
 350 107 350 107 285 173 c 0,14,15
 219 239 219 239 173 321 c 0,16,17
 127 403 127 403 102 500 c 0,18,19
 77 597 77 597 78 705 c 0,20,21
 78 869 78 869 135 1004 c 0,22,23
 192 1139 192 1139 291 1236 c 0,24,25
 390 1333 390 1333 525 1387 c 0,26,27
 660 1441 660 1441 816 1441 c 0,28,29
 875 1441 875 1441 925 1436 c 0,30,31
 974 1431 974 1431 1023 1420 c 0,32,33
 1073 1409 1073 1409 1129 1393 c 0,34,35
 1185 1377 1185 1377 1258 1353 c 0,36,-1
 1258 996 l 0,37,-1
 1095 996 l 0,38,-1
 1049 1231 l 0,39,40
 1049 1236 1049 1236 1040 1248 c 0,41,42
 1032 1260 1032 1260 1021 1265 c 0,43,44
 1013 1269 1013 1269 996 1274 c 0,45,46
 979 1280 979 1280 958 1285 c 0,47,48
 937 1290 937 1290 914 1294 c 0,49,50
 891 1298 891 1298 872 1298 c 0,51,52
 764 1298 764 1298 678 1256 c 0,53,54
 591 1214 591 1214 531 1135 c 0,55,56
 471 1057 471 1057 439 947 c 0,57,58
 407 837 407 837 407 700 c 0,59,60
 407 626 407 626 418 554 c 0,61,62
 429 481 429 481 453 415 c 0,63,64
 477 348 477 348 516 291 c 0,65,66
 554 234 554 234 607 193 c 0,67,68
 660 151 660 151 731 126 c 0,69,70
 801 102 801 102 889 102 c 0,71,72
 928 102 928 102 961 112 c 0,73,74
 994 122 994 122 1011 130 c 0,75,76
 1019 133 1019 133 1031 147 c 0,77,78
 1043 161 1043 161 1047 170 c 0,79,-1
 1093 418 l 0,80,-1
 1258 418 l 0,81,-1
 1258 50 l 0,0,1
EndSplineSet
EndChar

StartChar: D
Encoding: 39 68 39
Width: 1517
VWidth: 1024
Flags: W
LayerCount: 2
Fore
SplineSet
1441 719 m 0,0,1
 1441 539 1441 539 1389 404 c 0,2,3
 1337 269 1337 269 1242 179 c 0,4,5
 1146 89 1146 89 1011 45 c 0,6,7
 876 0 876 0 709 0 c 0,8,-1
 54 0 l 0,9,-1
 54 106 l 0,10,-1
 170 118 l 0,11,12
 188 120 188 120 203 132 c 0,13,14
 218 144 218 144 218 164 c 0,15,-1
 218 1243 l 0,16,17
 218 1263 218 1263 203 1276 c 0,18,19
 188 1288 188 1288 170 1290 c 0,20,-1
 54 1300 l 0,21,-1
 54 1407 l 0,22,-1
 696 1407 l 0,23,24
 875 1407 875 1407 1014 1357 c 0,25,26
 1153 1307 1153 1307 1248 1216 c 0,27,28
 1343 1125 1343 1125 1392 999 c 0,29,30
 1441 873 1441 873 1441 719 c 0,0,1
1103 696 m 0,31,32
 1103 817 1103 817 1084 908 c 0,33,34
 1066 999 1066 999 1034 1063 c 0,35,36
 1002 1128 1002 1128 957 1171 c 0,37,38
 913 1214 913 1214 863 1240 c 0,39,40
 813 1265 813 1265 759 1275 c 0,41,42
 705 1285 705 1285 650 1285 c 0,43,-1
 518 1285 l 0,44,-1
 518 124 l 0,45,-1
 692 128 l 0,46,47
 737 129 737 129 785 140 c 0,48,49
 833 151 833 151 879 177 c 0,50,51
 925 203 925 203 965 245 c 0,52,53
 1005 287 1005 287 1036 351 c 0,54,55
 1067 414 1067 414 1085 499 c 0,56,57
 1103 584 1103 584 1103 696 c 0,31,32
EndSplineSet
EndChar

StartChar: E
Encoding: 40 69 40
Width: 1253
VWidth: 1024
Flags: W
LayerCount: 2
Fore
SplineSet
54 0 m 0,0,-1
 54 106 l 0,1,-1
 170 118 l 0,2,3
 188 120 188 120 203 132 c 0,4,5
 218 144 218 144 218 164 c 0,6,-1
 218 1243 l 0,7,8
 218 1263 218 1263 203 1276 c 0,9,10
 188 1288 188 1288 170 1290 c 0,11,-1
 54 1300 l 0,12,-1
 54 1407 l 0,13,-1
 1124 1407 l 0,14,-1
 1124 1072 l 0,15,-1
 973 1072 l 0,16,-1
 940 1246 l 0,17,18
 936 1261 936 1261 926 1273 c 0,19,20
 916 1285 916 1285 902 1285 c 0,21,-1
 512 1285 l 0,22,-1
 512 793 l 0,23,-1
 761 793 l 0,24,25
 775 793 775 793 785 806 c 0,26,27
 795 819 795 819 797 830 c 0,28,-1
 816 973 l 0,29,-1
 946 973 l 0,30,-1
 946 480 l 0,31,-1
 816 480 l 0,32,-1
 797 623 l 0,33,34
 795 634 795 634 785 647 c 0,35,36
 775 660 775 660 761 660 c 0,37,-1
 512 660 l 0,38,-1
 512 126 l 0,39,-1
 969 126 l 0,40,41
 982 126 982 126 993 140 c 0,42,43
 1004 154 1004 154 1007 166 c 0,44,-1
 1038 384 l 0,45,-1
 1191 384 l 0,46,-1
 1191 0 l 0,47,-1
 54 0 l 0,0,-1
EndSplineSet
EndChar

StartChar: F
Encoding: 41 70 41
Width: 1171
VWidth: 1024
Flags: W
LayerCount: 2
Fore
SplineSet
965 1049 m 0,0,-1
 935 1239 l 0,1,2
 932 1255 932 1255 922 1267 c 0,3,4
 912 1279 912 1279 898 1279 c 0,5,-1
 518 1279 l 0,6,-1
 518 763 l 0,7,-1
 778 763 l 0,8,9
 792 763 792 763 802 776 c 0,10,11
 812 789 812 789 814 801 c 0,12,-1
 835 944 l 0,13,-1
 965 944 l 0,14,-1
 965 449 l 0,15,-1
 835 449 l 0,16,-1
 814 592 l 0,17,18
 812 603 812 603 801 616 c 0,19,20
 790 629 790 629 778 629 c 0,21,-1
 518 629 l 0,22,-1
 518 164 l 0,23,24
 518 144 518 144 531 132 c 0,25,26
 544 120 544 120 564 118 c 0,27,-1
 700 106 l 0,28,-1
 700 0 l 0,29,-1
 56 0 l 0,30,-1
 56 106 l 0,31,-1
 170 118 l 0,32,33
 188 120 188 120 203 132 c 0,34,35
 218 144 218 144 218 164 c 0,36,-1
 218 1243 l 0,37,38
 218 1263 218 1263 203 1276 c 0,39,40
 188 1288 188 1288 170 1290 c 0,41,-1
 50 1300 l 0,42,-1
 50 1407 l 0,43,-1
 1116 1407 l 0,44,-1
 1116 1049 l 0,45,-1
 965 1049 l 0,0,-1
EndSplineSet
EndChar

StartChar: G
Encoding: 42 71 42
Width: 1501
VWidth: 1024
Flags: W
LayerCount: 2
Fore
SplineSet
1347 579 m 0,0,1
 1328 577 1328 577 1313 565 c 0,2,3
 1299 553 1299 553 1298 532 c 0,4,-1
 1298 65 l 0,5,6
 1236 37 1236 37 1160 15 c 0,7,8
 1094 -3 1094 -3 1006 -18 c 0,9,10
 917 -33 917 -33 812 -34 c 0,11,12
 654 -34 654 -34 520 19 c 0,13,14
 386 72 386 72 288 169 c 0,15,16
 190 266 190 266 134 402 c 0,17,18
 78 538 78 538 78 707 c 0,19,20
 78 877 78 877 134 1013 c 0,21,22
 190 1149 190 1149 290 1244 c 0,23,24
 390 1339 390 1339 528 1390 c 0,25,26
 666 1441 666 1441 828 1441 c 0,27,28
 931 1441 931 1441 1018 1428 c 0,29,30
 1104 1415 1104 1415 1167 1400 c 0,31,32
 1241 1382 1241 1382 1300 1359 c 0,33,-1
 1300 996 l 0,34,-1
 1137 996 l 0,35,-1
 1095 1223 l 0,36,37
 1093 1234 1093 1234 1081 1248 c 0,38,39
 1070 1262 1070 1262 1057 1267 c 0,40,41
 1008 1285 1008 1285 966 1294 c 0,42,43
 924 1303 924 1303 906 1303 c 0,44,45
 815 1303 815 1303 742 1279 c 0,46,47
 669 1256 669 1256 613 1216 c 0,48,49
 557 1176 557 1176 517 1120 c 0,50,51
 477 1065 477 1065 452 999 c 0,52,53
 426 933 426 933 414 862 c 0,54,55
 402 790 402 790 402 715 c 0,56,57
 402 580 402 580 436 471 c 0,58,59
 470 362 470 362 535 284 c 0,60,61
 600 207 600 207 695 165 c 0,62,63
 790 124 790 124 914 124 c 0,64,65
 928 124 928 124 950 122 c 0,66,67
 971 120 971 120 1009 124 c 0,68,-1
 1009 532 l 0,69,70
 1009 552 1009 552 994 566 c 0,71,72
 980 579 980 579 961 579 c 0,73,-1
 820 589 l 0,74,-1
 820 696 l 0,75,-1
 1453 696 l 0,76,-1
 1453 589 l 0,77,-1
 1347 579 l 0,0,1
EndSplineSet
EndChar

StartChar: H
Encoding: 43 72 43
Width: 1611
VWidth: 1024
Flags: W
LayerCount: 2
Fore
SplineSet
940 0 m 0,0,-1
 940 106 l 0,1,-1
 1049 118 l 0,2,3
 1068 120 1068 120 1081 132 c 0,4,5
 1094 144 1094 144 1095 164 c 0,6,-1
 1095 671 l 0,7,-1
 518 671 l 0,8,-1
 518 164 l 0,9,10
 518 144 518 144 531 132 c 0,11,12
 544 120 544 120 564 118 c 0,13,-1
 675 106 l 0,14,-1
 675 0 l 0,15,-1
 62 0 l 0,16,-1
 62 106 l 0,17,-1
 172 118 l 0,18,19
 191 120 191 120 205 132 c 0,20,21
 218 144 218 144 218 164 c 0,22,-1
 218 1243 l 0,23,24
 218 1263 218 1263 205 1276 c 0,25,26
 192 1288 192 1288 172 1290 c 0,27,-1
 62 1300 l 0,28,-1
 62 1407 l 0,29,-1
 675 1407 l 0,30,-1
 675 1300 l 0,31,-1
 564 1290 l 0,32,33
 545 1288 545 1288 531 1276 c 0,34,35
 518 1264 518 1264 518 1243 c 0,36,-1
 518 805 l 0,37,-1
 1095 805 l 0,38,-1
 1095 1243 l 0,39,40
 1095 1263 1095 1263 1081 1276 c 0,41,42
 1068 1288 1068 1288 1049 1290 c 0,43,-1
 940 1300 l 0,44,-1
 940 1407 l 0,45,-1
 1549 1407 l 0,46,-1
 1549 1300 l 0,47,-1
 1441 1290 l 0,48,49
 1424 1288 1424 1288 1409 1276 c 0,50,51
 1395 1264 1395 1264 1395 1243 c 0,52,-1
 1395 164 l 0,53,54
 1395 144 1395 144 1408 132 c 0,55,56
 1421 120 1421 120 1441 118 c 0,57,-1
 1549 106 l 0,58,-1
 1549 0 l 0,59,-1
 940 0 l 0,0,-1
EndSplineSet
EndChar

StartChar: I
Encoding: 44 73 44
Width: 751
VWidth: 1024
Flags: W
LayerCount: 2
Fore
SplineSet
48 0 m 0,0,-1
 48 106 l 0,1,-1
 178 118 l 0,2,3
 197 120 197 120 211 132 c 0,4,5
 224 144 224 144 224 164 c 0,6,-1
 224 1243 l 0,7,8
 224 1263 224 1263 211 1276 c 0,9,10
 198 1288 198 1288 178 1290 c 0,11,-1
 48 1300 l 0,12,-1
 48 1407 l 0,13,-1
 702 1407 l 0,14,-1
 702 1300 l 0,15,-1
 572 1290 l 0,16,17
 555 1288 555 1288 540 1276 c 0,18,19
 525 1264 525 1264 524 1243 c 0,20,-1
 524 164 l 0,21,22
 524 144 524 144 540 132 c 0,23,24
 555 120 555 120 572 118 c 0,25,-1
 702 106 l 0,26,-1
 702 0 l 0,27,-1
 48 0 l 0,0,-1
EndSplineSet
EndChar

StartChar: J
Encoding: 45 74 45
Width: 1073
VWidth: 1024
Flags: W
LayerCount: 2
Fore
SplineSet
900 1290 m 0,0,1
 881 1288 881 1288 867 1276 c 0,2,3
 854 1264 854 1264 854 1243 c 0,4,-1
 854 508 l 0,5,6
 854 386 854 386 825 287 c 0,7,8
 796 188 796 188 737 116 c 0,9,10
 677 44 677 44 584 5 c 0,11,12
 491 -34 491 -34 362 -34 c 0,13,14
 319 -34 319 -34 274 -28 c 0,15,16
 229 -22 229 -22 188 -13 c 0,17,18
 147 -4 147 -4 111 6 c 0,19,20
 75 16 75 16 50 26 c 0,21,-1
 50 409 l 0,22,-1
 214 409 l 0,23,-1
 262 128 l 0,24,25
 265 118 265 118 272 110 c 0,26,27
 278 103 278 103 289 97 c 0,28,29
 299 92 299 92 316 92 c 0,30,31
 374 92 374 92 419 114 c 0,32,33
 464 136 464 136 495 184 c 0,34,35
 526 233 526 233 541 314 c 0,36,37
 556 395 556 395 556 514 c 0,38,-1
 556 1243 l 0,39,40
 556 1263 556 1263 542 1276 c 0,41,42
 528 1288 528 1288 510 1290 c 0,43,-1
 380 1300 l 0,44,-1
 380 1407 l 0,45,-1
 1028 1407 l 0,46,-1
 1028 1300 l 0,47,-1
 900 1290 l 0,0,1
EndSplineSet
EndChar

StartChar: K
Encoding: 46 75 46
Width: 1429
VWidth: 1024
Flags: W
LayerCount: 2
Fore
SplineSet
975 0 m 0,0,-1
 975 78 l 0,1,-1
 633 614 l 0,2,-1
 518 614 l 0,3,-1
 518 164 l 0,4,5
 518 144 518 144 531 132 c 0,6,7
 544 120 544 120 564 118 c 0,8,-1
 675 106 l 0,9,-1
 675 0 l 0,10,-1
 60 0 l 0,11,-1
 60 106 l 0,12,-1
 172 118 l 0,13,14
 191 120 191 120 205 132 c 0,15,16
 218 144 218 144 218 164 c 0,17,-1
 218 1243 l 0,18,19
 218 1263 218 1263 205 1276 c 0,20,21
 192 1288 192 1288 172 1290 c 0,22,-1
 60 1300 l 0,23,-1
 60 1407 l 0,24,-1
 675 1407 l 0,25,-1
 675 1300 l 0,26,-1
 564 1290 l 0,27,28
 545 1288 545 1288 531 1276 c 0,29,30
 518 1264 518 1264 518 1243 c 0,31,-1
 518 715 l 0,32,-1
 577 715 l 0,33,-1
 1028 1265 l 0,34,35
 1033 1271 1033 1271 1031 1281 c 0,36,37
 1028 1291 1028 1291 1017 1290 c 0,38,-1
 898 1300 l 0,39,-1
 898 1407 l 0,40,-1
 1378 1407 l 0,41,-1
 1378 1300 l 0,42,43
 1355 1298 1355 1298 1330 1296 c 0,44,45
 1308 1294 1308 1294 1283 1292 c 0,46,47
 1257 1289 1257 1289 1231 1287 c 0,48,-1
 841 822 l 0,49,-1
 1281 120 l 0,50,-1
 1431 106 l 0,51,-1
 1431 0 l 0,52,-1
 975 0 l 0,0,-1
EndSplineSet
EndChar

StartChar: L
Encoding: 47 76 47
Width: 1161
VWidth: 1024
Flags: W
LayerCount: 2
Fore
SplineSet
56 0 m 0,0,-1
 56 106 l 0,1,-1
 172 118 l 0,2,3
 191 120 191 120 205 132 c 0,4,5
 218 144 218 144 218 164 c 0,6,-1
 218 1243 l 0,7,8
 218 1263 218 1263 205 1276 c 0,9,10
 192 1288 192 1288 172 1290 c 0,11,-1
 56 1300 l 0,12,-1
 56 1407 l 0,13,-1
 682 1407 l 0,14,-1
 682 1300 l 0,15,-1
 564 1290 l 0,16,17
 545 1288 545 1288 531 1276 c 0,18,19
 518 1264 518 1264 518 1243 c 0,20,-1
 518 128 l 0,21,-1
 883 128 l 0,22,23
 894 128 894 128 903 133 c 0,24,25
 912 138 912 138 918 146 c 0,26,27
 925 154 925 154 928 162 c 0,28,29
 932 170 932 170 933 176 c 0,30,-1
 961 418 l 0,31,-1
 1128 418 l 0,32,-1
 1128 0 l 0,33,-1
 56 0 l 0,0,-1
EndSplineSet
EndChar

StartChar: M
Encoding: 48 77 48
Width: 1892
VWidth: 1024
Flags: W
LayerCount: 2
Fore
SplineSet
1225 0 m 0,0,-1
 1225 106 l 0,1,-1
 1327 118 l 0,2,3
 1344 120 1344 120 1359 132 c 0,4,5
 1373 144 1373 144 1373 164 c 0,6,-1
 1373 1265 l 0,7,-1
 952 0 l 0,8,-1
 791 0 l 0,9,-1
 378 1256 l 0,10,-1
 378 164 l 0,11,12
 378 144 378 144 392 132 c 0,13,14
 406 120 406 120 424 118 c 0,15,-1
 537 106 l 0,16,-1
 537 0 l 0,17,-1
 52 0 l 0,18,-1
 52 106 l 0,19,-1
 170 118 l 0,20,21
 188 120 188 120 203 132 c 0,22,23
 218 144 218 144 218 164 c 0,24,-1
 218 1243 l 0,25,26
 218 1263 218 1263 203 1276 c 0,27,28
 188 1288 188 1288 170 1290 c 0,29,-1
 52 1300 l 0,30,-1
 52 1407 l 0,31,-1
 654 1407 l 0,32,-1
 654 1349 l 0,33,-1
 950 451 l 0,34,-1
 1243 1349 l 0,35,-1
 1243 1407 l 0,36,-1
 1839 1407 l 0,37,-1
 1839 1300 l 0,38,-1
 1719 1290 l 0,39,40
 1701 1288 1701 1288 1687 1276 c 0,41,42
 1673 1264 1673 1264 1673 1243 c 0,43,-1
 1673 164 l 0,44,45
 1673 144 1673 144 1687 132 c 0,46,47
 1701 120 1701 120 1719 118 c 0,48,-1
 1839 106 l 0,49,-1
 1839 0 l 0,50,-1
 1225 0 l 0,0,-1
EndSplineSet
EndChar

StartChar: N
Encoding: 49 78 49
Width: 1560
VWidth: 1024
Flags: W
LayerCount: 2
Fore
SplineSet
1386 1290 m 0,0,1
 1369 1288 1369 1288 1355 1276 c 0,2,3
 1341 1264 1341 1264 1340 1243 c 0,4,-1
 1340 0 l 0,5,-1
 1084 0 l 0,6,-1
 378 1109 l 0,7,-1
 378 164 l 0,8,9
 378 144 378 144 392 132 c 0,10,11
 406 120 406 120 424 118 c 0,12,-1
 541 106 l 0,13,-1
 541 0 l 0,14,-1
 56 0 l 0,15,-1
 56 106 l 0,16,-1
 172 118 l 0,17,18
 191 120 191 120 205 132 c 0,19,20
 218 144 218 144 218 164 c 0,21,-1
 218 1243 l 0,22,23
 218 1263 218 1263 205 1276 c 0,24,25
 192 1288 192 1288 172 1290 c 0,26,-1
 58 1300 l 0,27,-1
 58 1407 l 0,28,-1
 577 1407 l 0,29,-1
 577 1351 l 0,30,-1
 1181 404 l 0,31,-1
 1181 1243 l 0,32,33
 1181 1263 1181 1263 1166 1276 c 0,34,35
 1151 1288 1151 1288 1133 1290 c 0,36,-1
 1013 1300 l 0,37,-1
 1013 1407 l 0,38,-1
 1499 1407 l 0,39,-1
 1499 1300 l 0,40,-1
 1386 1290 l 0,0,1
EndSplineSet
EndChar

StartChar: O
Encoding: 50 79 50
Width: 1585
VWidth: 1024
Flags: W
LayerCount: 2
Fore
SplineSet
1510 696 m 0,0,1
 1510 545 1510 545 1460 413 c 0,2,3
 1409 280 1409 280 1316 181 c 0,4,5
 1223 82 1223 82 1093 24 c 0,6,7
 963 -34 963 -34 805 -34 c 0,8,9
 648 -34 648 -34 515 16 c 0,10,11
 381 66 381 66 284 161 c 0,12,13
 187 256 187 256 133 395 c 0,14,15
 78 534 78 534 78 713 c 0,16,17
 78 868 78 868 126 1001 c 0,18,19
 174 1135 174 1135 265 1232 c 0,20,21
 356 1329 356 1329 487 1385 c 0,22,23
 619 1441 619 1441 786 1441 c 0,24,25
 895 1441 895 1441 991 1414 c 0,26,27
 1087 1387 1087 1387 1168 1338 c 0,28,29
 1248 1289 1248 1289 1312 1221 c 0,30,31
 1375 1153 1375 1153 1419 1070 c 0,32,33
 1463 987 1463 987 1487 892 c 0,34,35
 1510 797 1510 797 1510 696 c 0,0,1
1172 688 m 0,36,37
 1172 811 1172 811 1149 922 c 0,38,39
 1126 1033 1126 1033 1080 1117 c 0,40,41
 1034 1201 1034 1201 965 1251 c 0,42,43
 896 1301 896 1301 805 1300 c 0,44,45
 732 1300 732 1300 675 1276 c 0,46,47
 618 1251 618 1251 574 1209 c 0,48,49
 530 1167 530 1167 500 1109 c 0,50,51
 469 1052 469 1052 450 986 c 0,52,53
 431 920 431 920 421 848 c 0,54,55
 412 777 412 777 413 707 c 0,56,57
 413 632 413 632 422 558 c 0,58,59
 432 484 432 484 452 417 c 0,60,61
 471 349 471 349 502 291 c 0,62,63
 533 233 533 233 573 190 c 0,64,65
 614 148 614 148 667 123 c 0,66,67
 720 98 720 98 784 98 c 0,68,69
 854 98 854 98 910 123 c 0,70,71
 966 148 966 148 1010 191 c 0,72,73
 1053 234 1053 234 1083 292 c 0,74,75
 1114 349 1114 349 1134 415 c 0,76,77
 1154 481 1154 481 1163 550 c 0,78,79
 1172 620 1172 620 1172 688 c 0,36,37
EndSplineSet
EndChar

StartChar: P
Encoding: 51 80 51
Width: 1282
VWidth: 1024
Flags: W
LayerCount: 2
Fore
SplineSet
893 971 m 0,0,1
 893 1045 893 1045 874 1102 c 0,2,3
 856 1159 856 1159 822 1199 c 0,4,5
 788 1238 788 1238 741 1258 c 0,6,7
 694 1278 694 1278 636 1279 c 0,8,-1
 518 1279 l 0,9,-1
 518 646 l 0,10,11
 530 645 530 645 538 645 c 0,12,13
 546 644 546 644 551 644 c 0,14,-1
 574 644 l 0,15,16
 647 645 647 645 706 663 c 0,17,18
 765 680 765 680 806 719 c 0,19,20
 847 758 847 758 870 820 c 0,21,22
 893 882 893 882 893 971 c 0,0,1
1206 981 m 0,23,24
 1206 891 1206 891 1184 822 c 0,25,26
 1162 753 1162 753 1123 701 c 0,27,28
 1084 649 1084 649 1032 614 c 0,29,30
 979 579 979 579 918 557 c 0,31,32
 857 535 857 535 790 526 c 0,33,34
 723 516 723 516 656 516 c 0,35,36
 626 516 626 516 594 516 c 0,37,38
 561 515 561 515 518 520 c 0,39,-1
 518 164 l 0,40,41
 518 144 518 144 531 132 c 0,42,43
 544 120 544 120 564 118 c 0,44,-1
 696 106 l 0,45,-1
 696 0 l 0,46,-1
 54 0 l 0,47,-1
 54 106 l 0,48,-1
 170 118 l 0,49,50
 188 120 188 120 203 132 c 0,51,52
 218 144 218 144 218 164 c 0,53,-1
 218 1243 l 0,54,55
 218 1263 218 1263 203 1276 c 0,56,57
 188 1288 188 1288 170 1290 c 0,58,-1
 48 1300 l 0,59,-1
 48 1407 l 0,60,-1
 636 1407 l 0,61,62
 707 1407 707 1407 776 1401 c 0,63,64
 846 1395 846 1395 909 1379 c 0,65,66
 972 1362 972 1362 1027 1333 c 0,67,68
 1081 1304 1081 1304 1121 1256 c 0,69,70
 1161 1208 1161 1208 1184 1141 c 0,71,72
 1206 1073 1206 1073 1206 981 c 0,23,24
EndSplineSet
EndChar

StartChar: Q
Encoding: 52 81 52
Width: 1585
VWidth: 1024
Flags: W
LayerCount: 2
Fore
SplineSet
1441 -338 m 0,0,1
 1332 -363 1332 -363 1243 -374 c 0,2,3
 1154 -386 1154 -386 1069 -386 c 0,4,5
 956 -386 956 -386 877 -360 c 0,6,7
 797 -334 797 -334 746 -286 c 0,8,9
 696 -238 696 -238 673 -171 c 0,10,11
 649 -103 649 -103 648 -20 c 0,12,13
 521 3 521 3 416 61 c 0,14,15
 311 120 311 120 236 213 c 0,16,17
 161 306 161 306 119 432 c 0,18,19
 78 557 78 557 78 713 c 0,20,21
 78 868 78 868 126 1001 c 0,22,23
 174 1135 174 1135 265 1232 c 0,24,25
 356 1329 356 1329 487 1385 c 0,26,27
 619 1441 619 1441 786 1441 c 0,28,29
 895 1441 895 1441 991 1414 c 0,30,31
 1087 1387 1087 1387 1168 1338 c 0,32,33
 1248 1289 1248 1289 1312 1221 c 0,34,35
 1375 1153 1375 1153 1419 1070 c 0,36,37
 1463 987 1463 987 1487 892 c 0,38,39
 1511 797 1511 797 1510 696 c 0,40,41
 1510 565 1510 565 1471 447 c 0,42,43
 1432 329 1432 329 1361 235 c 0,44,45
 1289 140 1289 140 1187 75 c 0,46,47
 1085 9 1085 9 961 -16 c 0,48,49
 959 -73 959 -73 982 -117 c 0,50,51
 1005 -161 1005 -161 1044 -191 c 0,52,53
 1083 -221 1083 -221 1136 -237 c 0,54,55
 1189 -252 1189 -252 1246 -252 c 0,56,57
 1277 -252 1277 -252 1324 -247 c 0,58,59
 1371 -242 1371 -242 1441 -226 c 0,60,-1
 1441 -338 l 0,0,1
1172 688 m 0,61,62
 1172 811 1172 811 1149 922 c 0,63,64
 1126 1033 1126 1033 1080 1117 c 0,65,66
 1034 1201 1034 1201 965 1251 c 0,67,68
 896 1301 896 1301 805 1300 c 0,69,70
 732 1300 732 1300 675 1276 c 0,71,72
 618 1251 618 1251 574 1209 c 0,73,74
 530 1167 530 1167 500 1109 c 0,75,76
 469 1052 469 1052 450 986 c 0,77,78
 431 920 431 920 421 848 c 0,79,80
 412 777 412 777 413 707 c 0,81,82
 413 632 413 632 422 558 c 0,83,84
 432 484 432 484 452 417 c 0,85,86
 471 349 471 349 502 291 c 0,87,88
 533 233 533 233 573 190 c 0,89,90
 614 148 614 148 667 123 c 0,91,92
 720 98 720 98 784 98 c 0,93,94
 854 98 854 98 910 123 c 0,95,96
 966 148 966 148 1010 191 c 0,97,98
 1053 234 1053 234 1083 292 c 0,99,100
 1114 349 1114 349 1134 415 c 0,101,102
 1154 481 1154 481 1163 550 c 0,103,104
 1172 620 1172 620 1172 688 c 0,61,62
EndSplineSet
EndChar

StartChar: R
Encoding: 53 82 53
Width: 1476
VWidth: 1024
Flags: W
LayerCount: 2
Fore
SplineSet
898 1019 m 0,0,1
 898 1152 898 1152 818 1217 c 0,2,3
 738 1282 738 1282 585 1281 c 0,4,5
 577 1282 577 1282 565 1282 c 0,6,-1
 544 1282 l 0,7,8
 532 1282 532 1282 518 1281 c 0,9,-1
 518 744 l 0,10,11
 545 742 545 742 562 741 c 0,12,13
 579 740 579 740 587 740 c 0,14,15
 636 740 636 740 691 750 c 0,16,17
 746 760 746 760 792 790 c 0,18,19
 838 820 838 820 868 875 c 0,20,21
 898 930 898 930 898 1019 c 0,0,1
1477 0 m 0,22,23
 1407 -8 1407 -8 1357 -21 c 0,24,25
 1307 -34 1307 -34 1269 -34 c 0,26,27
 1168 -34 1168 -34 1100 -6 c 0,28,29
 1032 22 1032 22 988 68 c 0,30,31
 943 114 943 114 915 172 c 0,32,33
 887 230 887 230 866 291 c 0,34,35
 844 352 844 352 822 411 c 0,36,37
 800 469 800 469 768 515 c 0,38,39
 735 561 735 561 686 588 c 0,40,41
 637 616 637 616 560 616 c 0,42,-1
 518 616 l 0,43,-1
 518 164 l 0,44,45
 518 144 518 144 531 132 c 0,46,47
 544 120 544 120 564 118 c 0,48,-1
 680 106 l 0,49,-1
 680 0 l 0,50,-1
 58 0 l 0,51,-1
 58 106 l 0,52,-1
 170 118 l 0,53,54
 188 120 188 120 203 132 c 0,55,56
 218 144 218 144 218 164 c 0,57,-1
 218 1243 l 0,58,59
 218 1263 218 1263 203 1276 c 0,60,61
 188 1288 188 1288 170 1290 c 0,62,-1
 58 1300 l 0,63,-1
 58 1407 l 0,64,-1
 755 1407 l 0,65,66
 794 1407 794 1407 843 1402 c 0,67,68
 892 1397 892 1397 943 1383 c 0,69,70
 994 1369 994 1369 1042 1345 c 0,71,72
 1091 1320 1091 1320 1128 1282 c 0,73,74
 1166 1244 1166 1244 1189 1188 c 0,75,76
 1212 1133 1212 1133 1212 1059 c 0,77,78
 1212 988 1212 988 1193 935 c 0,79,80
 1174 882 1174 882 1143 842 c 0,81,82
 1112 803 1112 803 1073 776 c 0,83,84
 1034 749 1034 749 992 732 c 0,85,86
 951 715 951 715 913 706 c 0,87,88
 875 697 875 697 847 692 c 0,89,90
 916 679 916 679 964 653 c 0,91,92
 1012 627 1012 627 1044 592 c 0,93,94
 1077 557 1077 557 1098 516 c 0,95,96
 1119 475 1119 475 1134 432 c 0,97,98
 1149 388 1149 388 1161 345 c 0,99,100
 1173 302 1173 302 1188 263 c 0,101,102
 1203 224 1203 224 1224 192 c 0,103,104
 1245 160 1245 160 1278 138 c 0,105,106
 1311 116 1311 116 1359 107 c 0,107,108
 1407 98 1407 98 1477 106 c 0,109,-1
 1477 0 l 0,22,23
EndSplineSet
EndChar

StartChar: S
Encoding: 54 83 54
Width: 1124
VWidth: 1024
Flags: W
LayerCount: 2
Fore
SplineSet
1047 411 m 0,0,1
 1047 300 1047 300 1000 217 c 0,2,3
 954 134 954 134 877 78 c 0,4,5
 800 23 800 23 698 -6 c 0,6,7
 597 -34 597 -34 486 -34 c 0,8,9
 403 -34 403 -34 330 -22 c 0,10,11
 257 -10 257 -10 201 6 c 0,12,13
 135 23 135 23 78 46 c 0,14,-1
 78 430 l 0,15,-1
 244 430 l 0,16,-1
 279 176 l 0,17,18
 281 164 281 164 291 154 c 0,19,20
 301 144 301 144 306 144 c 0,21,22
 331 134 331 134 357 126 c 0,23,24
 381 119 381 119 410 114 c 0,25,26
 439 109 439 109 468 109 c 0,27,28
 514 109 514 109 562 120 c 0,29,30
 610 131 610 131 650 155 c 0,31,32
 689 179 689 179 714 216 c 0,33,34
 739 254 739 254 738 306 c 0,35,36
 738 372 738 372 708 419 c 0,37,38
 677 467 677 467 628 505 c 0,39,40
 579 543 579 543 517 576 c 0,41,42
 455 608 455 608 392 642 c 0,43,44
 337 672 337 672 285 706 c 0,45,46
 233 740 233 740 194 784 c 0,47,48
 154 828 154 828 130 885 c 0,49,50
 106 941 106 941 106 1015 c 0,51,52
 106 1117 106 1117 147 1197 c 0,53,54
 188 1276 188 1276 258 1330 c 0,55,56
 328 1384 328 1384 419 1413 c 0,57,58
 511 1441 511 1441 612 1441 c 0,59,60
 692 1441 692 1441 764 1427 c 0,61,62
 836 1414 836 1414 891 1399 c 0,63,64
 954 1381 954 1381 1009 1357 c 0,65,-1
 1009 1013 l 0,66,-1
 847 1013 l 0,67,-1
 812 1237 l 0,68,69
 811 1241 811 1241 806 1246 c 0,70,71
 801 1251 801 1251 797 1256 c 0,72,73
 791 1261 791 1261 782 1267 c 0,74,75
 771 1276 771 1276 753 1283 c 0,76,77
 738 1289 738 1289 714 1295 c 0,78,79
 690 1301 690 1301 656 1300 c 0,80,81
 604 1300 604 1300 558 1288 c 0,82,83
 511 1276 511 1276 476 1252 c 0,84,85
 441 1228 441 1228 419 1193 c 0,86,87
 398 1157 398 1157 398 1111 c 0,88,89
 398 1056 398 1056 422 1013 c 0,90,91
 446 971 446 971 485 937 c 0,92,93
 524 903 524 903 575 876 c 0,94,95
 626 848 626 848 682 820 c 0,96,97
 748 787 748 787 813 752 c 0,98,99
 878 716 878 716 930 669 c 0,100,101
 982 622 982 622 1014 560 c 0,102,103
 1047 498 1047 498 1047 411 c 0,0,1
EndSplineSet
EndChar

StartChar: T
Encoding: 55 84 55
Width: 1275
VWidth: 1024
Flags: W
LayerCount: 2
Fore
SplineSet
1091 1023 m 0,0,-1
 1053 1256 l 0,1,2
 1050 1281 1050 1281 1023 1281 c 0,3,-1
 788 1281 l 0,4,-1
 788 164 l 0,5,6
 788 144 788 144 802 132 c 0,7,8
 816 120 816 120 835 118 c 0,9,-1
 958 106 l 0,10,-1
 958 0 l 0,11,-1
 318 0 l 0,12,-1
 318 106 l 0,13,-1
 440 118 l 0,14,15
 459 120 459 120 474 132 c 0,16,17
 488 144 488 144 488 164 c 0,18,-1
 488 1281 l 0,19,-1
 254 1281 l 0,20,21
 225 1281 225 1281 222 1256 c 0,22,-1
 184 1023 l 0,23,-1
 34 1023 l 0,24,-1
 34 1407 l 0,25,-1
 1243 1407 l 0,26,-1
 1243 1023 l 0,27,-1
 1091 1023 l 0,0,-1
EndSplineSet
EndChar

StartChar: U
Encoding: 56 85 56
Width: 1527
VWidth: 1024
Flags: W
LayerCount: 2
Fore
SplineSet
1363 1290 m 0,0,1
 1346 1288 1346 1288 1331 1276 c 0,2,3
 1317 1264 1317 1264 1317 1243 c 0,4,-1
 1317 532 l 0,5,6
 1317 377 1317 377 1282 270 c 0,7,8
 1247 162 1247 162 1177 94 c 0,9,10
 1106 26 1106 26 998 -4 c 0,11,12
 890 -34 890 -34 742 -34 c 0,13,14
 472 -34 472 -34 340 111 c 0,15,16
 208 256 208 256 208 532 c 0,17,-1
 208 1243 l 0,18,19
 208 1263 208 1263 193 1276 c 0,20,21
 178 1288 178 1288 160 1290 c 0,22,-1
 46 1300 l 0,23,-1
 46 1407 l 0,24,-1
 667 1407 l 0,25,-1
 667 1300 l 0,26,-1
 554 1290 l 0,27,28
 537 1288 537 1288 522 1276 c 0,29,30
 508 1264 508 1264 508 1243 c 0,31,-1
 508 516 l 0,32,33
 508 319 508 319 591 230 c 0,34,35
 674 140 674 140 847 140 c 0,36,37
 930 140 930 140 988 167 c 0,38,39
 1046 194 1046 194 1084 244 c 0,40,41
 1122 293 1122 293 1140 362 c 0,42,43
 1157 431 1157 431 1157 516 c 0,44,-1
 1157 1243 l 0,45,46
 1157 1263 1157 1263 1144 1276 c 0,47,48
 1131 1288 1131 1288 1111 1290 c 0,49,-1
 992 1300 l 0,50,-1
 992 1407 l 0,51,-1
 1475 1407 l 0,52,-1
 1475 1300 l 0,53,-1
 1363 1290 l 0,0,1
EndSplineSet
EndChar

StartChar: V
Encoding: 57 86 57
Width: 1480
VWidth: 1024
Flags: W
LayerCount: 2
Fore
SplineSet
1327 1283 m 0,0,-1
 845 -34 l 0,1,-1
 646 -34 l 0,2,-1
 156 1281 l 0,3,-1
 20 1300 l 0,4,-1
 20 1407 l 0,5,-1
 618 1407 l 0,6,-1
 618 1300 l 0,7,-1
 501 1285 l 0,8,9
 483 1282 483 1282 479 1267 c 0,10,11
 475 1252 475 1252 480 1239 c 0,12,-1
 812 327 l 0,13,-1
 1133 1241 l 0,14,15
 1136 1254 1136 1254 1131 1268 c 0,16,17
 1126 1282 1126 1282 1103 1285 c 0,18,-1
 990 1300 l 0,19,-1
 990 1407 l 0,20,-1
 1459 1407 l 0,21,-1
 1459 1300 l 0,22,-1
 1327 1283 l 0,0,-1
EndSplineSet
EndChar

StartChar: W
Encoding: 58 87 58
Width: 2025
VWidth: 1024
Flags: W
LayerCount: 2
Fore
SplineSet
1877 1283 m 0,0,-1
 1547 -34 l 0,1,-1
 1349 -34 l 0,2,-1
 1021 1057 l 0,3,-1
 700 -34 l 0,4,-1
 499 -34 l 0,5,-1
 148 1283 l 0,6,-1
 20 1300 l 0,7,-1
 20 1407 l 0,8,-1
 592 1407 l 0,9,-1
 592 1300 l 0,10,-1
 468 1287 l 0,11,12
 449 1285 449 1285 447 1271 c 0,13,14
 445 1257 445 1257 449 1243 c 0,15,-1
 671 413 l 0,16,-1
 965 1407 l 0,17,-1
 1191 1407 l 0,18,-1
 1495 390 l 0,19,-1
 1705 1243 l 0,20,21
 1708 1256 1708 1256 1703 1270 c 0,22,23
 1698 1284 1698 1284 1675 1287 c 0,24,-1
 1541 1300 l 0,25,-1
 1541 1407 l 0,26,-1
 2005 1407 l 0,27,-1
 2005 1300 l 0,28,-1
 1877 1283 l 0,0,-1
EndSplineSet
EndChar

StartChar: X
Encoding: 59 88 59
Width: 1406
VWidth: 1024
Flags: W
LayerCount: 2
Fore
SplineSet
757 0 m 0,0,-1
 757 106 l 0,1,-1
 885 116 l 0,2,3
 899 118 899 118 904 132 c 0,4,5
 909 146 909 146 895 166 c 0,6,-1
 660 535 l 0,7,-1
 378 168 l 0,8,9
 370 159 370 159 369 150 c 0,10,11
 368 141 368 141 371 134 c 0,12,13
 374 127 374 127 379 123 c 0,14,15
 385 119 385 119 390 118 c 0,16,-1
 516 106 l 0,17,-1
 516 0 l 0,18,-1
 20 0 l 0,19,-1
 20 106 l 0,20,-1
 156 124 l 0,21,-1
 572 671 l 0,22,-1
 180 1281 l 0,23,-1
 48 1300 l 0,24,-1
 48 1407 l 0,25,-1
 663 1407 l 0,26,-1
 663 1300 l 0,27,-1
 552 1290 l 0,28,29
 541 1290 541 1290 535 1275 c 0,30,31
 529 1260 529 1260 541 1239 c 0,32,-1
 751 908 l 0,33,-1
 1009 1241 l 0,34,35
 1023 1258 1023 1258 1017 1275 c 0,36,37
 1011 1292 1011 1292 996 1292 c 0,38,-1
 885 1300 l 0,39,-1
 885 1407 l 0,40,-1
 1363 1407 l 0,41,-1
 1363 1300 l 0,42,-1
 1231 1281 l 0,43,-1
 839 772 l 0,44,-1
 1254 124 l 0,45,-1
 1386 106 l 0,46,-1
 1386 0 l 0,47,-1
 757 0 l 0,0,-1
EndSplineSet
EndChar

StartChar: Y
Encoding: 60 89 60
Width: 1390
VWidth: 1024
Flags: W
LayerCount: 2
Fore
SplineSet
1248 1281 m 0,0,-1
 860 608 l 0,1,-1
 860 164 l 0,2,3
 860 144 860 144 873 132 c 0,4,5
 886 120 886 120 906 118 c 0,6,-1
 1034 106 l 0,7,-1
 1034 0 l 0,8,-1
 384 0 l 0,9,-1
 384 106 l 0,10,-1
 512 118 l 0,11,12
 529 120 529 120 545 132 c 0,13,14
 560 144 560 144 560 164 c 0,15,-1
 560 550 l 0,16,-1
 156 1281 l 0,17,-1
 20 1300 l 0,18,-1
 20 1407 l 0,19,-1
 616 1407 l 0,20,-1
 616 1300 l 0,21,-1
 506 1290 l 0,22,23
 495 1290 495 1290 489 1275 c 0,24,25
 483 1260 483 1260 495 1239 c 0,26,-1
 759 742 l 0,27,-1
 1044 1241 l 0,28,29
 1055 1260 1055 1260 1052 1276 c 0,30,31
 1048 1292 1048 1292 1034 1292 c 0,32,-1
 906 1300 l 0,33,-1
 906 1407 l 0,34,-1
 1369 1407 l 0,35,-1
 1369 1300 l 0,36,-1
 1248 1281 l 0,0,-1
EndSplineSet
EndChar

StartChar: Z
Encoding: 61 90 61
Width: 1218
VWidth: 1024
Flags: W
LayerCount: 2
Fore
SplineSet
78 0 m 0,0,-1
 78 124 l 0,1,-1
 797 1279 l 0,2,-1
 334 1279 l 0,3,4
 307 1279 307 1279 304 1254 c 0,5,-1
 266 1025 l 0,6,-1
 114 1025 l 0,7,-1
 114 1407 l 0,8,-1
 1130 1407 l 0,9,-1
 1130 1283 l 0,10,-1
 413 130 l 0,11,-1
 914 130 l 0,12,13
 940 130 940 130 946 154 c 0,14,-1
 988 413 l 0,15,-1
 1141 413 l 0,16,-1
 1141 0 l 0,17,-1
 78 0 l 0,0,-1
EndSplineSet
EndChar

StartChar: bracketleft
Encoding: 62 91 62
Width: 1148
VWidth: 1024
Flags: W
LayerCount: 2
Fore
SplineSet
492 -276 m 0,0,-1
 492 1485 l 0,1,-1
 1073 1485 l 0,2,-1
 1073 1359 l 0,3,-1
 752 1359 l 0,4,-1
 752 -156 l 0,5,-1
 1073 -156 l 0,6,-1
 1073 -276 l 0,7,-1
 492 -276 l 0,0,-1
EndSplineSet
EndChar

StartChar: backslash
Encoding: 63 92 63
Width: 1036
VWidth: 1024
Flags: W
LayerCount: 2
Fore
SplineSet
872 -195 m 0,0,-1
 0 1407 l 0,1,-1
 164 1407 l 0,2,-1
 1036 -195 l 0,3,-1
 872 -195 l 0,0,-1
EndSplineSet
EndChar

StartChar: bracketright
Encoding: 64 93 64
Width: 1234
VWidth: 1024
Flags: W
LayerCount: 2
Fore
SplineSet
76 -276 m 0,0,-1
 76 -156 l 0,1,-1
 396 -156 l 0,2,-1
 396 1359 l 0,3,-1
 76 1359 l 0,4,-1
 76 1485 l 0,5,-1
 656 1485 l 0,6,-1
 656 -276 l 0,7,-1
 76 -276 l 0,0,-1
EndSplineSet
EndChar

StartChar: asciicircum
Encoding: 65 94 65
Width: 712
VWidth: 1024
Flags: W
LayerCount: 2
Fore
SplineSet
754 578 m 0,0,-1
 663 677 l 0,1,-1
 571 578 l 0,2,-1
 484 578 l 0,3,-1
 601 757 l 0,4,-1
 724 757 l 0,5,-1
 841 578 l 0,6,-1
 754 578 l 0,0,-1
EndSplineSet
EndChar

StartChar: underscore
Encoding: 66 95 66
Width: 712
VWidth: 1024
Flags: W
LayerCount: 2
Fore
SplineSet
0 -348 m 0,0,-1
 0 -179 l 0,1,-1
 713 -179 l 0,2,-1
 713 -348 l 0,3,-1
 0 -348 l 0,0,-1
EndSplineSet
EndChar

StartChar: grave
Encoding: 67 96 67
Width: 784
VWidth: 1024
Flags: W
LayerCount: 2
Fore
SplineSet
669 578 m 0,0,-1
 499 670 l 0,1,2
 493 673 493 673 488 679 c 0,3,4
 483 684 483 684 480 690 c 0,5,6
 476 696 476 696 475 703 c 0,7,8
 473 709 473 709 473 714 c 0,9,10
 473 723 473 723 476 733 c 0,11,12
 479 743 479 743 486 751 c 0,13,14
 493 759 493 759 504 764 c 0,15,16
 516 769 516 769 532 770 c 0,17,18
 543 770 543 770 551 768 c 0,19,20
 559 766 559 766 567 763 c 0,21,22
 574 759 574 759 582 752 c 0,23,24
 589 746 589 746 599 736 c 0,25,-1
 742 578 l 0,26,-1
 669 578 l 0,0,-1
EndSplineSet
EndChar

StartChar: a
Encoding: 68 97 68
Width: 1159
VWidth: 1024
Flags: W
LayerCount: 2
Fore
SplineSet
707 541 m 0,0,1
 606 521 606 521 539 499 c 0,2,3
 473 477 473 477 434 450 c 0,4,5
 395 422 395 422 380 387 c 0,6,7
 365 352 365 352 365 304 c 0,8,9
 365 271 365 271 375 243 c 0,10,11
 386 215 386 215 406 194 c 0,12,13
 426 173 426 173 454 161 c 0,14,15
 482 149 482 149 514 148 c 0,16,17
 548 148 548 148 582 156 c 0,18,19
 616 163 616 163 644 171 c 0,20,21
 677 181 677 181 707 195 c 0,22,-1
 707 541 l 0,0,1
734 0 m 0,23,-1
 707 104 l 0,24,25
 653 67 653 67 593 39 c 0,26,27
 541 14 541 14 476 -6 c 0,28,29
 411 -26 411 -26 342 -26 c 0,30,31
 285 -26 285 -26 235 -7 c 0,32,33
 185 12 185 12 148 48 c 0,34,35
 111 83 111 83 89 133 c 0,36,37
 67 183 67 183 68 246 c 0,38,39
 68 293 68 293 75 333 c 0,40,41
 83 373 83 373 106 407 c 0,42,43
 129 441 129 441 172 473 c 0,44,45
 215 504 215 504 286 534 c 0,46,47
 357 564 357 564 461 593 c 0,48,49
 564 623 564 623 709 654 c 0,50,-1
 709 680 l 0,51,52
 709 695 709 695 710 708 c 0,53,54
 710 722 710 722 711 736 c 0,55,56
 712 766 712 766 705 800 c 0,57,58
 698 834 698 834 676 864 c 0,59,60
 654 893 654 893 615 912 c 0,61,62
 576 931 576 931 514 931 c 0,63,64
 492 931 492 931 476 930 c 0,65,66
 459 929 459 929 447 927 c 0,67,68
 434 925 434 925 424 923 c 0,69,-1
 424 724 l 0,70,-1
 208 724 l 0,71,72
 181 722 181 722 161 729 c 0,73,74
 144 735 144 735 129 751 c 0,75,76
 114 766 114 766 114 799 c 0,77,78
 114 857 114 857 155 903 c 0,79,80
 196 949 196 949 264 982 c 0,81,82
 331 1014 331 1014 414 1031 c 0,83,84
 497 1048 497 1048 581 1049 c 0,85,86
 671 1049 671 1049 745 1035 c 0,87,88
 820 1022 820 1022 874 984 c 0,89,90
 928 946 928 946 957 876 c 0,91,92
 986 806 986 806 986 692 c 0,93,-1
 986 154 l 0,94,95
 986 135 986 135 999 120 c 0,96,97
 1012 106 1012 106 1032 104 c 0,98,-1
 1124 98 l 0,99,-1
 1124 0 l 0,100,-1
 734 0 l 0,23,-1
EndSplineSet
EndChar

StartChar: b
Encoding: 69 98 69
Width: 1253
VWidth: 1024
Flags: W
LayerCount: 2
Fore
SplineSet
883 512 m 0,0,1
 883 597 883 597 863 664 c 0,2,3
 844 731 844 731 806 778 c 0,4,5
 768 825 768 825 711 850 c 0,6,7
 654 875 654 875 581 874 c 0,8,9
 562 874 562 874 542 872 c 0,10,11
 523 870 523 870 507 868 c 0,12,-1
 470 862 l 0,13,-1
 470 118 l 0,14,15
 488 118 488 118 496 117 c 0,16,17
 504 116 504 116 514 116 c 0,18,19
 601 116 601 116 670 136 c 0,20,21
 739 156 739 156 785 202 c 0,22,23
 832 249 832 249 858 325 c 0,24,25
 883 400 883 400 883 512 c 0,0,1
1187 574 m 0,26,27
 1187 453 1187 453 1146 349 c 0,28,29
 1105 244 1105 244 1027 166 c 0,30,31
 949 89 949 89 834 45 c 0,32,33
 720 0 720 0 572 0 c 0,34,-1
 188 0 l 0,35,-1
 188 1361 l 0,36,-1
 42 1361 l 0,37,-1
 42 1447 l 0,38,-1
 362 1552 l 0,39,-1
 470 1552 l 0,40,-1
 470 952 l 0,41,42
 514 979 514 979 563 1000 c 0,43,44
 606 1017 606 1017 660 1033 c 0,45,46
 714 1048 714 1048 774 1049 c 0,47,48
 858 1049 858 1049 933 1017 c 0,49,50
 1008 985 1008 985 1065 924 c 0,51,52
 1121 863 1121 863 1154 775 c 0,53,54
 1187 687 1187 687 1187 574 c 0,26,27
EndSplineSet
EndChar

StartChar: c
Encoding: 70 99 70
Width: 1052
VWidth: 1024
Flags: W
LayerCount: 2
Fore
SplineSet
988 92 m 0,0,1
 961 80 961 80 923 60 c 0,2,3
 885 41 885 41 834 22 c 0,4,5
 783 3 783 3 719 -12 c 0,6,7
 654 -26 654 -26 574 -26 c 0,8,9
 451 -26 451 -26 357 16 c 0,10,11
 263 58 263 58 199 130 c 0,12,13
 134 201 134 201 101 294 c 0,14,15
 68 387 68 387 68 490 c 0,16,17
 68 614 68 614 110 717 c 0,18,19
 152 820 152 820 226 894 c 0,20,21
 299 968 299 968 397 1008 c 0,22,23
 495 1048 495 1048 608 1049 c 0,24,25
 691 1049 691 1049 758 1032 c 0,26,27
 825 1015 825 1015 872 984 c 0,28,29
 920 953 920 953 945 911 c 0,30,31
 971 869 971 869 971 818 c 0,32,33
 971 782 971 782 958 754 c 0,34,35
 945 725 945 725 925 704 c 0,36,37
 905 683 905 683 878 672 c 0,38,39
 851 661 851 661 822 660 c 0,40,41
 789 660 789 660 767 665 c 0,42,43
 745 669 745 669 730 675 c 0,44,45
 715 682 715 682 703 690 c 0,46,47
 692 698 692 698 682 705 c 0,48,-1
 682 940 l 0,49,50
 669 940 669 940 661 941 c 0,51,52
 653 942 653 942 642 942 c 0,53,54
 594 942 594 942 546 918 c 0,55,56
 498 893 498 893 461 844 c 0,57,58
 423 795 423 795 399 722 c 0,59,60
 375 649 375 649 376 552 c 0,61,62
 376 460 376 460 398 386 c 0,63,64
 420 312 420 312 461 259 c 0,65,66
 502 207 502 207 561 179 c 0,67,68
 620 151 620 151 694 151 c 0,69,70
 742 151 742 151 791 164 c 0,71,72
 839 177 839 177 879 195 c 0,73,74
 919 212 919 212 949 229 c 0,75,76
 978 246 978 246 988 254 c 0,77,-1
 988 92 l 0,0,1
EndSplineSet
EndChar

StartChar: d
Encoding: 71 100 71
Width: 1275
VWidth: 1024
Flags: W
LayerCount: 2
Fore
SplineSet
810 0 m 0,0,-1
 810 122 l 0,1,2
 798 116 798 116 766 92 c 0,3,4
 734 68 734 68 689 41 c 0,5,6
 644 15 644 15 590 -5 c 0,7,8
 536 -25 536 -25 478 -26 c 0,9,10
 382 -26 382 -26 306 13 c 0,11,12
 230 52 230 52 177 121 c 0,13,14
 124 190 124 190 96 284 c 0,15,16
 68 378 68 378 68 488 c 0,17,18
 68 623 68 623 109 728 c 0,19,20
 150 832 150 832 222 904 c 0,21,22
 295 975 295 975 395 1012 c 0,23,24
 495 1049 495 1049 614 1049 c 0,25,26
 644 1049 644 1049 678 1044 c 0,27,28
 712 1040 712 1040 742 1035 c 0,29,30
 776 1030 776 1030 810 1023 c 0,31,-1
 810 1361 l 0,32,-1
 654 1361 l 0,33,-1
 654 1447 l 0,34,-1
 981 1552 l 0,35,-1
 1089 1552 l 0,36,-1
 1089 154 l 0,37,38
 1089 135 1089 135 1102 120 c 0,39,40
 1115 106 1115 106 1135 104 c 0,41,-1
 1223 98 l 0,42,-1
 1223 0 l 0,43,-1
 810 0 l 0,0,-1
810 885 m 0,44,45
 785 895 785 895 759 903 c 0,46,47
 736 910 736 910 710 916 c 0,48,49
 684 922 684 922 660 923 c 0,50,51
 587 923 587 923 534 893 c 0,52,53
 480 863 480 863 444 811 c 0,54,55
 409 759 409 759 391 688 c 0,56,57
 374 617 374 617 374 537 c 0,58,59
 374 454 374 454 391 386 c 0,60,61
 408 318 408 318 441 270 c 0,62,63
 475 221 475 221 526 195 c 0,64,65
 577 168 577 168 646 168 c 0,66,67
 675 168 675 168 704 174 c 0,68,69
 733 180 733 180 757 187 c 0,70,71
 785 196 785 196 810 208 c 0,72,-1
 810 885 l 0,44,45
EndSplineSet
EndChar

StartChar: e
Encoding: 72 101 72
Width: 1107
VWidth: 1024
Flags: W
LayerCount: 2
Fore
SplineSet
1044 98 m 0,0,1
 990 62 990 62 923 36 c 0,2,3
 865 12 865 12 783 -7 c 0,4,5
 702 -26 702 -26 602 -26 c 0,6,7
 468 -26 468 -26 368 15 c 0,8,9
 268 56 268 56 201 127 c 0,10,11
 134 198 134 198 101 294 c 0,12,13
 68 389 68 389 68 499 c 0,14,15
 68 618 68 618 105 718 c 0,16,17
 142 819 142 819 211 892 c 0,18,19
 280 965 280 965 378 1007 c 0,20,21
 476 1048 476 1048 596 1049 c 0,22,23
 719 1049 719 1049 804 1008 c 0,24,25
 890 968 890 968 943 901 c 0,26,27
 996 834 996 834 1020 748 c 0,28,29
 1044 662 1044 662 1044 570 c 0,30,-1
 1044 520 l 0,31,-1
 356 520 l 0,32,33
 356 434 356 434 378 366 c 0,34,35
 400 297 400 297 441 249 c 0,36,37
 482 201 482 201 543 175 c 0,38,39
 603 149 603 149 680 148 c 0,40,41
 760 148 760 148 826 166 c 0,42,43
 892 184 892 184 941 207 c 0,44,45
 997 234 997 234 1044 266 c 0,46,-1
 1044 98 l 0,0,1
744 684 m 0,47,48
 744 734 744 734 735 778 c 0,49,50
 726 822 726 822 705 855 c 0,51,52
 684 887 684 887 651 906 c 0,53,54
 618 925 618 925 572 925 c 0,55,56
 514 925 514 925 475 899 c 0,57,58
 436 873 436 873 411 831 c 0,59,60
 387 790 387 790 377 738 c 0,61,62
 367 687 367 687 367 638 c 0,63,-1
 744 638 l 0,64,-1
 744 684 l 0,47,48
EndSplineSet
EndChar

StartChar: f
Encoding: 73 102 73
Width: 727
VWidth: 1024
Flags: W
LayerCount: 2
Fore
SplineSet
881 1384 m 0,0,1
 881 1359 881 1359 870 1338 c 0,2,3
 859 1316 859 1316 841 1299 c 0,4,5
 823 1281 823 1281 800 1268 c 0,6,7
 776 1255 776 1255 751 1246 c 0,8,-1
 543 1441 l 0,9,10
 528 1417 528 1417 515 1391 c 0,11,12
 502 1365 502 1365 494 1329 c 0,13,14
 486 1293 486 1293 481 1242 c 0,15,16
 476 1192 476 1192 476 1120 c 0,17,-1
 476 998 l 0,18,-1
 705 998 l 0,19,-1
 705 864 l 0,20,-1
 478 864 l 0,21,-1
 478 154 l 0,22,23
 478 135 478 135 491 119 c 0,24,25
 504 104 504 104 524 104 c 0,26,-1
 652 98 l 0,27,-1
 652 0 l 0,28,-1
 44 0 l 0,29,-1
 44 98 l 0,30,-1
 151 104 l 0,31,32
 170 106 170 106 184 120 c 0,33,34
 198 134 198 134 198 154 c 0,35,-1
 198 864 l 0,36,-1
 60 864 l 0,37,-1
 60 948 l 0,38,-1
 195 1017 l 0,39,40
 195 1100 195 1100 218 1174 c 0,41,42
 241 1248 241 1248 286 1317 c 0,43,44
 317 1368 317 1368 358 1411 c 0,45,46
 399 1454 399 1454 450 1486 c 0,47,48
 500 1518 500 1518 558 1535 c 0,49,50
 616 1552 616 1552 680 1552 c 0,51,52
 711 1552 711 1552 746 1543 c 0,53,54
 781 1533 781 1533 812 1513 c 0,55,56
 842 1493 842 1493 861 1461 c 0,57,58
 881 1428 881 1428 881 1384 c 0,0,1
EndSplineSet
EndChar

StartChar: g
Encoding: 74 103 74
Width: 1163
VWidth: 1024
Flags: W
LayerCount: 2
Fore
SplineSet
961 860 m 0,0,1
 972 837 972 837 981 812 c 0,2,3
 989 789 989 789 996 761 c 0,4,5
 1003 733 1003 733 1002 700 c 0,6,7
 1002 629 1002 629 979 576 c 0,8,9
 955 522 955 522 916 483 c 0,10,11
 877 444 877 444 825 417 c 0,12,13
 774 390 774 390 718 375 c 0,14,15
 662 360 662 360 606 354 c 0,16,17
 550 349 550 349 501 352 c 0,18,19
 483 340 483 340 467 327 c 0,20,21
 452 314 452 314 444 298 c 0,22,23
 436 283 436 283 436 266 c 0,24,25
 435 249 435 249 444 226 c 0,26,27
 616 212 616 212 738 186 c 0,28,29
 859 160 859 160 936 123 c 0,30,31
 1013 85 1013 85 1048 33 c 0,32,33
 1083 -19 1083 -19 1082 -84 c 0,34,35
 1082 -144 1082 -144 1059 -198 c 0,36,37
 1036 -251 1036 -251 996 -295 c 0,38,39
 956 -340 956 -340 902 -375 c 0,40,41
 848 -410 848 -410 785 -435 c 0,42,43
 722 -459 722 -459 653 -472 c 0,44,45
 584 -485 584 -485 516 -484 c 0,46,47
 433 -484 433 -484 353 -465 c 0,48,49
 273 -446 273 -446 209 -407 c 0,50,51
 146 -367 146 -367 106 -305 c 0,52,53
 67 -244 67 -244 68 -160 c 0,54,55
 68 -94 68 -94 92 -51 c 0,56,57
 117 -7 117 -7 151 19 c 0,58,59
 185 45 185 45 220 54 c 0,60,61
 255 63 255 63 276 60 c 0,62,63
 262 89 262 89 256 120 c 0,64,65
 250 151 250 151 250 172 c 0,66,67
 250 199 250 199 257 223 c 0,68,69
 264 247 264 247 279 270 c 0,70,71
 293 293 293 293 315 316 c 0,72,73
 337 340 337 340 367 367 c 0,74,75
 339 373 339 373 295 392 c 0,76,77
 251 411 251 411 210 449 c 0,78,79
 169 486 169 486 139 543 c 0,80,81
 109 600 109 600 109 682 c 0,82,83
 109 776 109 776 145 845 c 0,84,85
 181 914 181 914 244 959 c 0,86,87
 307 1004 307 1004 392 1027 c 0,88,89
 476 1049 476 1049 572 1049 c 0,90,91
 621 1049 621 1049 665 1041 c 0,92,93
 709 1034 709 1034 746 1025 c 0,94,95
 783 1015 783 1015 815 1004 c 0,96,97
 846 993 846 993 872 984 c 0,98,-1
 1145 984 l 0,99,-1
 1145 860 l 0,100,-1
 961 860 l 0,0,1
726 705 m 0,101,102
 726 748 726 748 716 791 c 0,103,104
 706 835 706 835 687 869 c 0,105,106
 667 903 667 903 637 925 c 0,107,108
 607 947 607 947 568 946 c 0,109,110
 521 946 521 946 488 925 c 0,111,112
 455 904 455 904 436 869 c 0,113,114
 416 834 416 834 407 791 c 0,115,116
 398 747 398 747 398 702 c 0,117,118
 398 656 398 656 408 611 c 0,119,120
 418 565 418 565 438 530 c 0,121,122
 458 495 458 495 489 473 c 0,123,124
 521 451 521 451 564 451 c 0,125,126
 607 451 607 451 637 473 c 0,127,128
 667 495 667 495 688 531 c 0,129,130
 708 567 708 567 717 613 c 0,131,132
 726 659 726 659 726 705 c 0,101,102
812 -144 m 0,133,134
 812 -107 812 -107 790 -81 c 0,135,136
 767 -54 767 -54 731 -35 c 0,137,138
 695 -16 695 -16 650 -4 c 0,139,140
 605 8 605 8 560 16 c 0,141,142
 515 24 515 24 475 27 c 0,143,144
 435 31 435 31 409 34 c 0,145,146
 399 19 399 19 387 2 c 0,147,148
 376 -14 376 -14 366 -34 c 0,149,150
 356 -53 356 -53 350 -77 c 0,151,152
 344 -101 344 -101 344 -130 c 0,153,154
 343 -180 343 -180 364 -224 c 0,155,156
 384 -268 384 -268 417 -300 c 0,157,158
 450 -332 450 -332 491 -350 c 0,159,160
 532 -368 532 -368 574 -369 c 0,161,162
 616 -369 616 -369 659 -353 c 0,163,164
 701 -337 701 -337 735 -308 c 0,165,166
 769 -279 769 -279 791 -237 c 0,167,168
 812 -195 812 -195 812 -144 c 0,133,134
EndSplineSet
EndChar

StartChar: h
Encoding: 75 104 75
Width: 1312
VWidth: 1024
Flags: W
LayerCount: 2
Fore
SplineSet
730 0 m 0,0,-1
 730 98 l 0,1,-1
 797 104 l 0,2,3
 816 106 816 106 829 120 c 0,4,5
 842 134 842 134 843 154 c 0,6,-1
 843 648 l 0,7,8
 843 674 843 674 837 710 c 0,9,10
 831 746 831 746 813 778 c 0,11,12
 795 810 795 810 760 833 c 0,13,14
 725 856 725 856 667 856 c 0,15,16
 635 856 635 856 601 851 c 0,17,18
 567 846 567 846 537 842 c 0,19,20
 503 836 503 836 470 828 c 0,21,-1
 470 154 l 0,22,23
 470 135 470 135 483 120 c 0,24,25
 496 106 496 106 516 104 c 0,26,-1
 589 98 l 0,27,-1
 589 0 l 0,28,-1
 56 0 l 0,29,-1
 56 98 l 0,30,-1
 142 104 l 0,31,32
 161 106 161 106 175 120 c 0,33,34
 188 134 188 134 188 154 c 0,35,-1
 188 1361 l 0,36,-1
 40 1361 l 0,37,-1
 40 1447 l 0,38,-1
 360 1552 l 0,39,-1
 470 1552 l 0,40,-1
 470 919 l 0,41,42
 528 955 528 955 592 983 c 0,43,44
 619 995 619 995 649 1007 c 0,45,46
 679 1019 679 1019 710 1028 c 0,47,48
 741 1037 741 1037 774 1043 c 0,49,50
 806 1049 806 1049 837 1049 c 0,51,52
 898 1049 898 1049 944 1033 c 0,53,54
 990 1017 990 1017 1021 991 c 0,55,56
 1053 965 1053 965 1074 930 c 0,57,58
 1094 896 1094 896 1105 859 c 0,59,60
 1116 822 1116 822 1120 786 c 0,61,62
 1124 750 1124 750 1124 719 c 0,63,-1
 1124 154 l 0,64,65
 1124 135 1124 135 1138 120 c 0,66,67
 1151 106 1151 106 1170 104 c 0,68,-1
 1258 98 l 0,69,-1
 1258 0 l 0,70,-1
 730 0 l 0,0,-1
EndSplineSet
EndChar

StartChar: i
Encoding: 76 105 76
Width: 698
VWidth: 1024
Flags: W
LayerCount: 2
Fore
SplineSet
518 1391 m 0,0,1
 518 1357 518 1357 505 1327 c 0,2,3
 492 1297 492 1297 470 1275 c 0,4,5
 447 1252 447 1252 418 1240 c 0,6,7
 388 1227 388 1227 354 1227 c 0,8,9
 320 1227 320 1227 291 1240 c 0,10,11
 261 1253 261 1253 240 1275 c 0,12,13
 218 1298 218 1298 205 1327 c 0,14,15
 192 1357 192 1357 193 1391 c 0,16,17
 193 1425 193 1425 205 1454 c 0,18,19
 218 1484 218 1484 240 1505 c 0,20,21
 262 1527 262 1527 291 1540 c 0,22,23
 321 1553 321 1553 354 1552 c 0,24,25
 388 1552 388 1552 418 1540 c 0,26,27
 448 1527 448 1527 470 1505 c 0,28,29
 493 1483 493 1483 505 1454 c 0,30,31
 518 1425 518 1425 518 1391 c 0,0,1
68 0 m 0,32,-1
 68 98 l 0,33,-1
 164 104 l 0,34,35
 182 106 182 106 196 120 c 0,36,37
 210 134 210 134 210 154 c 0,38,-1
 210 858 l 0,39,-1
 76 858 l 0,40,-1
 76 944 l 0,41,-1
 382 1049 l 0,42,-1
 488 1049 l 0,43,-1
 488 154 l 0,44,45
 488 135 488 135 503 120 c 0,46,47
 518 106 518 106 537 104 c 0,48,-1
 638 98 l 0,49,-1
 638 0 l 0,50,-1
 68 0 l 0,32,-1
EndSplineSet
EndChar

StartChar: j
Encoding: 77 106 77
Width: 679
VWidth: 1024
Flags: W
LayerCount: 2
Fore
SplineSet
510 1391 m 0,0,1
 510 1357 510 1357 497 1327 c 0,2,3
 484 1297 484 1297 463 1275 c 0,4,5
 441 1252 441 1252 412 1240 c 0,6,7
 382 1227 382 1227 348 1227 c 0,8,9
 314 1227 314 1227 285 1240 c 0,10,11
 255 1253 255 1253 232 1275 c 0,12,13
 209 1298 209 1298 197 1327 c 0,14,15
 184 1357 184 1357 184 1391 c 0,16,17
 184 1425 184 1425 197 1454 c 0,18,19
 210 1484 210 1484 232 1505 c 0,20,21
 255 1527 255 1527 285 1540 c 0,22,23
 315 1553 315 1553 348 1552 c 0,24,25
 382 1552 382 1552 412 1540 c 0,26,27
 442 1527 442 1527 463 1505 c 0,28,29
 485 1483 485 1483 497 1454 c 0,30,31
 510 1425 510 1425 510 1391 c 0,0,1
488 98 m 0,32,33
 488 -17 488 -17 461 -124 c 0,34,35
 433 -232 433 -232 374 -314 c 0,36,37
 317 -392 317 -392 229 -438 c 0,38,39
 142 -484 142 -484 20 -484 c 0,40,41
 -22 -484 -22 -484 -59 -474 c 0,42,43
 -97 -464 -97 -464 -126 -443 c 0,44,45
 -155 -423 -155 -423 -172 -393 c 0,46,47
 -189 -363 -189 -363 -188 -325 c 0,48,49
 -188 -297 -188 -297 -178 -272 c 0,50,51
 -167 -247 -167 -247 -148 -229 c 0,52,53
 -130 -210 -130 -210 -105 -198 c 0,54,55
 -80 -186 -80 -186 -54 -184 c 0,56,-1
 151 -392 l 0,57,58
 163 -373 163 -373 172 -346 c 0,59,60
 181 -319 181 -319 187 -288 c 0,61,62
 193 -257 193 -257 198 -225 c 0,63,64
 202 -193 202 -193 205 -162 c 0,65,66
 210 -90 210 -90 210 -10 c 0,67,-1
 210 858 l 0,68,-1
 60 858 l 0,69,-1
 60 944 l 0,70,-1
 382 1049 l 0,71,-1
 488 1049 l 0,72,-1
 488 98 l 0,32,33
EndSplineSet
EndChar

StartChar: k
Encoding: 78 107 78
Width: 1241
VWidth: 1024
Flags: W
LayerCount: 2
Fore
SplineSet
799 0 m 0,0,-1
 799 86 l 0,1,-1
 568 474 l 0,2,-1
 470 474 l 0,3,-1
 470 154 l 0,4,5
 470 135 470 135 483 120 c 0,6,7
 496 106 496 106 516 104 c 0,8,-1
 600 98 l 0,9,-1
 600 0 l 0,10,-1
 54 0 l 0,11,-1
 54 98 l 0,12,-1
 142 104 l 0,13,14
 161 106 161 106 175 120 c 0,15,16
 188 134 188 134 188 154 c 0,17,-1
 188 1361 l 0,18,-1
 42 1361 l 0,19,-1
 42 1447 l 0,20,-1
 362 1552 l 0,21,-1
 470 1552 l 0,22,-1
 470 545 l 0,23,-1
 516 545 l 0,24,-1
 797 881 l 0,25,26
 807 892 807 892 802 903 c 0,27,28
 797 914 797 914 782 916 c 0,29,-1
 702 925 l 0,30,-1
 702 1023 l 0,31,-1
 1139 1023 l 0,32,-1
 1139 925 l 0,33,-1
 1000 908 l 0,34,-1
 776 652 l 0,35,-1
 1099 109 l 0,36,-1
 1223 98 l 0,37,-1
 1223 0 l 0,38,-1
 799 0 l 0,0,-1
EndSplineSet
EndChar

StartChar: l
Encoding: 79 108 79
Width: 698
VWidth: 1024
Flags: W
LayerCount: 2
Fore
SplineSet
60 0 m 0,0,-1
 60 98 l 0,1,-1
 164 104 l 0,2,3
 184 106 184 106 197 120 c 0,4,5
 210 133 210 133 210 154 c 0,6,-1
 210 1361 l 0,7,-1
 60 1361 l 0,8,-1
 60 1447 l 0,9,-1
 382 1552 l 0,10,-1
 488 1552 l 0,11,-1
 488 154 l 0,12,13
 488 134 488 134 501 120 c 0,14,15
 514 107 514 107 535 104 c 0,16,-1
 640 98 l 0,17,-1
 640 0 l 0,18,-1
 60 0 l 0,0,-1
EndSplineSet
EndChar

StartChar: m
Encoding: 80 109 80
Width: 1898
VWidth: 1024
Flags: W
LayerCount: 2
Fore
SplineSet
1327 0 m 0,0,-1
 1327 98 l 0,1,-1
 1393 104 l 0,2,3
 1411 106 1411 106 1426 120 c 0,4,5
 1441 134 1441 134 1441 154 c 0,6,-1
 1441 658 l 0,7,8
 1441 696 1441 696 1432 732 c 0,9,10
 1423 768 1423 768 1401 796 c 0,11,12
 1380 824 1380 824 1346 840 c 0,13,14
 1311 856 1311 856 1258 856 c 0,15,16
 1224 856 1224 856 1194 850 c 0,17,18
 1164 844 1164 844 1141 839 c 0,19,20
 1114 832 1114 832 1091 822 c 0,21,-1
 1091 154 l 0,22,23
 1091 135 1091 135 1104 120 c 0,24,25
 1117 106 1117 106 1137 104 c 0,26,-1
 1202 98 l 0,27,-1
 1202 0 l 0,28,-1
 698 0 l 0,29,-1
 698 98 l 0,30,-1
 763 104 l 0,31,32
 782 106 782 106 796 120 c 0,33,34
 810 134 810 134 810 154 c 0,35,-1
 810 658 l 0,36,37
 810 696 810 696 800 732 c 0,38,39
 790 768 790 768 768 796 c 0,40,41
 746 824 746 824 712 840 c 0,42,43
 678 856 678 856 629 856 c 0,44,45
 586 856 586 856 553 850 c 0,46,47
 521 844 521 844 501 839 c 0,48,49
 476 832 476 832 460 822 c 0,50,-1
 460 154 l 0,51,52
 460 135 460 135 474 120 c 0,53,54
 488 106 488 106 508 104 c 0,55,-1
 572 98 l 0,56,-1
 572 0 l 0,57,-1
 56 0 l 0,58,-1
 56 98 l 0,59,-1
 134 104 l 0,60,61
 153 106 153 106 167 120 c 0,62,63
 180 134 180 134 180 154 c 0,64,-1
 180 856 l 0,65,-1
 46 856 l 0,66,-1
 46 942 l 0,67,-1
 354 1049 l 0,68,-1
 460 1049 l 0,69,-1
 460 921 l 0,70,71
 513 957 513 957 570 984 c 0,72,73
 619 1008 619 1008 680 1028 c 0,74,75
 741 1048 741 1048 803 1049 c 0,76,77
 862 1049 862 1049 904 1033 c 0,78,79
 946 1017 946 1017 975 995 c 0,80,81
 1004 973 1004 973 1023 948 c 0,82,83
 1042 923 1042 923 1057 906 c 0,84,85
 1118 945 1118 945 1182 977 c 0,86,87
 1210 990 1210 990 1240 1003 c 0,88,89
 1271 1016 1271 1016 1303 1026 c 0,90,91
 1335 1036 1335 1036 1368 1042 c 0,92,93
 1400 1048 1400 1048 1431 1049 c 0,94,95
 1494 1049 1494 1049 1540 1032 c 0,96,97
 1586 1015 1586 1015 1618 987 c 0,98,99
 1650 959 1650 959 1670 925 c 0,100,101
 1689 891 1689 891 1701 855 c 0,102,103
 1712 819 1712 819 1716 786 c 0,104,105
 1720 753 1720 753 1719 728 c 0,106,-1
 1719 154 l 0,107,108
 1719 135 1719 135 1733 120 c 0,109,110
 1747 106 1747 106 1765 104 c 0,111,-1
 1841 98 l 0,112,-1
 1841 0 l 0,113,-1
 1327 0 l 0,0,-1
EndSplineSet
EndChar

StartChar: n
Encoding: 81 110 81
Width: 1310
VWidth: 1024
Flags: W
LayerCount: 2
Fore
SplineSet
719 0 m 0,0,-1
 719 98 l 0,1,-1
 797 104 l 0,2,3
 816 106 816 106 829 120 c 0,4,5
 842 134 842 134 843 154 c 0,6,-1
 843 646 l 0,7,8
 843 686 843 686 834 724 c 0,9,10
 825 762 825 762 804 791 c 0,11,12
 784 820 784 820 751 838 c 0,13,14
 718 856 718 856 671 856 c 0,15,16
 628 856 628 856 591 851 c 0,17,18
 554 846 554 846 527 842 c 0,19,20
 495 836 495 836 470 828 c 0,21,-1
 470 154 l 0,22,23
 470 135 470 135 484 120 c 0,24,25
 498 106 498 106 518 104 c 0,26,-1
 581 98 l 0,27,-1
 581 0 l 0,28,-1
 68 0 l 0,29,-1
 68 98 l 0,30,-1
 142 104 l 0,31,32
 161 106 161 106 175 120 c 0,33,34
 188 134 188 134 188 154 c 0,35,-1
 188 856 l 0,36,-1
 44 856 l 0,37,-1
 44 942 l 0,38,-1
 360 1049 l 0,39,-1
 470 1049 l 0,40,-1
 470 921 l 0,41,42
 524 957 524 957 586 984 c 0,43,44
 638 1008 638 1008 703 1028 c 0,45,46
 769 1048 769 1048 837 1049 c 0,47,48
 927 1049 927 1049 983 1017 c 0,49,50
 1039 986 1039 986 1070 935 c 0,51,52
 1101 884 1101 884 1112 818 c 0,53,54
 1123 752 1123 752 1122 684 c 0,55,-1
 1122 154 l 0,56,57
 1122 135 1122 135 1137 120 c 0,58,59
 1151 106 1151 106 1170 104 c 0,60,-1
 1235 98 l 0,61,-1
 1235 0 l 0,62,-1
 719 0 l 0,0,-1
EndSplineSet
EndChar

StartChar: o
Encoding: 82 111 82
Width: 1224
VWidth: 1024
Flags: W
LayerCount: 2
Fore
SplineSet
1160 506 m 0,0,1
 1160 388 1160 388 1123 290 c 0,2,3
 1086 192 1086 192 1014 122 c 0,4,5
 942 52 942 52 839 13 c 0,6,7
 736 -26 736 -26 606 -26 c 0,8,9
 486 -26 486 -26 388 11 c 0,10,11
 289 48 289 48 218 117 c 0,12,13
 147 186 147 186 107 284 c 0,14,15
 68 383 68 383 68 508 c 0,16,17
 68 637 68 637 109 737 c 0,18,19
 150 837 150 837 223 907 c 0,20,21
 296 976 296 976 397 1012 c 0,22,23
 498 1048 498 1048 621 1049 c 0,24,25
 751 1049 751 1049 851 1009 c 0,26,27
 951 969 951 969 1020 897 c 0,28,29
 1089 825 1089 825 1124 725 c 0,30,31
 1160 626 1160 626 1160 506 c 0,0,1
847 508 m 0,32,33
 847 552 847 552 843 601 c 0,34,35
 839 650 839 650 829 696 c 0,36,37
 819 743 819 743 802 785 c 0,38,39
 785 827 785 827 758 859 c 0,40,41
 732 891 732 891 696 910 c 0,42,43
 660 929 660 929 612 929 c 0,44,45
 541 929 541 929 497 890 c 0,46,47
 452 851 452 851 426 790 c 0,48,49
 401 729 401 729 392 656 c 0,50,51
 382 583 382 583 382 516 c 0,52,53
 382 471 382 471 386 422 c 0,54,55
 390 373 390 373 399 326 c 0,56,57
 409 279 409 279 425 237 c 0,58,59
 441 195 441 195 467 162 c 0,60,61
 493 130 493 130 529 111 c 0,62,63
 565 92 565 92 614 92 c 0,64,65
 686 92 686 92 731 131 c 0,66,67
 776 169 776 169 802 229 c 0,68,69
 828 289 828 289 837 364 c 0,70,71
 847 437 847 437 847 508 c 0,32,33
EndSplineSet
EndChar

StartChar: p
Encoding: 83 112 83
Width: 1265
VWidth: 1024
Flags: W
LayerCount: 2
Fore
SplineSet
1199 541 m 0,0,1
 1199 414 1199 414 1159 309 c 0,2,3
 1119 205 1119 205 1046 131 c 0,4,5
 972 57 972 57 867 15 c 0,6,7
 763 -26 763 -26 633 -26 c 0,8,9
 601 -26 601 -26 572 -23 c 0,10,11
 543 -20 543 -20 520 -15 c 0,12,13
 493 -11 493 -11 470 -4 c 0,14,-1
 470 -306 l 0,15,16
 470 -326 470 -326 483 -340 c 0,17,18
 496 -354 496 -354 516 -354 c 0,19,-1
 627 -360 l 0,20,-1
 627 -460 l 0,21,-1
 50 -460 l 0,22,-1
 50 -360 l 0,23,-1
 142 -354 l 0,24,25
 161 -354 161 -354 175 -340 c 0,26,27
 188 -326 188 -326 188 -306 c 0,28,-1
 188 856 l 0,29,-1
 50 856 l 0,30,-1
 50 942 l 0,31,-1
 360 1049 l 0,32,-1
 470 1049 l 0,33,-1
 470 916 l 0,34,35
 519 953 519 953 575 982 c 0,36,37
 623 1007 623 1007 683 1028 c 0,38,39
 742 1049 742 1049 807 1049 c 0,40,41
 870 1049 870 1049 925 1028 c 0,42,43
 979 1008 979 1008 1022 972 c 0,44,45
 1066 937 1066 937 1099 888 c 0,46,47
 1132 839 1132 839 1155 783 c 0,48,49
 1177 727 1177 727 1188 665 c 0,50,51
 1199 603 1199 603 1199 541 c 0,0,1
889 510 m 0,52,53
 889 579 889 579 873 642 c 0,54,55
 857 705 857 705 825 753 c 0,56,57
 793 801 793 801 743 829 c 0,58,59
 693 858 693 858 625 858 c 0,60,61
 597 858 597 858 570 853 c 0,62,63
 543 848 543 848 520 842 c 0,64,65
 493 835 493 835 470 826 c 0,66,-1
 470 114 l 0,67,68
 490 106 490 106 511 100 c 0,69,70
 528 95 528 95 548 92 c 0,71,72
 567 88 567 88 585 88 c 0,73,74
 661 88 661 88 717 121 c 0,75,76
 774 154 774 154 813 210 c 0,77,78
 851 267 851 267 870 345 c 0,79,80
 889 422 889 422 889 510 c 0,52,53
EndSplineSet
EndChar

StartChar: q
Encoding: 84 113 84
Width: 1263
VWidth: 1024
Flags: W
LayerCount: 2
Fore
SplineSet
633 -460 m 0,0,-1
 633 -360 l 0,1,-1
 749 -354 l 0,2,3
 769 -354 769 -354 782 -340 c 0,4,5
 795 -326 795 -326 795 -306 c 0,6,-1
 795 82 l 0,7,8
 751 51 751 51 700 28 c 0,9,10
 656 8 656 8 600 -9 c 0,11,12
 543 -25 543 -25 478 -26 c 0,13,14
 384 -26 384 -26 308 15 c 0,15,16
 232 56 232 56 178 126 c 0,17,18
 125 196 125 196 96 287 c 0,19,20
 67 379 67 379 68 480 c 0,21,22
 68 628 68 628 118 736 c 0,23,24
 168 844 168 844 258 913 c 0,25,26
 348 982 348 982 472 1015 c 0,27,28
 596 1048 596 1048 744 1049 c 0,29,30
 797 1049 797 1049 856 1044 c 0,31,32
 914 1040 914 1040 964 1035 c 0,33,34
 1021 1030 1021 1030 1076 1023 c 0,35,-1
 1076 -306 l 0,36,37
 1076 -326 1076 -326 1090 -340 c 0,38,39
 1103 -354 1103 -354 1122 -354 c 0,40,-1
 1208 -360 l 0,41,-1
 1208 -460 l 0,42,-1
 633 -460 l 0,0,-1
795 916 m 0,43,44
 785 918 785 918 771 921 c 0,45,46
 760 923 760 923 744 924 c 0,47,48
 728 925 728 925 711 925 c 0,49,50
 618 925 618 925 553 894 c 0,51,52
 488 864 488 864 449 811 c 0,53,54
 409 758 409 758 391 685 c 0,55,56
 374 612 374 612 374 528 c 0,57,58
 374 442 374 442 393 374 c 0,59,60
 412 305 412 305 450 257 c 0,61,62
 487 209 487 209 540 183 c 0,63,64
 593 157 593 157 660 158 c 0,65,66
 684 158 684 158 708 159 c 0,67,68
 732 160 732 160 751 162 c 0,69,70
 774 164 774 164 795 166 c 0,71,-1
 795 916 l 0,43,44
EndSplineSet
EndChar

StartChar: r
Encoding: 85 114 85
Width: 905
VWidth: 1024
Flags: W
LayerCount: 2
Fore
SplineSet
742 692 m 0,0,1
 735 702 735 702 724 717 c 0,2,3
 713 731 713 731 698 744 c 0,4,5
 682 757 682 757 659 767 c 0,6,7
 636 776 636 776 606 776 c 0,8,9
 576 776 576 776 551 770 c 0,10,11
 525 764 525 764 508 757 c 0,12,13
 486 749 486 749 470 738 c 0,14,-1
 470 151 l 0,15,16
 470 133 470 133 483 117 c 0,17,18
 496 102 496 102 516 102 c 0,19,-1
 650 96 l 0,20,-1
 650 -2 l 0,21,-1
 50 -2 l 0,22,-1
 50 96 l 0,23,-1
 142 102 l 0,24,25
 161 104 161 104 175 118 c 0,26,27
 188 132 188 132 188 151 c 0,28,-1
 188 856 l 0,29,-1
 36 856 l 0,30,-1
 36 942 l 0,31,-1
 360 1049 l 0,32,-1
 470 1049 l 0,33,-1
 470 826 l 0,34,35
 489 851 489 851 523 889 c 0,36,37
 556 927 556 927 595 962 c 0,38,39
 634 997 634 997 675 1023 c 0,40,41
 716 1049 716 1049 753 1049 c 0,42,43
 771 1049 771 1049 791 1046 c 0,44,45
 810 1043 810 1043 828 1037 c 0,46,47
 846 1031 846 1031 861 1025 c 0,48,49
 876 1018 876 1018 885 1011 c 0,50,-1
 885 692 l 0,51,-1
 742 692 l 0,0,1
EndSplineSet
EndChar

StartChar: s
Encoding: 86 115 86
Width: 931
VWidth: 1024
Flags: W
LayerCount: 2
Fore
SplineSet
835 702 m 0,0,-1
 705 702 l 0,1,-1
 682 870 l 0,2,3
 662 894 662 894 618 908 c 0,4,5
 575 922 575 922 518 923 c 0,6,7
 444 923 444 923 402 892 c 0,8,9
 360 862 360 862 360 807 c 0,10,11
 360 776 360 776 378 750 c 0,12,13
 395 723 395 723 425 699 c 0,14,15
 455 675 455 675 493 655 c 0,16,17
 531 634 531 634 572 612 c 0,18,19
 624 585 624 585 678 558 c 0,20,21
 731 530 731 530 773 497 c 0,22,23
 815 463 815 463 842 421 c 0,24,25
 869 380 869 380 868 327 c 0,26,27
 868 228 868 228 830 160 c 0,28,29
 792 93 792 93 732 52 c 0,30,31
 672 11 672 11 595 -8 c 0,32,33
 518 -26 518 -26 440 -26 c 0,34,35
 362 -26 362 -26 295 -17 c 0,36,37
 228 -8 228 -8 177 3 c 0,38,39
 118 15 118 15 68 32 c 0,40,-1
 68 350 l 0,41,-1
 200 350 l 0,42,43
 202 328 202 328 206 296 c 0,44,45
 210 263 210 263 214 232 c 0,46,47
 218 196 218 196 224 158 c 0,48,49
 226 153 226 153 248 143 c 0,50,51
 270 133 270 133 299 123 c 0,52,53
 329 113 329 113 361 105 c 0,54,55
 394 98 394 98 420 98 c 0,56,57
 473 98 473 98 508 113 c 0,58,59
 543 127 543 127 563 147 c 0,60,61
 583 167 583 167 592 191 c 0,62,63
 600 214 600 214 600 232 c 0,64,65
 600 275 600 275 573 307 c 0,66,67
 546 338 546 338 503 364 c 0,68,69
 460 390 460 390 406 412 c 0,70,71
 352 435 352 435 300 462 c 0,72,73
 256 484 256 484 216 509 c 0,74,75
 176 535 176 535 146 566 c 0,76,77
 116 598 116 598 98 638 c 0,78,79
 80 678 80 678 80 730 c 0,80,81
 80 803 80 803 111 862 c 0,82,83
 142 921 142 921 199 962 c 0,84,85
 255 1003 255 1003 332 1026 c 0,86,87
 409 1049 409 1049 501 1049 c 0,88,89
 579 1049 579 1049 641 1040 c 0,90,91
 703 1031 703 1031 745 1020 c 0,92,93
 795 1008 795 1008 835 992 c 0,94,-1
 835 702 l 0,0,-1
EndSplineSet
EndChar

StartChar: t
Encoding: 87 116 87
Width: 786
VWidth: 1024
Flags: W
LayerCount: 2
Fore
SplineSet
778 46 m 0,0,1
 729 26 729 26 674 10 c 0,2,3
 627 -4 627 -4 567 -15 c 0,4,5
 507 -26 507 -26 442 -26 c 0,6,7
 372 -26 372 -26 324 -10 c 0,8,9
 275 5 275 5 245 37 c 0,10,11
 215 69 215 69 202 118 c 0,12,13
 189 166 189 166 188 232 c 0,14,-1
 188 889 l 0,15,-1
 50 889 l 0,16,-1
 50 973 l 0,17,-1
 212 1069 l 0,18,-1
 325 1292 l 0,19,-1
 470 1292 l 0,20,-1
 470 1023 l 0,21,-1
 761 1023 l 0,22,-1
 761 889 l 0,23,-1
 470 889 l 0,24,-1
 470 318 l 0,25,26
 470 218 470 218 514 177 c 0,27,28
 558 136 558 136 642 136 c 0,29,30
 667 136 667 136 691 138 c 0,31,32
 716 140 716 140 735 143 c 0,33,34
 758 146 758 146 778 151 c 0,35,-1
 778 46 l 0,0,1
EndSplineSet
EndChar

StartChar: u
Encoding: 88 117 88
Width: 1300
VWidth: 1024
Flags: W
LayerCount: 2
Fore
SplineSet
830 0 m 0,0,-1
 830 116 l 0,1,2
 778 76 778 76 722 45 c 0,3,4
 674 18 674 18 615 -4 c 0,5,6
 557 -26 557 -26 499 -26 c 0,7,8
 410 -26 410 -26 350 -2 c 0,9,10
 290 22 290 22 254 66 c 0,11,12
 218 110 218 110 203 173 c 0,13,14
 188 236 188 236 188 316 c 0,15,-1
 188 858 l 0,16,-1
 52 858 l 0,17,-1
 52 944 l 0,18,-1
 360 1049 l 0,19,-1
 470 1049 l 0,20,-1
 470 398 l 0,21,22
 470 359 470 359 475 318 c 0,23,24
 480 277 480 277 500 244 c 0,25,26
 519 210 519 210 558 188 c 0,27,28
 596 166 596 166 663 166 c 0,29,30
 696 166 696 166 726 171 c 0,31,32
 756 176 756 176 779 183 c 0,33,34
 806 191 806 191 830 202 c 0,35,-1
 830 858 l 0,36,-1
 698 858 l 0,37,-1
 698 944 l 0,38,-1
 1005 1049 l 0,39,-1
 1111 1049 l 0,40,-1
 1111 154 l 0,41,42
 1111 135 1111 135 1126 120 c 0,43,44
 1141 106 1141 106 1160 104 c 0,45,-1
 1252 98 l 0,46,-1
 1252 0 l 0,47,-1
 830 0 l 0,0,-1
EndSplineSet
EndChar

StartChar: v
Encoding: 89 118 89
Width: 1185
VWidth: 1024
Flags: W
LayerCount: 2
Fore
SplineSet
1049 910 m 0,0,-1
 688 0 l 0,1,-1
 480 0 l 0,2,-1
 144 912 l 0,3,-1
 20 925 l 0,4,-1
 20 1023 l 0,5,-1
 572 1023 l 0,6,-1
 572 925 l 0,7,-1
 476 919 l 0,8,9
 457 917 457 917 449 903 c 0,10,11
 441 890 441 890 446 872 c 0,12,-1
 652 292 l 0,13,-1
 881 872 l 0,14,15
 887 887 887 887 877 902 c 0,16,17
 867 916 867 916 849 919 c 0,18,-1
 761 925 l 0,19,-1
 761 1023 l 0,20,-1
 1168 1023 l 0,21,-1
 1168 925 l 0,22,-1
 1049 910 l 0,0,-1
EndSplineSet
EndChar

StartChar: w
Encoding: 90 119 90
Width: 1763
VWidth: 1024
Flags: W
LayerCount: 2
Fore
SplineSet
1627 910 m 0,0,-1
 1347 0 l 0,1,-1
 1113 0 l 0,2,-1
 885 744 l 0,3,-1
 644 0 l 0,4,-1
 416 0 l 0,5,-1
 144 912 l 0,6,-1
 20 925 l 0,7,-1
 20 1023 l 0,8,-1
 558 1023 l 0,9,-1
 558 925 l 0,10,-1
 468 919 l 0,11,12
 451 917 451 917 441 903 c 0,13,14
 431 890 431 890 436 872 c 0,15,-1
 600 296 l 0,16,-1
 835 1023 l 0,17,-1
 1065 1023 l 0,18,-1
 1290 292 l 0,19,-1
 1464 872 l 0,20,21
 1469 887 1469 887 1461 902 c 0,22,23
 1452 916 1452 916 1435 919 c 0,24,-1
 1342 925 l 0,25,-1
 1342 1023 l 0,26,-1
 1745 1023 l 0,27,-1
 1745 925 l 0,28,-1
 1627 910 l 0,0,-1
EndSplineSet
EndChar

StartChar: x
Encoding: 91 120 91
Width: 1144
VWidth: 1024
Flags: W
LayerCount: 2
Fore
SplineSet
594 0 m 0,0,-1
 594 98 l 0,1,-1
 675 106 l 0,2,3
 691 108 691 108 696 119 c 0,4,5
 701 130 701 130 692 142 c 0,6,-1
 526 369 l 0,7,-1
 342 142 l 0,8,9
 333 131 333 131 337 120 c 0,10,11
 341 109 341 109 356 106 c 0,12,-1
 430 98 l 0,13,-1
 430 0 l 0,14,-1
 20 0 l 0,15,-1
 20 98 l 0,16,-1
 146 116 l 0,17,-1
 446 478 l 0,18,-1
 136 910 l 0,19,-1
 26 925 l 0,20,-1
 26 1023 l 0,21,-1
 541 1023 l 0,22,-1
 541 925 l 0,23,-1
 480 919 l 0,24,25
 463 917 463 917 459 904 c 0,26,27
 455 892 455 892 466 881 c 0,28,-1
 612 678 l 0,29,-1
 780 881 l 0,30,31
 788 892 788 892 785 904 c 0,32,33
 781 916 781 916 766 919 c 0,34,-1
 698 925 l 0,35,-1
 698 1023 l 0,36,-1
 1089 1023 l 0,37,-1
 1089 925 l 0,38,-1
 971 910 l 0,39,-1
 692 566 l 0,40,-1
 1015 116 l 0,41,-1
 1126 98 l 0,42,-1
 1126 0 l 0,43,-1
 594 0 l 0,0,-1
EndSplineSet
EndChar

StartChar: y
Encoding: 92 121 92
Width: 1185
VWidth: 1024
Flags: W
LayerCount: 2
Fore
SplineSet
1057 910 m 0,0,-1
 694 20 l 0,1,2
 675 -27 675 -27 651 -82 c 0,3,4
 627 -137 627 -137 599 -193 c 0,5,6
 570 -249 570 -249 535 -301 c 0,7,8
 500 -353 500 -353 457 -392 c 0,9,10
 413 -435 413 -435 361 -460 c 0,11,12
 309 -485 309 -485 248 -484 c 0,13,14
 217 -484 217 -484 184 -473 c 0,15,16
 151 -461 151 -461 123 -439 c 0,17,18
 96 -417 96 -417 79 -386 c 0,19,20
 62 -355 62 -355 62 -316 c 0,21,22
 62 -287 62 -287 73 -264 c 0,23,24
 84 -240 84 -240 101 -220 c 0,25,26
 118 -201 118 -201 140 -186 c 0,27,28
 162 -172 162 -172 184 -162 c 0,29,-1
 362 -298 l 0,30,31
 391 -271 391 -271 416 -234 c 0,32,33
 441 -197 441 -197 461 -158 c 0,34,35
 481 -119 481 -119 496 -82 c 0,36,37
 511 -45 511 -45 518 -18 c 0,38,-1
 144 912 l 0,39,-1
 20 925 l 0,40,-1
 20 1023 l 0,41,-1
 572 1023 l 0,42,-1
 572 925 l 0,43,-1
 476 919 l 0,44,45
 457 917 457 917 447 903 c 0,46,47
 438 890 438 890 444 872 c 0,48,-1
 660 334 l 0,49,-1
 883 872 l 0,50,51
 889 887 889 887 879 902 c 0,52,53
 869 916 869 916 851 919 c 0,54,-1
 759 925 l 0,55,-1
 759 1023 l 0,56,-1
 1168 1023 l 0,57,-1
 1168 925 l 0,58,-1
 1057 910 l 0,0,-1
EndSplineSet
EndChar

StartChar: z
Encoding: 93 122 93
Width: 1030
VWidth: 1024
Flags: W
LayerCount: 2
Fore
SplineSet
68 0 m 0,0,-1
 68 136 l 0,1,-1
 604 904 l 0,2,-1
 288 904 l 0,3,4
 272 904 272 904 260 889 c 0,5,6
 248 874 248 874 248 860 c 0,7,-1
 232 698 l 0,8,-1
 84 698 l 0,9,-1
 84 1023 l 0,10,-1
 933 1023 l 0,11,-1
 933 906 l 0,12,-1
 384 124 l 0,13,-1
 744 124 l 0,14,15
 751 124 751 124 759 129 c 0,16,17
 766 134 766 134 773 141 c 0,18,19
 780 148 780 148 784 157 c 0,20,21
 789 166 789 166 791 174 c 0,22,-1
 818 352 l 0,23,-1
 963 352 l 0,24,-1
 963 0 l 0,25,-1
 68 0 l 0,0,-1
EndSplineSet
EndChar

StartChar: braceleft
Encoding: 94 123 94
Width: 1038
VWidth: 1024
Flags: W
LayerCount: 2
Fore
SplineSet
885 -256 m 0,0,-1
 844 -256 l 0,1,2
 816 -256 816 -256 779 -254 c 0,3,4
 742 -252 742 -252 698 -248 c 0,5,6
 655 -243 655 -243 613 -234 c 0,7,8
 571 -224 571 -224 534 -209 c 0,9,10
 496 -194 496 -194 470 -170 c 0,11,12
 422 -128 422 -128 400 -71 c 0,13,14
 378 -14 378 -14 372 50 c 0,15,16
 365 113 365 113 367 178 c 0,17,18
 369 243 369 243 368 302 c 0,19,20
 367 361 367 361 357 411 c 0,21,22
 347 460 347 460 316 490 c 0,23,24
 285 521 285 521 246 534 c 0,25,26
 206 547 206 547 170 551 c 0,27,28
 129 555 129 555 86 550 c 0,29,-1
 86 675 l 0,30,31
 129 669 129 669 170 673 c 0,32,33
 206 676 206 676 246 689 c 0,34,35
 286 702 286 702 316 732 c 0,36,37
 347 763 347 763 357 813 c 0,38,39
 367 863 367 863 368 922 c 0,40,41
 369 981 369 981 367 1047 c 0,42,43
 365 1113 365 1113 372 1175 c 0,44,45
 379 1238 379 1238 400 1295 c 0,46,47
 422 1352 422 1352 470 1395 c 0,48,49
 496 1419 496 1419 534 1434 c 0,50,51
 572 1449 572 1449 613 1459 c 0,52,53
 655 1469 655 1469 698 1473 c 0,54,55
 741 1478 741 1478 779 1479 c 0,56,57
 816 1481 816 1481 844 1481 c 0,58,-1
 885 1481 l 0,59,-1
 885 1365 l 0,60,61
 847 1365 847 1365 810 1360 c 0,62,63
 778 1355 778 1355 744 1343 c 0,64,65
 710 1332 710 1332 686 1309 c 0,66,67
 654 1278 654 1278 643 1232 c 0,68,69
 632 1186 632 1186 630 1133 c 0,70,71
 628 1079 628 1079 629 1021 c 0,72,73
 630 963 630 963 624 906 c 0,74,75
 618 849 618 849 599 797 c 0,76,77
 580 745 580 745 537 705 c 0,78,79
 504 673 504 673 468 654 c 0,80,81
 432 636 432 636 401 627 c 0,82,83
 370 618 370 618 347 614 c 0,84,85
 330 612 330 612 321 612 c 0,86,87
 330 611 330 611 347 609 c 0,88,89
 371 606 371 606 401 596 c 0,90,91
 432 586 432 586 468 568 c 0,92,93
 504 550 504 550 537 518 c 0,94,95
 580 477 580 477 599 425 c 0,96,97
 618 373 618 373 624 317 c 0,98,99
 630 260 630 260 629 202 c 0,100,101
 628 144 628 144 630 91 c 0,102,103
 632 38 632 38 643 -8 c 0,104,105
 654 -54 654 -54 686 -84 c 0,106,107
 710 -108 710 -108 744 -119 c 0,108,109
 778 -130 778 -130 810 -135 c 0,110,111
 847 -140 847 -140 885 -140 c 0,112,-1
 885 -256 l 0,0,-1
EndSplineSet
EndChar

StartChar: bar
Encoding: 95 124 95
Width: 833
VWidth: 1024
Flags: W
LayerCount: 2
Fore
SplineSet
328 -541 m 0,0,-1
 328 1669 l 0,1,-1
 507 1669 l 0,2,-1
 507 -541 l 0,3,-1
 328 -541 l 0,0,-1
EndSplineSet
EndChar

StartChar: braceright
Encoding: 96 125 96
Width: 1038
VWidth: 1024
Flags: W
LayerCount: 2
Fore
SplineSet
952 550 m 0,0,1
 908 555 908 555 867 551 c 0,2,3
 831 547 831 547 792 534 c 0,4,5
 752 521 752 521 722 490 c 0,6,7
 691 458 691 458 681 410 c 0,8,9
 671 361 671 361 669 301 c 0,10,11
 667 242 667 242 669 177 c 0,12,13
 671 112 671 112 664 49 c 0,14,15
 657 -14 657 -14 636 -71 c 0,16,17
 615 -128 615 -128 568 -170 c 0,18,19
 541 -194 541 -194 504 -209 c 0,20,21
 467 -224 467 -224 425 -234 c 0,22,23
 383 -244 383 -244 340 -248 c 0,24,25
 297 -253 297 -253 260 -254 c 0,26,27
 223 -256 223 -256 194 -256 c 0,28,-1
 154 -256 l 0,29,-1
 154 -140 l 0,30,31
 192 -140 192 -140 228 -135 c 0,32,33
 260 -130 260 -130 294 -119 c 0,34,35
 328 -108 328 -108 352 -84 c 0,36,37
 384 -53 384 -53 395 -8 c 0,38,39
 406 37 406 37 409 90 c 0,40,41
 411 143 411 143 410 201 c 0,42,43
 409 259 409 259 414 316 c 0,44,45
 420 373 420 373 439 425 c 0,46,47
 458 477 458 477 501 518 c 0,48,49
 534 549 534 549 568 567 c 0,50,51
 603 585 603 585 634 595 c 0,52,53
 665 605 665 605 689 608 c 0,54,55
 713 611 713 611 722 612 c 0,56,57
 715 612 715 612 692 614 c 0,58,59
 669 616 669 616 637 626 c 0,60,61
 606 635 606 635 570 653 c 0,62,63
 534 671 534 671 501 705 c 0,64,65
 458 746 458 746 439 798 c 0,66,67
 420 850 420 850 414 907 c 0,68,69
 408 964 408 964 410 1022 c 0,70,71
 411 1080 411 1080 409 1134 c 0,72,73
 407 1188 407 1188 395 1233 c 0,74,75
 384 1278 384 1278 352 1309 c 0,76,77
 327 1333 327 1333 294 1343 c 0,78,79
 260 1354 260 1354 228 1360 c 0,80,81
 191 1365 191 1365 154 1365 c 0,82,-1
 154 1481 l 0,83,-1
 194 1481 l 0,84,85
 223 1481 223 1481 260 1479 c 0,86,87
 297 1477 297 1477 340 1473 c 0,88,89
 383 1468 383 1468 425 1459 c 0,90,91
 467 1449 467 1449 505 1434 c 0,92,93
 543 1419 543 1419 568 1395 c 0,94,95
 615 1352 615 1352 636 1295 c 0,96,97
 657 1238 657 1238 664 1175 c 0,98,99
 671 1112 671 1112 669 1047 c 0,100,101
 667 981 667 981 669 922 c 0,102,103
 671 863 671 863 681 813 c 0,104,105
 691 763 691 763 722 732 c 0,106,107
 752 701 752 701 792 689 c 0,108,109
 832 676 832 676 867 673 c 0,110,111
 908 669 908 669 952 675 c 0,112,-1
 952 550 l 0,0,1
EndSplineSet
EndChar

StartChar: asciitilde
Encoding: 97 126 97
Width: 1746
VWidth: 1024
Flags: W
LayerCount: 2
Fore
SplineSet
783 314 m 0,0,1
 751 291 751 291 724 276 c 0,2,3
 697 261 697 261 673 252 c 0,4,5
 649 243 649 243 626 239 c 0,6,7
 603 235 603 235 581 235 c 0,8,9
 543 235 543 235 507 246 c 0,10,11
 471 257 471 257 435 270 c 0,12,13
 399 283 399 283 363 294 c 0,14,15
 327 305 327 305 288 305 c 0,16,17
 252 305 252 305 204 283 c 0,18,19
 156 261 156 261 90 211 c 0,20,-1
 90 310 l 0,21,22
 149 355 149 355 201 373 c 0,23,24
 252 391 252 391 294 391 c 0,25,26
 324 391 324 391 352 385 c 0,27,28
 380 379 380 379 408 369 c 0,29,30
 435 360 435 360 462 349 c 0,31,32
 489 339 489 339 517 331 c 0,33,34
 533 326 533 326 550 324 c 0,35,36
 566 321 566 321 582 321 c 0,37,38
 599 321 599 321 618 325 c 0,39,40
 637 329 637 329 662 340 c 0,41,42
 686 350 686 350 716 368 c 0,43,44
 746 386 746 386 783 414 c 0,45,-1
 783 314 l 0,0,1
EndSplineSet
EndChar

StartChar: inherent
Encoding: 103 -1 98
Width: 352
Flags: W
LayerCount: 2
Fore
SplineSet
375 1505 m 2,0,1
 375 1382 375 1382 262 1294 c 1,2,3
 209 1249 209 1249 143.5 1227.5 c 128,-1,4
 78 1206 78 1206 -16 1206 c 1,5,-1
 -16 1423 l 1,6,7
 43 1423 43 1423 66 1452 c 1,8,9
 99 1477 99 1477 98 1505 c 2,10,-1
 98 1651 l 1,11,-1
 375 1651 l 1,12,-1
 375 1505 l 2,0,1
EndSplineSet
EndChar

StartChar: makewide
Encoding: 104 -1 99
Width: 710
Flags: W
LayerCount: 2
Fore
SplineSet
940 283 m 2,0,1
 940 174 940 174 864 87 c 128,-1,2
 788 0 788 0 684 0 c 2,3,-1
 379 2 l 2,4,5
 326 2 326 2 278.5 15.5 c 128,-1,6
 231 29 231 29 176 57.5 c 128,-1,7
 121 86 121 86 84 121 c 128,-1,8
 47 156 47 156 -6 217 c 1,9,-1
 -6 532 l 1,10,-1
 33 541 l 1,11,12
 103 398 103 398 212.5 312.5 c 128,-1,13
 322 227 322 227 422 227 c 2,14,-1
 612 227 l 2,15,16
 635 227 635 227 643 250 c 1,17,18
 661 283 661 283 662 313 c 2,19,-1
 662 1006 l 2,20,21
 662 1065 662 1065 616 1116 c 1,22,23
 573 1155 573 1155 506 1155 c 2,24,-1
 283 1155 l 1,25,-1
 283 1386 l 1,26,-1
 788 1386 l 1,27,-1
 846 1192 l 1,28,29
 940 1110 940 1110 940 1016 c 2,30,-1
 940 283 l 2,0,1
EndSplineSet
EndChar

StartChar: shortrr
Encoding: 105 -1 100
Width: 1681
Flags: W
LayerCount: 2
Fore
SplineSet
1724 1165 m 1,0,-1
 721 1165 l 2,1,2
 682 1165 682 1165 660.5 1150 c 128,-1,3
 639 1135 639 1135 639 1110 c 2,4,-1
 637 950 l 1,5,6
 641 911 641 911 675 885.5 c 128,-1,7
 709 860 709 860 752 860 c 2,8,-1
 1137 860 l 1,9,-1
 1137 629 l 1,10,-1
 752 629 l 2,11,12
 701 629 701 629 670 606.5 c 128,-1,13
 639 584 639 584 639 545 c 2,14,-1
 637 344 l 1,15,16
 641 299 641 299 663.5 271.5 c 128,-1,17
 686 244 686 244 705 242 c 1,18,-1
 901 242 l 1,19,-1
 901 10 l 1,20,-1
 612 10 l 2,21,22
 512 10 512 10 435 80 c 128,-1,23
 358 150 358 150 358 246 c 2,24,-1
 358 561 l 2,25,26
 358 637 358 637 416 698 c 0,27,28
 430 712 430 712 455.5 726.5 c 128,-1,29
 481 741 481 741 500 752 c 1,30,31
 477 760 477 760 467 768 c 0,32,33
 430 793 430 793 416 801 c 1,34,35
 359 862 359 862 358 934 c 2,36,-1
 358 1178 l 2,37,38
 358 1282 358 1282 440 1335 c 1,39,40
 510 1394 510 1394 629 1395 c 2,41,-1
 1718 1395 l 1,42,-1
 1724 1165 l 1,0,-1
EndSplineSet
EndChar

StartChar: anusvara
Encoding: 107 3202 101
Width: 1609
Flags: W
LayerCount: 2
Fore
SplineSet
1634 319 m 2,0,1
 1634 192 1634 192 1550 97 c 128,-1,2
 1466 2 1466 2 1348 2 c 2,3,-1
 705 2 l 2,4,5
 566 2 566 2 465 106 c 1,6,7
 363 200 363 200 362 346 c 2,8,-1
 362 1096 l 2,9,10
 362 1225 362 1225 465 1311 c 1,11,12
 510 1354 510 1354 569.5 1375.5 c 128,-1,13
 629 1397 629 1397 702 1397 c 2,14,-1
 1288 1397 l 2,15,16
 1431 1397 1431 1397 1532.5 1302.5 c 128,-1,17
 1634 1208 1634 1208 1634 1071 c 2,18,-1
 1634 319 l 2,0,1
1358 365 m 1,19,-1
 1358 1055 l 2,20,21
 1358 1100 1358 1100 1327 1137 c 1,22,23
 1296 1166 1296 1166 1251 1165 c 2,24,-1
 782 1165 l 2,25,26
 723 1165 723 1165 678 1137 c 1,27,28
 641 1108 641 1108 641 1071 c 2,29,-1
 641 365 l 2,30,31
 641 318 641 318 688 277 c 128,-1,32
 735 236 735 236 795 236 c 2,33,-1
 1253 236 l 2,34,35
 1296 236 1296 236 1325 272 c 1,36,37
 1362 312 1362 312 1358 365 c 1,19,-1
EndSplineSet
EndChar

StartChar: u0C83
Encoding: 108 3203 102
Width: 1040
Flags: W
LayerCount: 2
Fore
SplineSet
1120 944 m 2,0,1
 1120 856 1120 856 1053 797 c 1,2,3
 994 736 994 736 897 735 c 2,4,-1
 571 735 l 2,5,6
 462 735 462 735 395 803 c 1,7,8
 321 869 321 869 322 963 c 2,9,-1
 322 1178 l 2,10,11
 322 1274 322 1274 397.5 1335.5 c 128,-1,12
 473 1397 473 1397 573 1397 c 2,13,-1
 868 1397 l 2,14,15
 942 1397 942 1397 993 1366 c 1,16,17
 1022 1356 1022 1356 1043.5 1334.5 c 128,-1,18
 1065 1313 1065 1313 1094.5 1272 c 128,-1,19
 1124 1231 1124 1231 1124 1165 c 2,20,-1
 1120 944 l 2,0,1
1124 240 m 1,21,22
 1124 144 1124 144 1062.5 74 c 128,-1,23
 1001 4 1001 4 915 4 c 2,24,-1
 571 6 l 2,25,26
 475 6 475 6 398.5 71.5 c 128,-1,27
 322 137 322 137 322 231 c 2,28,-1
 322 446 l 2,29,30
 322 542 322 542 398.5 605 c 128,-1,31
 475 668 475 668 571 668 c 2,32,-1
 866 668 l 2,33,34
 977 668 977 668 1044 596 c 1,35,36
 1120 522 1120 522 1120 420 c 1,37,-1
 1124 240 l 1,21,22
844 1001 m 1,38,-1
 844 1124 l 2,39,40
 844 1138 844 1138 839 1146.5 c 128,-1,41
 834 1155 834 1155 828.5 1160 c 128,-1,42
 823 1165 823 1165 799 1165 c 2,43,-1
 666 1165 l 2,44,45
 635 1165 635 1165 616.5 1153 c 128,-1,46
 598 1141 598 1141 598 1124 c 2,47,-1
 596 1020 l 1,48,49
 604 995 604 995 614 985 c 1,50,51
 637 971 637 971 653 971 c 2,52,-1
 799 971 l 1,53,54
 815 975 815 975 829.5 980 c 128,-1,55
 844 985 844 985 845 990 c 128,-1,56
 846 995 846 995 844 1001 c 1,38,-1
846 268 m 1,57,-1
 846 393 l 2,58,59
 846 416 846 416 838 424 c 2,60,-1
 827 432 l 1,61,-1
 653 432 l 2,62,63
 628 432 628 432 619 427 c 128,-1,64
 610 422 610 422 605 415 c 128,-1,65
 600 408 600 408 600 406 c 2,66,-1
 598 289 l 1,67,-1
 614 250 l 2,68,69
 618 240 618 240 623.5 239 c 128,-1,70
 629 238 629 238 633 238 c 2,71,-1
 809 238 l 2,72,73
 823 238 823 238 838 246 c 1,74,-1
 846 268 l 1,57,-1
EndSplineSet
EndChar

StartChar: avowel
Encoding: 109 3205 103
Width: 2091
Flags: W
LayerCount: 2
Fore
SplineSet
2181 295 m 2,0,1
 2181 172 2181 172 2085 90 c 1,2,3
 2003 2 2003 2 1866 2 c 2,4,-1
 731 4 l 2,5,6
 586 4 586 4 484.5 87 c 128,-1,7
 383 170 383 170 383 295 c 2,8,-1
 383 1108 l 2,9,10
 383 1237 383 1237 473 1317 c 128,-1,11
 563 1397 563 1397 692 1397 c 2,12,-1
 1096 1397 l 1,13,-1
 1096 922 l 1,14,-1
 821 922 l 1,15,-1
 821 1165 l 1,16,-1
 750 1165 l 2,17,18
 711 1165 711 1165 688 1133 c 0,19,20
 657 1088 657 1088 657 1028 c 2,21,-1
 657 367 l 2,22,23
 657 324 657 324 700 276 c 1,24,25
 757 237 757 237 811 238 c 2,26,-1
 1761 238 l 2,27,28
 1800 238 1800 238 1833 260 c 0,29,30
 1847 270 1847 270 1884 324 c 1,31,32
 1902 361 1902 361 1903 406 c 2,33,-1
 1903 1081 l 2,34,35
 1903 1112 1903 1112 1874 1145 c 1,36,37
 1851 1163 1851 1163 1806 1163 c 2,38,-1
 1741 1163 l 1,39,-1
 1741 1040 l 2,40,41
 1741 940 1741 940 1886 844 c 1,42,-1
 1886 625 l 1,43,-1
 961 625 l 1,44,-1
 961 856 l 1,45,-1
 1550 856 l 1,46,47
 1462 952 1462 952 1462 1024 c 2,48,-1
 1462 1395 l 1,49,-1
 1831 1395 l 2,50,51
 1925 1395 1925 1395 2006 1358 c 128,-1,52
 2087 1321 2087 1321 2130 1262 c 1,53,54
 2177 1203 2177 1203 2177 1122 c 2,55,-1
 2181 295 l 2,0,1
EndSplineSet
EndChar

StartChar: aavowel
Encoding: 110 3206 104
Width: 2238
Flags: W
LayerCount: 2
Fore
SplineSet
2333 993 m 1,0,1
 2333 870 2333 870 2251 791 c 1,2,3
 2165 701 2165 701 2048 700 c 2,4,-1
 2009 700 l 1,5,6
 2070 628 2070 628 2071 590 c 2,7,-1
 2071 229 l 2,8,9
 2071 133 2071 133 1985 66 c 1,10,11
 1940 33 1940 33 1889.5 17.5 c 128,-1,12
 1839 2 1839 2 1765 2 c 2,13,-1
 680 10 l 2,14,15
 557 10 557 10 471 96 c 1,16,17
 385 172 385 172 385 301 c 2,18,-1
 385 1114 l 2,19,20
 385 1237 385 1237 489 1323 c 1,21,22
 604 1403 604 1403 756 1403 c 2,23,-1
 1069 1403 l 1,24,-1
 1069 928 l 1,25,-1
 795 928 l 1,26,-1
 795 1171 l 1,27,-1
 766 1171 l 2,28,29
 719 1171 719 1171 690 1147 c 1,30,31
 661 1116 661 1116 662 1079 c 2,32,-1
 662 373 l 2,33,34
 662 322 662 322 692 279 c 1,35,36
 737 240 737 240 782 240 c 2,37,-1
 1665 240 l 2,38,39
 1712 240 1712 240 1745 279 c 1,40,41
 1763 297 1763 297 1767 307 c 1,42,43
 1783 332 1783 332 1784 369 c 2,44,-1
 1784 596 l 2,45,46
 1784 639 1784 639 1722 707 c 1,47,-1
 1110 707 l 1,48,-1
 1110 938 l 1,49,-1
 1616 938 l 1,50,51
 1579 995 1579 995 1579 1020 c 2,52,-1
 1579 1182 l 2,53,54
 1579 1276 1579 1276 1662 1333.5 c 128,-1,55
 1745 1391 1745 1391 1862 1391 c 2,56,-1
 2050 1391 l 2,57,58
 2109 1391 2109 1391 2154.5 1375.5 c 128,-1,59
 2200 1360 2200 1360 2238 1323 c 0,60,61
 2320 1249 2320 1249 2320 1147 c 1,62,-1
 2333 993 l 1,0,1
2040 1010 m 1,63,-1
 2040 1104 l 2,64,65
 2040 1163 2040 1163 2007 1163 c 2,66,-1
 1919 1163 l 2,67,68
 1886 1163 1886 1163 1870.5 1144.5 c 128,-1,69
 1855 1126 1855 1126 1855 1104 c 2,70,-1
 1855 1038 l 2,71,72
 1855 985 1855 985 1901 938 c 1,73,-1
 1989 938 l 2,74,75
 2012 938 2012 938 2027 960.5 c 128,-1,76
 2042 983 2042 983 2040 1010 c 1,63,-1
EndSplineSet
EndChar

StartChar: ivowel
Encoding: 111 3207 105
Width: 1687
Flags: W
LayerCount: 2
Fore
SplineSet
1767 0 m 1,0,-1
 1599 0 l 2,1,2
 1488 0 1488 0 1399 68 c 1,3,4
 1317 142 1317 142 1317 236 c 2,5,-1
 1317 350 l 1,6,-1
 1102 350 l 2,7,8
 993 350 993 350 926 410 c 1,9,10
 889 435 889 435 869.5 471.5 c 128,-1,11
 850 508 850 508 850 547 c 2,12,-1
 850 692 l 2,13,14
 850 725 850 725 866.5 753.5 c 128,-1,15
 883 782 883 782 915 807 c 1,16,17
 989 846 989 846 1083 846 c 2,18,-1
 1335 846 l 2,19,20
 1401 846 1401 846 1454 809 c 1,21,-1
 1491 780 l 1,22,-1
 1491 1085 l 2,23,24
 1491 1114 1491 1114 1464.5 1133.5 c 128,-1,25
 1438 1153 1438 1153 1378 1153 c 2,26,-1
 1219 1153 l 2,27,28
 1162 1153 1162 1153 1124 1128 c 1,29,30
 1095 1103 1095 1103 1096 1071 c 2,31,-1
 1096 913 l 1,32,-1
 821 913 l 1,33,-1
 821 1061 l 2,34,35
 821 1098 821 1098 787.5 1126.5 c 128,-1,36
 754 1155 754 1155 694 1155 c 2,37,-1
 500 1155 l 2,38,39
 453 1155 453 1155 424 1132.5 c 128,-1,40
 395 1110 395 1110 395 1071 c 2,41,-1
 393 940 l 1,42,43
 397 893 397 893 420 879 c 1,44,45
 443 850 443 850 471 850 c 2,46,-1
 543 850 l 1,47,-1
 543 618 l 1,48,-1
 414 621 l 2,49,50
 289 621 289 621 207 702 c 1,51,52
 119 782 119 782 119 897 c 2,53,-1
 119 1100 l 2,54,55
 119 1182 119 1182 164 1247 c 1,56,57
 207 1319 207 1319 283 1350 c 1,58,59
 355 1387 355 1387 442 1386 c 2,60,-1
 723 1386 l 2,61,62
 823 1386 823 1386 883 1348 c 1,63,64
 926 1330 926 1330 958 1282 c 1,65,66
 972 1307 972 1307 988 1322 c 128,-1,67
 1004 1337 1004 1337 1022 1346 c 1,68,69
 1079 1389 1079 1389 1159 1389 c 2,70,-1
 1425 1389 l 2,71,72
 1501 1389 1501 1389 1558.5 1370.5 c 128,-1,73
 1616 1352 1616 1352 1663 1307 c 1,74,75
 1765 1225 1765 1225 1765 1092 c 2,76,-1
 1765 752 l 2,77,78
 1765 570 1765 570 1589 410 c 1,79,-1
 1589 281 l 2,80,81
 1589 258 1589 258 1599 248 c 1,82,83
 1624 232 1624 232 1634 231 c 2,84,-1
 1763 231 l 1,85,-1
 1767 0 l 1,0,-1
1309 584 m 1,86,87
 1309 623 1309 623 1272 623 c 2,88,-1
 1139 623 l 2,89,90
 1125 623 1125 623 1122 621 c 2,91,-1
 1120 606 l 1,92,-1
 1122 596 l 1,93,-1
 1139 586 l 1,94,-1
 1309 584 l 1,86,87
EndSplineSet
EndChar

StartChar: iivowel
Encoding: 112 3208 106
Width: 2623
Flags: W
LayerCount: 2
Fore
SplineSet
2712 827 m 2,0,1
 2712 741 2712 741 2644 655 c 1,2,3
 2585 587 2585 587 2490 549 c 1,4,5
 2652 373 2652 373 2652 315 c 2,6,-1
 2652 178 l 2,7,8
 2652 119 2652 119 2607 59 c 1,9,10
 2560 6 2560 6 2494 6 c 2,11,-1
 1993 6 l 1,12,-1
 1993 238 l 1,13,-1
 2322 238 l 2,14,15
 2338 238 2338 238 2357 258.5 c 128,-1,16
 2376 279 2376 279 2376 287 c 2,17,-1
 2376 297 l 2,18,19
 2376 340 2376 340 2322 379 c 1,20,-1
 2185 518 l 1,21,-1
 1745 518 l 1,22,-1
 1745 285 l 2,23,24
 1745 174 1745 174 1657 88 c 128,-1,25
 1569 2 1569 2 1444 2 c 2,26,-1
 709 4 l 2,27,28
 605 4 605 4 524.5 77 c 128,-1,29
 444 150 444 150 444 258 c 2,30,-1
 444 518 l 1,31,-1
 213 518 l 1,32,-1
 213 750 l 1,33,-1
 444 750 l 1,34,-1
 444 907 l 2,35,36
 444 1040 444 1040 578 1167 c 1,37,-1
 416 1167 l 1,38,-1
 416 1399 l 1,39,-1
 1493 1399 l 2,40,41
 1526 1399 1526 1399 1536 1417 c 1,42,43
 1554 1435 1554 1435 1554 1458 c 2,44,-1
 1554 1587 l 1,45,-1
 1835 1587 l 1,46,-1
 1835 1458 l 2,47,48
 1835 1347 1835 1347 1753 1266 c 1,49,50
 1696 1194 1696 1194 1599 1169 c 1,51,52
 1658 1126 1658 1126 1696 1081 c 0,53,54
 1747 1015 1747 1015 1747 963 c 2,55,-1
 1747 748 l 1,56,-1
 1980 748 l 1,57,58
 1935 809 1935 809 1935 891 c 2,59,-1
 1935 1038 l 2,60,61
 1935 1140 1935 1140 2009 1213 c 128,-1,62
 2083 1286 2083 1286 2191 1286 c 2,63,-1
 2437 1286 l 2,64,65
 2554 1286 2554 1286 2628 1210 c 1,66,67
 2714 1134 2714 1134 2714 1024 c 2,68,-1
 2712 827 l 2,0,1
2433 852 m 2,69,-1
 2433 999 l 2,70,71
 2433 1013 2433 1013 2425 1025.5 c 128,-1,72
 2417 1038 2417 1038 2415 1040 c 0,73,74
 2405 1054 2405 1054 2380 1055 c 2,75,-1
 2265 1055 l 2,76,77
 2236 1055 2236 1055 2232 1044 c 0,78,79
 2218 1021 2218 1021 2218 1012 c 2,80,-1
 2216 856 l 1,81,82
 2218 827 2218 827 2236 803 c 1,83,-1
 2333 745 l 1,84,85
 2366 753 2366 753 2394 778 c 1,86,87
 2433 817 2433 817 2433 852 c 2,69,-1
1464 752 m 1,88,-1
 1464 977 l 2,89,90
 1464 1100 1464 1100 1331 1174 c 1,91,-1
 885 1174 l 1,92,93
 717 1059 717 1059 717 920 c 2,94,-1
 717 752 l 1,95,-1
 1464 752 l 1,88,-1
1466 369 m 1,96,-1
 1466 520 l 1,97,-1
 717 520 l 1,98,-1
 717 340 l 2,99,100
 717 303 717 303 747.5 269.5 c 128,-1,101
 778 236 778 236 809 236 c 2,102,-1
 1335 236 l 2,103,104
 1358 236 1358 236 1377.5 245 c 128,-1,105
 1397 254 1397 254 1419 270 c 1,106,107
 1462 318 1462 318 1466 369 c 1,96,-1
EndSplineSet
EndChar

StartChar: uvowel
Encoding: 113 3209 107
Width: 3143
Flags: W
LayerCount: 2
Fore
SplineSet
3236 311 m 2,0,1
 3236 229 3236 229 3197 156 c 1,2,3
 3174 119 3174 119 3147.5 92.5 c 128,-1,4
 3121 66 3121 66 3084 47 c 0,5,6
 3004 4 3004 4 2929 4 c 2,7,-1
 2527 4 l 2,8,9
 2482 4 2482 4 2438 15.5 c 128,-1,10
 2394 27 2394 27 2356 45 c 128,-1,11
 2318 63 2318 63 2284.5 93 c 128,-1,12
 2251 123 2251 123 2226 156 c 1,13,14
 2179 236 2179 236 2179 311 c 2,15,-1
 2179 1096 l 2,16,17
 2179 1112 2179 1112 2161 1145 c 1,18,19
 2132 1161 2132 1161 2095 1161 c 2,20,-1
 1712 1161 l 2,21,22
 1673 1161 1673 1161 1656.5 1142.5 c 128,-1,23
 1640 1124 1640 1124 1640 1094 c 2,24,-1
 1640 293 l 2,25,26
 1640 250 1640 250 1631 220 c 128,-1,27
 1622 190 1622 190 1593 145 c 1,28,29
 1550 84 1550 84 1466 43 c 128,-1,30
 1382 2 1382 2 1296 2 c 2,31,-1
 766 4 l 2,32,33
 614 4 614 4 506 98 c 0,34,35
 453 143 453 143 427 204.5 c 128,-1,36
 401 266 401 266 401 334 c 2,37,-1
 401 1079 l 2,38,39
 401 1167 401 1167 434 1241 c 1,40,41
 479 1321 479 1321 558 1358 c 128,-1,42
 637 1395 637 1395 709 1395 c 2,43,-1
 1171 1395 l 1,44,-1
 1171 985 l 2,45,46
 1171 876 1171 876 1090.5 789 c 128,-1,47
 1010 702 1010 702 899 702 c 2,48,-1
 719 702 l 1,49,-1
 719 934 l 1,50,-1
 838 934 l 2,51,52
 856 934 856 934 874.5 950.5 c 128,-1,53
 893 967 893 967 893 983 c 2,54,-1
 893 1159 l 1,55,-1
 764 1159 l 2,56,57
 719 1159 719 1159 700 1137 c 0,58,59
 671 1104 671 1104 672 1075 c 2,60,-1
 672 330 l 2,61,62
 672 299 672 299 704.5 264 c 128,-1,63
 737 229 737 229 780 229 c 2,64,-1
 1278 229 l 2,65,66
 1317 229 1317 229 1333 254 c 1,67,68
 1362 287 1362 287 1362 315 c 2,69,-1
 1362 1092 l 2,70,71
 1362 1229 1362 1229 1444 1303 c 1,72,73
 1530 1391 1530 1391 1655 1391 c 2,74,-1
 2124 1391 l 2,75,76
 2218 1391 2218 1391 2294 1354 c 128,-1,77
 2370 1317 2370 1317 2413 1251 c 0,78,79
 2438 1212 2438 1212 2447 1181.5 c 128,-1,80
 2456 1151 2456 1151 2456 1106 c 2,81,-1
 2456 332 l 2,82,83
 2456 289 2456 289 2480 260 c 1,84,85
 2517 229 2517 229 2548 229 c 2,86,-1
 2882 229 l 2,87,88
 2921 229 2921 229 2937 254 c 1,89,90
 2966 283 2966 283 2966 315 c 2,91,-1
 2966 1075 l 2,92,93
 2966 1098 2966 1098 2942 1116.5 c 128,-1,94
 2918 1135 2918 1135 2882 1135 c 2,95,-1
 2820 1135 l 1,96,-1
 2820 1393 l 1,97,-1
 2968 1393 l 2,98,99
 3087 1393 3087 1393 3160 1317 c 1,100,101
 3240 1241 3240 1241 3240 1133 c 2,102,-1
 3236 311 l 2,0,1
EndSplineSet
EndChar

StartChar: uuvowel
Encoding: 114 3210 108
Width: 3768
Flags: W
LayerCount: 2
Fore
SplineSet
3854 295 m 2,0,1
 3854 170 3854 170 3768 94 c 1,2,3
 3682 4 3682 4 3570 4 c 2,4,-1
 3451 4 l 2,5,6
 3347 4 3347 4 3252 84 c 0,7,8
 3213 117 3213 117 3193.5 167 c 128,-1,9
 3174 217 3174 217 3174 268 c 2,10,-1
 3174 477 l 1,11,-1
 3451 477 l 1,12,-1
 3451 268 l 2,13,14
 3451 252 3451 252 3455 247 c 128,-1,15
 3459 242 3459 242 3467 241 c 128,-1,16
 3475 240 3475 240 3484 238 c 1,17,-1
 3555 238 l 1,18,19
 3569 246 3569 246 3572 250 c 2,20,-1
 3580 287 l 1,21,-1
 3580 1057 l 2,22,23
 3580 1102 3580 1102 3551.5 1134.5 c 128,-1,24
 3523 1167 3523 1167 3484 1167 c 2,25,-1
 3193 1167 l 2,26,27
 3136 1167 3136 1167 3103 1134.5 c 128,-1,28
 3070 1102 3070 1102 3070 1057 c 2,29,-1
 3070 338 l 2,30,31
 3070 285 3070 285 3054 238 c 0,32,33
 3052 230 3052 230 3027 176 c 1,34,35
 2980 94 2980 94 2918 57 c 0,36,37
 2838 10 2838 10 2759 10 c 2,38,-1
 2333 10 l 2,39,40
 2208 10 2208 10 2122 101.5 c 128,-1,41
 2036 193 2036 193 2036 330 c 2,42,-1
 2036 1090 l 2,43,44
 2036 1129 2036 1129 2009 1151.5 c 128,-1,45
 1982 1174 1982 1174 1939 1174 c 2,46,-1
 1645 1174 l 2,47,48
 1602 1174 1602 1174 1576 1145 c 128,-1,49
 1550 1116 1550 1116 1550 1079 c 2,50,-1
 1550 354 l 2,51,52
 1550 213 1550 213 1442 117 c 1,53,54
 1338 13 1338 13 1190 12 c 2,55,-1
 799 14 l 2,56,57
 639 14 639 14 514 109 c 1,58,59
 457 156 457 156 430 214 c 128,-1,60
 403 272 403 272 403 344 c 2,61,-1
 403 1106 l 2,62,63
 403 1239 403 1239 504 1319 c 1,64,65
 555 1364 555 1364 616.5 1383.5 c 128,-1,66
 678 1403 678 1403 752 1403 c 2,67,-1
 1176 1403 l 1,68,-1
 1176 1032 l 2,69,70
 1176 915 1176 915 1081 829 c 1,71,72
 995 741 995 741 870 741 c 2,73,-1
 752 741 l 1,74,-1
 752 973 l 1,75,-1
 842 973 l 2,76,77
 856 973 856 973 865 978 c 128,-1,78
 874 983 874 983 877 985 c 0,79,80
 895 1001 895 1001 895 1018 c 2,81,-1
 895 1169 l 1,82,-1
 780 1169 l 2,83,84
 733 1169 733 1169 703.5 1143.5 c 128,-1,85
 674 1118 674 1118 674 1085 c 2,86,-1
 674 352 l 2,87,88
 674 307 674 307 714 273.5 c 128,-1,89
 754 240 754 240 811 240 c 2,90,-1
 1180 240 l 2,91,92
 1211 240 1211 240 1247 270 c 1,93,94
 1276 301 1276 301 1276 352 c 2,95,-1
 1276 1085 l 2,96,97
 1276 1179 1276 1179 1327 1247 c 1,98,99
 1378 1327 1378 1327 1459 1364 c 128,-1,100
 1540 1401 1540 1401 1628 1401 c 2,101,-1
 1952 1401 l 2,102,103
 2046 1401 2046 1401 2132 1362 c 0,104,105
 2177 1344 2177 1344 2206.5 1317 c 128,-1,106
 2236 1290 2236 1290 2262 1250 c 128,-1,107
 2288 1210 2288 1210 2302 1172.5 c 128,-1,108
 2316 1135 2316 1135 2316 1090 c 2,109,-1
 2316 330 l 2,110,111
 2316 293 2316 293 2339.5 267.5 c 128,-1,112
 2363 242 2363 242 2406 242 c 2,113,-1
 2681 242 l 2,114,115
 2724 242 2724 242 2761 272 c 1,116,117
 2777 290 2777 290 2786.5 310 c 128,-1,118
 2796 330 2796 330 2796 352 c 2,119,-1
 2796 1059 l 2,120,121
 2796 1149 2796 1149 2839 1231 c 1,122,123
 2890 1313 2890 1313 2969.5 1356 c 128,-1,124
 3049 1399 3049 1399 3146 1399 c 2,125,-1
 3486 1399 l 2,126,127
 3586 1399 3586 1399 3672 1356 c 0,128,129
 3711 1338 3711 1338 3745 1307 c 128,-1,130
 3779 1276 3779 1276 3803 1233 c 0,131,132
 3856 1147 3856 1147 3856 1059 c 2,133,-1
 3854 295 l 2,0,1
EndSplineSet
EndChar

StartChar: rvocalicvowel.part
Encoding: 116 -1 110
Width: 2152
Flags: W
LayerCount: 2
Fore
SplineSet
2232 311 m 2,0,1
 2232 250 2232 250 2217 198.5 c 128,-1,2
 2202 147 2202 147 2169 100 c 1,3,4
 2089 4 2089 4 1995 4 c 2,5,-1
 1556 4 l 2,6,7
 1468 4 1468 4 1378 49 c 1,8,9
 1312 78 1312 78 1268 139 c 1,10,11
 1235 86 1235 86 1192 53 c 0,12,13
 1131 6 1131 6 1077 6 c 2,14,-1
 575 8 l 2,15,16
 464 8 464 8 399 70 c 1,17,18
 319 140 319 140 319 229 c 2,19,-1
 319 612 l 1,20,-1
 694 612 l 2,21,22
 762 612 762 612 805 600 c 128,-1,23
 848 588 848 588 887 555 c 1,24,25
 977 489 977 489 977 395 c 2,26,-1
 977 279 l 1,27,-1
 700 279 l 1,28,-1
 700 369 l 2,29,30
 700 385 700 385 668 385 c 2,31,-1
 600 385 l 1,32,-1
 598 299 l 1,33,34
 600 274 600 274 616 256 c 1,35,36
 641 238 641 238 666 238 c 2,37,-1
 983 238 l 2,38,39
 1012 238 1012 238 1034.5 246 c 128,-1,40
 1057 254 1057 254 1073 266 c 0,41,42
 1110 289 1110 289 1110 322 c 2,43,-1
 1110 1114 l 2,44,45
 1110 1139 1110 1139 1080.5 1154 c 128,-1,46
 1051 1169 1051 1169 1004 1169 c 2,47,-1
 692 1169 l 2,48,49
 649 1169 649 1169 618 1153 c 1,50,51
 600 1151 600 1151 600 1128 c 2,52,-1
 600 997 l 1,53,-1
 668 997 l 2,54,55
 678 997 678 997 689 1002.5 c 128,-1,56
 700 1008 700 1008 709 1012 c 1,57,58
 727 1030 727 1030 727 1053 c 2,59,-1
 727 1128 l 1,60,-1
 1004 1128 l 1,61,-1
 1004 1040 l 2,62,63
 1004 929 1004 929 928 844 c 1,64,65
 846 758 846 758 737 758 c 2,66,-1
 317 758 l 1,67,-1
 317 1161 l 2,68,69
 317 1257 317 1257 403 1333 c 1,70,71
 485 1394 485 1394 602 1395 c 2,72,-1
 1075 1395 l 2,73,74
 1204 1395 1204 1395 1294 1319 c 1,75,76
 1388 1233 1388 1233 1389 1122 c 2,77,-1
 1389 375 l 1,78,79
 1420 314 1420 314 1478 271.5 c 128,-1,80
 1536 229 1536 229 1583 229 c 2,81,-1
 1860 229 l 2,82,83
 1897 229 1897 229 1926.5 262 c 128,-1,84
 1956 295 1956 295 1956 346 c 2,85,-1
 1956 1028 l 2,86,87
 1956 1094 1956 1094 1916 1130.5 c 128,-1,88
 1876 1167 1876 1167 1819 1167 c 2,89,-1
 1487 1167 l 1,90,-1
 1487 1399 l 1,91,-1
 1847 1399 l 2,92,93
 1880 1399 1880 1399 1919 1432 c 1,94,95
 1952 1471 1952 1471 1952 1513 c 2,96,-1
 1952 1642 l 1,97,-1
 2228 1642 l 1,98,-1
 2228 1485 l 2,99,100
 2228 1405 2228 1405 2183 1348 c 1,101,102
 2152 1295 2152 1295 2107 1270 c 1,103,104
 2136 1254 2136 1254 2151.5 1238.5 c 128,-1,105
 2167 1223 2167 1223 2185 1192 c 1,106,107
 2228 1133 2228 1133 2228 1057 c 2,108,-1
 2232 311 l 2,0,1
EndSplineSet
EndChar

StartChar: lvocalicvowel.part
Encoding: 118 -1 112
Width: 1687
Flags: W
LayerCount: 2
Fore
SplineSet
2073 444 m 1,0,-1
 1804 119 l 1,1,2
 1753 37 1753 37 1671 20 c 0,3,4
 1663 18 1663 18 1638 18 c 0,5,6
 1579 18 1579 18 1502 42 c 128,-1,7
 1425 66 1425 66 1372 111 c 1,8,9
 1311 166 1311 166 1286 203 c 0,10,11
 1253 254 1253 254 1253 315 c 0,12,13
 1253 331 1253 331 1370 518 c 0,14,15
 1407 577 1407 577 1489 700 c 1,16,17
 1505 743 1505 743 1510.5 793.5 c 128,-1,18
 1516 844 1516 844 1516 903 c 0,19,20
 1516 964 1516 964 1510.5 1009.5 c 128,-1,21
 1505 1055 1505 1055 1501 1087 c 1,22,23
 1501 1116 1501 1116 1474.5 1135.5 c 128,-1,24
 1448 1155 1448 1155 1389 1155 c 2,25,-1
 1229 1155 l 2,26,27
 1172 1155 1172 1155 1135 1130 c 1,28,29
 1106 1105 1106 1105 1106 1073 c 2,30,-1
 1106 915 l 1,31,-1
 831 915 l 1,32,-1
 831 1063 l 2,33,34
 831 1100 831 1100 797.5 1128.5 c 128,-1,35
 764 1157 764 1157 705 1157 c 2,36,-1
 510 1157 l 2,37,38
 463 1157 463 1157 434.5 1134.5 c 128,-1,39
 406 1112 406 1112 406 1073 c 2,40,-1
 403 942 l 1,41,42
 407 895 407 895 430 881 c 1,43,44
 453 852 453 852 481 852 c 2,45,-1
 553 852 l 1,46,-1
 553 621 l 1,47,-1
 424 623 l 2,48,49
 299 623 299 623 217 705 c 1,50,51
 129 785 129 785 129 899 c 2,52,-1
 129 1102 l 2,53,54
 129 1184 129 1184 174 1249 c 1,55,56
 217 1321 217 1321 293 1352 c 1,57,58
 365 1389 365 1389 453 1389 c 2,59,-1
 733 1389 l 2,60,61
 833 1389 833 1389 893 1350 c 1,62,63
 936 1332 936 1332 969 1284 c 1,64,65
 983 1309 983 1309 998.5 1324 c 128,-1,66
 1014 1339 1014 1339 1032 1348 c 1,67,68
 1089 1391 1089 1391 1169 1391 c 2,69,-1
 1436 1391 l 2,70,71
 1512 1391 1512 1391 1569 1372.5 c 128,-1,72
 1626 1354 1626 1354 1673 1309 c 1,73,74
 1775 1227 1775 1227 1776 1094 c 2,75,-1
 1776 754 l 2,76,77
 1776 695 1776 695 1743 627 c 0,78,79
 1735 613 1735 613 1595 410 c 1,80,81
 1572 381 1572 381 1565 371 c 0,82,83
 1532 326 1532 326 1532 317 c 0,84,85
 1532 280 1532 280 1550.5 272 c 128,-1,86
 1569 264 1569 264 1585 264 c 0,87,88
 1622 264 1622 264 1640 289 c 2,89,-1
 1866 580 l 1,90,-1
 2073 444 l 1,0,-1
EndSplineSet
EndChar

StartChar: evowel
Encoding: 119 3214 113
Width: 2039
Flags: W
LayerCount: 2
Fore
SplineSet
2126 311 m 2,0,1
 2126 182 2126 182 2042 91 c 128,-1,2
 1958 0 1958 0 1841 0 c 2,3,-1
 1395 2 l 2,4,5
 1313 2 1313 2 1247 45 c 1,6,7
 1210 63 1210 63 1192 96 c 1,8,9
 1167 59 1167 59 1139 41 c 0,10,11
 1080 -2 1080 -2 1014 -2 c 2,12,-1
 674 0 l 2,13,14
 533 0 533 0 432.5 83 c 128,-1,15
 332 166 332 166 332 291 c 2,16,-1
 332 852 l 1,17,-1
 702 852 l 2,18,19
 770 852 770 852 827 807 c 0,20,21
 856 784 856 784 882.5 754.5 c 128,-1,22
 909 725 909 725 926 688 c 1,23,24
 971 602 971 602 985 498 c 1,25,-1
 731 430 l 1,26,27
 723 481 723 481 707.5 515 c 128,-1,28
 692 549 692 549 670 580 c 0,29,30
 660 594 660 594 644.5 603 c 128,-1,31
 629 612 629 612 610 616 c 1,32,-1
 608 346 l 1,33,34
 610 301 610 301 643 264 c 1,35,36
 682 231 682 231 729 231 c 2,37,-1
 952 231 l 2,38,39
 997 231 997 231 1022 262 c 0,40,41
 1059 305 1059 305 1059 344 c 2,42,-1
 1059 502 l 1,43,-1
 1339 502 l 1,44,-1
 1339 362 l 2,45,46
 1339 311 1339 311 1383 271 c 128,-1,47
 1427 231 1427 231 1479 231 c 2,48,-1
 1724 231 l 2,49,50
 1777 231 1777 231 1812 272 c 128,-1,51
 1847 313 1847 313 1847 360 c 2,52,-1
 1847 1010 l 2,53,54
 1847 1078 1847 1078 1802 1118.5 c 128,-1,55
 1757 1159 1757 1159 1683 1159 c 2,56,-1
 1468 1159 l 1,57,-1
 1468 1391 l 1,58,-1
 1712 1391 l 2,59,60
 1827 1391 1827 1391 1921 1345.5 c 128,-1,61
 2015 1300 2015 1300 2070.5 1214 c 128,-1,62
 2126 1128 2126 1128 2126 1038 c 2,63,-1
 2126 311 l 2,0,1
EndSplineSet
EndChar

StartChar: eevowel
Encoding: 120 3215 114
Width: 2033
Flags: W
LayerCount: 2
Fore
SplineSet
2122 340 m 2,0,1
 2122 254 2122 254 2064 166 c 1,2,3
 2019 90 2019 90 1925 43 c 1,4,5
 1880 25 1880 25 1828 12.5 c 128,-1,6
 1776 0 1776 0 1714 0 c 2,7,-1
 1399 8 l 2,8,9
 1325 8 1325 8 1260 51 c 1,10,11
 1217 84 1217 84 1194 131 c 1,12,13
 1108 4 1108 4 961 4 c 2,14,-1
 698 4 l 2,15,16
 544 4 544 4 436 97 c 128,-1,17
 328 190 328 190 328 324 c 2,18,-1
 328 858 l 1,19,-1
 700 858 l 2,20,21
 768 858 768 858 822.5 815 c 128,-1,22
 877 772 877 772 924 692 c 1,23,24
 961 624 961 624 985 502 c 1,25,-1
 723 436 l 1,26,27
 705 538 705 538 662 584 c 0,28,29
 633 615 633 615 602 623 c 1,30,-1
 600 352 l 1,31,32
 608 305 608 305 639 272 c 1,33,34
 682 235 682 235 727 236 c 2,35,-1
 946 236 l 2,36,37
 991 236 991 236 1024 273.5 c 128,-1,38
 1057 311 1057 311 1057 350 c 2,39,-1
 1057 508 l 1,40,-1
 1337 508 l 1,41,-1
 1337 369 l 2,42,43
 1337 324 1337 324 1370 276 c 1,44,45
 1415 237 1415 237 1466 238 c 2,46,-1
 1720 238 l 2,47,48
 1767 238 1767 238 1800 276 c 1,49,50
 1818 294 1818 294 1823 305 c 1,51,52
 1839 330 1839 330 1839 367 c 2,53,-1
 1839 1016 l 2,54,55
 1839 1082 1839 1082 1792 1124.5 c 128,-1,56
 1745 1167 1745 1167 1669 1167 c 2,57,-1
 1473 1167 l 1,58,-1
 1473 1124 l 2,59,60
 1473 1036 1473 1036 1386 983 c 1,61,62
 1347 954 1347 954 1303.5 940 c 128,-1,63
 1260 926 1260 926 1200 926 c 2,64,-1
 926 926 l 2,65,66
 801 926 801 926 707 1001 c 1,67,68
 613 1083 613 1083 612 1188 c 2,69,-1
 612 1397 l 1,70,-1
 889 1397 l 1,71,-1
 889 1217 l 2,72,73
 889 1199 889 1199 907 1174 c 1,74,75
 936 1158 936 1158 952 1157 c 2,76,-1
 1141 1157 l 2,77,78
 1155 1157 1155 1157 1178 1180 c 1,79,80
 1194 1203 1194 1203 1194 1235 c 2,81,-1
 1194 1397 l 1,82,-1
 1696 1397 l 2,83,84
 1815 1397 1815 1397 1910 1352 c 128,-1,85
 2005 1307 2005 1307 2056 1225 c 1,86,87
 2115 1143 2115 1143 2116 1047 c 2,88,-1
 2122 340 l 2,0,1
EndSplineSet
EndChar

StartChar: aivowel
Encoding: 121 3216 115
Width: 2158
Flags: W
LayerCount: 2
Fore
SplineSet
2238 315 m 2,0,1
 2238 184 2238 184 2136 94 c 1,2,3
 2034 -2 2034 -2 1874 -2 c 1,4,-1
 1563 6 l 1,5,6
 1469 6 1469 6 1397 49 c 128,-1,7
 1325 92 1325 92 1286 145 c 1,8,9
 1241 86 1241 86 1188 53 c 0,10,11
 1116 6 1116 6 1042 6 c 2,12,-1
 674 8 l 2,13,14
 533 8 533 8 432.5 91 c 128,-1,15
 332 174 332 174 332 299 c 2,16,-1
 332 596 l 2,17,18
 332 733 332 733 432 821 c 1,19,20
 477 866 477 866 541.5 888.5 c 128,-1,21
 606 911 606 911 674 911 c 2,22,-1
 1106 911 l 1,23,-1
 1106 608 l 2,24,25
 1106 549 1106 549 1080.5 496.5 c 128,-1,26
 1055 444 1055 444 1003.5 394 c 128,-1,27
 952 344 952 344 895 320.5 c 128,-1,28
 838 297 838 297 750 297 c 1,29,-1
 678 522 l 1,30,31
 723 522 723 522 744.5 529.5 c 128,-1,32
 766 537 766 537 791 555 c 0,33,34
 828 584 828 584 827 614 c 2,35,-1
 827 674 l 1,36,-1
 748 674 l 2,37,38
 680 674 680 674 644 644 c 128,-1,39
 608 614 608 614 608 578 c 2,40,-1
 606 373 l 2,41,42
 606 322 606 322 643 276.5 c 128,-1,43
 680 231 680 231 731 231 c 2,44,-1
 983 231 l 2,45,46
 1049 231 1049 231 1100 275 c 128,-1,47
 1151 319 1151 319 1151 373 c 2,48,-1
 1151 473 l 1,49,-1
 1432 473 l 1,50,-1
 1432 373 l 2,51,52
 1432 322 1432 322 1475 274 c 1,53,54
 1522 231 1522 231 1579 231 c 2,55,-1
 1862 231 l 2,56,57
 1899 231 1899 231 1934.5 274 c 128,-1,58
 1970 317 1970 317 1970 375 c 2,59,-1
 1970 1053 l 2,60,61
 1970 1082 1970 1082 1956 1110 c 0,62,63
 1954 1114 1954 1114 1934.5 1137.5 c 128,-1,64
 1915 1161 1915 1161 1864 1161 c 2,65,-1
 1612 1161 l 2,66,67
 1569 1161 1569 1161 1540 1137 c 1,68,69
 1517 1112 1517 1112 1518 1069 c 2,70,-1
 1518 975 l 1,71,-1
 1241 975 l 1,72,-1
 1241 1077 l 2,73,74
 1241 1108 1241 1108 1198 1139 c 1,75,76
 1155 1162 1155 1162 1083 1161 c 2,77,-1
 721 1161 l 2,78,79
 698 1161 698 1161 680 1156 c 128,-1,80
 662 1151 662 1151 643 1133 c 1,81,82
 604 1102 604 1102 573 1026 c 1,83,-1
 358 1157 l 1,84,85
 415 1276 415 1276 498.5 1335.5 c 128,-1,86
 582 1395 582 1395 678 1395 c 2,87,-1
 1137 1395 l 2,88,89
 1241 1395 1241 1395 1298 1352 c 1,90,91
 1349 1323 1349 1323 1380 1272 c 1,92,93
 1396 1297 1396 1297 1415 1315 c 128,-1,94
 1434 1333 1434 1333 1462 1350 c 1,95,96
 1523 1393 1523 1393 1606 1393 c 2,97,-1
 1896 1393 l 2,98,99
 1990 1393 1990 1393 2066 1356 c 1,100,101
 2148 1323 2148 1323 2193 1253.5 c 128,-1,102
 2238 1184 2238 1184 2238 1108 c 2,103,-1
 2238 315 l 2,0,1
EndSplineSet
EndChar

StartChar: ovowel
Encoding: 122 3218 116
Width: 1974
Flags: W
LayerCount: 2
Fore
SplineSet
2052 254 m 2,0,1
 2052 152 2052 152 1985.5 76 c 128,-1,2
 1919 0 1919 0 1823 0 c 2,3,-1
 1374 0 l 2,4,5
 1300 0 1300 0 1243 43 c 1,6,7
 1210 61 1210 61 1188 94 c 1,8,9
 1172 61 1172 61 1143 43 c 0,10,11
 1084 0 1084 0 1026 0 c 2,12,-1
 614 0 l 2,13,14
 499 0 499 0 405 68.5 c 128,-1,15
 311 137 311 137 311 238 c 2,16,-1
 311 549 l 1,17,-1
 578 711 l 1,18,19
 644 754 644 754 703 791.5 c 128,-1,20
 762 829 762 829 791 854 c 0,21,22
 838 891 838 891 838 928 c 2,23,-1
 838 1102 l 2,24,25
 838 1120 838 1120 821 1143 c 1,26,27
 805 1157 805 1157 774 1157 c 2,28,-1
 592 1157 l 1,29,-1
 592 1071 l 2,30,31
 592 1055 592 1055 610.5 1033.5 c 128,-1,32
 629 1012 629 1012 657 1012 c 2,33,-1
 709 1012 l 1,34,-1
 709 780 l 1,35,-1
 586 780 l 2,36,37
 471 780 471 780 395 868 c 1,38,39
 313 948 313 948 313 1071 c 2,40,-1
 313 1389 l 1,41,-1
 834 1389 l 2,42,43
 908 1389 908 1389 972 1363 c 128,-1,44
 1036 1337 1036 1337 1077 1285 c 128,-1,45
 1118 1233 1118 1233 1118 1171 c 2,46,-1
 1118 860 l 2,47,48
 1118 807 1118 807 1057 748 c 0,49,50
 1006 701 1006 701 795 571 c 2,51,-1
 594 446 l 1,52,-1
 594 322 l 2,53,54
 594 291 594 291 618 260 c 1,55,56
 649 235 649 235 686 236 c 2,57,-1
 952 236 l 2,58,59
 981 236 981 236 1014 264 c 1,60,61
 1047 303 1047 303 1047 336 c 2,62,-1
 1047 446 l 1,63,-1
 1323 446 l 1,64,-1
 1323 346 l 2,65,66
 1323 303 1323 303 1354 266 c 1,67,68
 1393 233 1393 233 1444 233 c 2,69,-1
 1677 233 l 2,70,71
 1706 233 1706 233 1739 262 c 1,72,73
 1772 295 1772 295 1772 334 c 2,74,-1
 1772 524 l 2,75,76
 1772 561 1772 561 1749 577.5 c 128,-1,77
 1726 594 1726 594 1694 594 c 2,78,-1
 1597 594 l 1,79,-1
 1597 823 l 1,80,-1
 1821 823 l 2,81,82
 1925 823 1925 823 1982 766 c 1,83,84
 2050 707 2050 707 2050 616 c 2,85,-1
 2052 254 l 2,0,1
EndSplineSet
EndChar

StartChar: oovowel
Encoding: 123 3219 117
Width: 1974
Flags: W
LayerCount: 2
Fore
SplineSet
2052 287 m 2,0,1
 2052 211 2052 211 2013 150 c 1,2,3
 1980 82 1980 82 1923 44 c 128,-1,4
 1866 6 1866 6 1798 6 c 2,5,-1
 1374 6 l 2,6,7
 1300 6 1300 6 1243 49 c 1,8,9
 1200 74 1200 74 1182 111 c 1,10,11
 1174 101 1174 101 1151 78 c 0,12,13
 1141 68 1141 68 1118 49 c 1,14,15
 1061 10 1061 10 995 10 c 2,16,-1
 614 10 l 2,17,18
 499 10 499 10 405 78.5 c 128,-1,19
 311 147 311 147 311 250 c 2,20,-1
 311 563 l 1,21,-1
 578 725 l 1,22,23
 646 770 646 770 708 811 c 128,-1,24
 770 852 770 852 788 868 c 0,25,26
 835 905 835 905 836 944 c 2,27,-1
 836 1092 l 2,28,29
 836 1123 836 1123 809 1149.5 c 128,-1,30
 782 1176 782 1176 739 1176 c 2,31,-1
 588 1176 l 1,32,-1
 588 1090 l 2,33,34
 588 1072 588 1072 606.5 1050 c 128,-1,35
 625 1028 625 1028 653 1028 c 2,36,-1
 705 1028 l 1,37,-1
 705 795 l 1,38,-1
 582 795 l 2,39,40
 471 795 471 795 391 883 c 1,41,42
 309 965 309 965 309 1090 c 2,43,-1
 309 1407 l 1,44,-1
 483 1407 l 1,45,46
 309 1522 309 1522 309 1597 c 2,47,-1
 309 1769 l 2,48,49
 309 1851 309 1851 389 1903 c 1,50,51
 457 1954 457 1954 565 1954 c 2,52,-1
 852 1954 l 1,53,-1
 852 1720 l 1,54,-1
 643 1720 l 1,55,-1
 600 1712 l 1,56,57
 590 1704 590 1704 590 1690 c 2,58,-1
 590 1608 l 2,59,60
 590 1540 590 1540 807 1409 c 1,61,-1
 829 1409 l 2,62,63
 903 1409 903 1409 967.5 1383.5 c 128,-1,64
 1032 1358 1032 1358 1073 1302.5 c 128,-1,65
 1114 1247 1114 1247 1114 1190 c 2,66,-1
 1114 872 l 2,67,68
 1114 819 1114 819 1053 760 c 0,69,70
 1002 713 1002 713 791 584 c 1,71,72
 725 539 725 539 659 500 c 0,73,74
 612 471 612 471 594 461 c 1,75,-1
 594 332 l 2,76,77
 594 301 594 301 618 270 c 1,78,79
 651 241 651 241 684 242 c 2,80,-1
 950 242 l 2,81,82
 975 242 975 242 1012 272 c 1,83,84
 1045 311 1045 311 1044 344 c 2,85,-1
 1044 459 l 1,86,-1
 1321 459 l 1,87,-1
 1321 330 l 2,88,89
 1321 293 1321 293 1358 266.5 c 128,-1,90
 1395 240 1395 240 1442 240 c 2,91,-1
 1675 240 l 2,92,93
 1700 240 1700 240 1736 272.5 c 128,-1,94
 1772 305 1772 305 1772 344 c 2,95,-1
 1772 539 l 2,96,97
 1772 576 1772 576 1749 591 c 128,-1,98
 1726 606 1726 606 1694 606 c 2,99,-1
 1597 606 l 1,100,-1
 1597 840 l 1,101,-1
 1794 840 l 2,102,103
 1903 840 1903 840 1976.5 759 c 128,-1,104
 2050 678 2050 678 2050 575 c 2,105,-1
 2052 287 l 2,0,1
EndSplineSet
EndChar

StartChar: auvowel
Encoding: 124 3220 118
Width: 1966
Flags: W
LayerCount: 2
Fore
SplineSet
2103 1040 m 1,0,-1
 1444 1040 l 2,1,2
 1340 1040 1340 1040 1260 1121 c 128,-1,3
 1180 1202 1180 1202 1180 1327 c 2,4,-1
 1180 1573 l 1,5,-1
 1753 1573 l 1,6,-1
 1753 1341 l 1,7,-1
 1430 1341 l 1,8,-1
 1430 1327 l 2,9,10
 1430 1317 1430 1317 1437 1307.5 c 128,-1,11
 1444 1298 1444 1298 1446 1294 c 0,12,13
 1464 1276 1464 1276 1493 1276 c 2,14,-1
 1825 1276 l 1,15,-1
 1825 1630 l 2,16,17
 1825 1669 1825 1669 1792 1697.5 c 128,-1,18
 1759 1726 1759 1726 1712 1726 c 2,19,-1
 1153 1726 l 1,20,21
 1163 1708 1163 1708 1163 1686 c 2,22,-1
 1163 1632 l 2,23,24
 1163 1560 1163 1560 1118 1509 c 1,25,26
 1067 1458 1067 1458 1008 1458 c 2,27,-1
 330 1458 l 1,28,-1
 330 1690 l 1,29,-1
 907 1690 l 2,30,31
 923 1690 923 1690 930.5 1699 c 128,-1,32
 938 1708 938 1708 940 1712 c 128,-1,33
 942 1716 942 1716 944 1720 c 1,34,35
 919 1722 919 1722 903 1726 c 1,36,-1
 328 1724 l 1,37,-1
 328 1958 l 1,38,-1
 1741 1958 l 2,39,40
 1837 1958 1837 1958 1919 1925 c 1,41,42
 2005 1882 2005 1882 2050 1823 c 0,43,44
 2073 1790 2073 1790 2087 1756 c 128,-1,45
 2101 1722 2101 1722 2101 1686 c 2,46,-1
 2103 1040 l 1,0,-1
2044 262 m 2,47,48
 2044 211 2044 211 2028.5 168 c 128,-1,49
 2013 125 2013 125 1982 82 c 1,50,51
 1914 6 1914 6 1819 6 c 2,52,-1
 1360 6 l 2,53,54
 1292 6 1292 6 1235 49 c 1,55,56
 1198 72 1198 72 1174 109 c 1,57,58
 1166 93 1166 93 1149 76 c 0,59,60
 1145 72 1145 72 1120 49 c 1,61,62
 1067 10 1067 10 1016 10 c 2,63,-1
 633 12 l 2,64,65
 506 12 506 12 407.5 99 c 128,-1,66
 309 186 309 186 309 305 c 2,67,-1
 309 561 l 1,68,-1
 578 723 l 1,69,70
 674 789 674 789 707 811 c 0,71,72
 773 854 773 854 786 868 c 1,73,74
 833 905 833 905 834 944 c 2,75,-1
 834 1143 l 2,76,77
 834 1176 834 1176 768 1176 c 2,78,-1
 586 1176 l 1,79,-1
 586 1090 l 2,80,81
 586 1072 586 1072 604.5 1050 c 128,-1,82
 623 1028 623 1028 651 1028 c 2,83,-1
 731 1028 l 1,84,-1
 731 795 l 1,85,-1
 573 795 l 2,86,87
 464 795 464 795 384.5 883 c 128,-1,88
 305 971 305 971 305 1090 c 2,89,-1
 305 1407 l 1,90,-1
 825 1407 l 2,91,92
 899 1407 899 1407 967.5 1378.5 c 128,-1,93
 1036 1350 1036 1350 1067 1303 c 1,94,95
 1110 1246 1110 1246 1110 1188 c 2,96,-1
 1110 870 l 2,97,98
 1110 825 1110 825 1065 782 c 1,99,100
 1028 737 1028 737 969 700 c 1,101,102
 922 663 922 663 768 569 c 1,103,-1
 588 455 l 1,104,-1
 588 326 l 2,105,106
 588 289 588 289 612 266 c 1,107,108
 637 235 637 235 680 236 c 2,109,-1
 975 236 l 2,110,111
 998 236 998 236 1017 266.5 c 128,-1,112
 1036 297 1036 297 1038 306 c 128,-1,113
 1040 315 1040 315 1040 338 c 2,114,-1
 1040 453 l 1,115,-1
 1315 453 l 1,116,-1
 1315 324 l 2,117,118
 1315 295 1315 295 1340.5 264 c 128,-1,119
 1366 233 1366 233 1409 233 c 2,120,-1
 1642 233 l 2,121,122
 1689 233 1689 233 1729 266 c 1,123,124
 1768 311 1768 311 1767 336 c 2,125,-1
 1767 530 l 2,126,127
 1767 561 1767 561 1741.5 579.5 c 128,-1,128
 1716 598 1716 598 1683 598 c 2,129,-1
 1593 598 l 1,130,-1
 1593 831 l 1,131,-1
 1819 831 l 2,132,133
 1876 831 1876 831 1912 819 c 128,-1,134
 1948 807 1948 807 1980 774 c 1,135,136
 2046 715 2046 715 2046 625 c 2,137,-1
 2044 262 l 2,47,48
EndSplineSet
EndChar

StartChar: ka.base
Encoding: 126 -1 120
Width: 1134
Flags: W
AnchorPoint: "s" 569 -127 basechar 0
LayerCount: 2
Fore
SplineSet
1565 788 m 1,0,-1
 1190 788 l 1,1,2
 1235 757 1235 757 1267.5 726.5 c 128,-1,3
 1300 696 1300 696 1337 657 c 1,4,5
 1413 563 1413 563 1413 483 c 2,6,-1
 1413 279 l 2,7,8
 1413 170 1413 170 1337.5 96.5 c 128,-1,9
 1262 23 1262 23 1167 14 c 1,10,-1
 614 12 l 2,11,12
 512 12 512 12 446 72 c 0,13,14
 407 105 407 105 393 137.5 c 128,-1,15
 379 170 379 170 379 217 c 2,16,-1
 379 461 l 2,17,18
 379 592 379 592 612 793 c 1,19,-1
 201 793 l 1,20,-1
 201 1024 l 1,21,-1
 756 1024 l 1,22,-1
 756 1169 l 1,23,-1
 201 1169 l 1,24,-1
 201 1401 l 1,25,-1
 1214 1401 l 1,26,-1
 1214 1169 l 1,27,-1
 1034 1169 l 1,28,-1
 1034 1024 l 1,29,-1
 1565 1024 l 1,30,-1
 1565 788 l 1,0,-1
1139 332 m 1,31,-1
 1139 455 l 2,32,33
 1139 527 1139 527 1073 594 c 0,34,35
 1036 633 1036 633 996 665.5 c 128,-1,36
 956 698 956 698 899 727 c 1,37,38
 653 598 653 598 653 469 c 2,39,-1
 653 324 l 2,40,41
 653 295 653 295 676 264 c 1,42,43
 684 260 684 260 696.5 255 c 128,-1,44
 709 250 709 250 739 250 c 2,45,-1
 1085 242 l 2,46,47
 1097 242 1097 242 1116 260 c 1,48,49
 1133 293 1133 293 1139 332 c 1,31,-1
EndSplineSet
EndChar

StartChar: ka.imathra
Encoding: 127 -1 121
Width: 1333
Flags: W
AnchorPoint: "s" 553 -164 basechar 0
LayerCount: 2
Fore
SplineSet
1423 791 m 1,0,-1
 1147 791 l 1,1,2
 1194 760 1194 760 1237 721 c 0,3,4
 1268 692 1268 692 1311 645 c 1,5,6
 1391 541 1391 541 1391 453 c 2,7,-1
 1391 219 l 2,8,9
 1391 176 1391 176 1375.5 140 c 128,-1,10
 1360 104 1360 104 1327 72 c 1,11,12
 1259 11 1259 11 1165 10 c 2,13,-1
 606 12 l 2,14,15
 504 12 504 12 428 72 c 1,16,17
 354 138 354 138 354 219 c 2,18,-1
 354 485 l 2,19,20
 354 522 354 522 377 559 c 0,21,22
 385 569 385 569 411.5 603 c 128,-1,23
 438 637 438 637 508 699.5 c 128,-1,24
 578 762 578 762 610 793 c 1,25,-1
 293 793 l 1,26,-1
 293 1026 l 1,27,-1
 827 1026 l 1,28,-1
 995 1225 l 1,29,-1
 995 1511 l 2,30,31
 995 1515 995 1515 991 1519.5 c 128,-1,32
 987 1524 987 1524 985 1526 c 1,33,-1
 862 1526 l 1,34,-1
 862 1430 l 1,35,-1
 870 1415 l 1,36,-1
 899 1405 l 1,37,-1
 950 1405 l 1,38,-1
 950 1174 l 1,39,-1
 813 1174 l 2,40,41
 725 1174 725 1174 655.5 1229 c 128,-1,42
 586 1284 586 1284 586 1358 c 2,43,-1
 586 1759 l 1,44,-1
 1047 1759 l 2,45,46
 1143 1759 1143 1759 1208.5 1704 c 128,-1,47
 1274 1649 1274 1649 1274 1552 c 2,48,-1
 1272 1180 l 1,49,-1
 1141 1026 l 1,50,-1
 1423 1026 l 1,51,-1
 1423 791 l 1,0,-1
1114 295 m 1,52,-1
 1114 457 l 2,53,54
 1114 531 1114 531 868 719 c 1,55,56
 628 524 628 524 629 444 c 2,57,-1
 629 268 l 2,58,59
 629 254 629 254 645.5 242.5 c 128,-1,60
 662 231 662 231 680 231 c 2,61,-1
 1071 231 l 2,62,63
 1085 231 1085 231 1097.5 251.5 c 128,-1,64
 1110 272 1110 272 1114 295 c 1,52,-1
EndSplineSet
LCarets2: 1 0
EndChar

StartChar: ka.sub
Encoding: 128 -1 122
Width: 352
Flags: W
AnchorPoint: "Sub" -393 594 mark 0
AnchorPoint: "Sub" 623 -823 basemark 0
LayerCount: 2
Fore
SplineSet
733 -315 m 1,0,-1
 514 -315 l 1,1,2
 627 -403 627 -403 627 -479 c 2,3,-1
 627 -639 l 2,4,5
 627 -719 627 -719 551 -784 c 1,6,7
 467 -841 467 -841 373 -842 c 2,8,-1
 20 -842 l 1,9,10
 -76 -834 -76 -834 -156 -768 c 128,-1,11
 -236 -702 -236 -702 -236 -612 c 2,12,-1
 -236 -522 l 2,13,14
 -236 -428 -236 -428 -111 -311 c 1,15,-1
 -362 -311 l 1,16,-1
 -362 -109 l 1,17,-1
 98 -109 l 1,18,-1
 231 29 l 1,19,-1
 332 133 l 1,20,21
 350 156 350 156 350 178 c 2,22,-1
 350 438 l 2,23,24
 350 491 350 491 211 545 c 1,25,-1
 385 684 l 1,26,27
 598 545 598 545 598 459 c 2,28,-1
 598 143 l 2,29,30
 598 120 598 120 585.5 98 c 128,-1,31
 573 76 573 76 545 43 c 1,32,-1
 379 -117 l 1,33,-1
 733 -117 l 1,34,-1
 733 -315 l 1,0,-1
381 -584 m 2,35,-1
 381 -487 l 2,36,37
 381 -469 381 -469 368.5 -449.5 c 128,-1,38
 356 -430 356 -430 328 -399 c 1,39,40
 281 -360 281 -360 186 -328 c 1,41,42
 106 -353 106 -353 61 -405 c 128,-1,43
 16 -457 16 -457 16 -518 c 2,44,-1
 16 -598 l 2,45,46
 16 -621 16 -621 33 -637 c 1,47,48
 64 -655 64 -655 96 -655 c 2,49,-1
 328 -655 l 2,50,51
 351 -655 351 -655 366 -633 c 128,-1,52
 381 -611 381 -611 381 -584 c 2,35,-1
EndSplineSet
LCarets2: 1 0
EndChar

StartChar: ka_rvocalicmatra.sub
Encoding: 129 -1 123
Width: 698
Flags: W
LayerCount: 2
Fore
SplineSet
1427 -549 m 1,0,1
 1427 -672 1427 -672 1346 -754 c 1,2,3
 1266 -842 1266 -842 1135 -842 c 2,4,-1
 317 -838 l 2,5,6
 215 -838 215 -838 139 -769 c 128,-1,7
 63 -700 63 -700 63 -610 c 2,8,-1
 63 -227 l 1,9,-1
 311 -227 l 1,10,-1
 240 -182 l 1,11,12
 181 -131 181 -131 180 -86 c 2,13,-1
 180 104 l 2,14,15
 180 186 180 186 283 268 c 1,16,-1
 94 268 l 1,17,-1
 94 473 l 1,18,-1
 510 473 l 1,19,-1
 510 690 l 1,20,-1
 784 690 l 1,21,-1
 784 473 l 1,22,-1
 1194 473 l 1,23,-1
 1194 268 l 1,24,-1
 963 268 l 1,25,26
 992 256 992 256 1016 231 c 1,27,28
 1032 208 1032 208 1051 186 c 1,29,30
 1076 147 1076 147 1075 109 c 2,31,-1
 1075 -10 l 2,32,33
 1075 -119 1075 -119 993 -186 c 1,34,35
 913 -266 913 -266 799 -266 c 2,36,-1
 633 -266 l 1,37,-1
 633 -426 l 1,38,-1
 313 -426 l 1,39,-1
 313 -580 l 1,40,41
 321 -603 321 -603 330 -604 c 1,42,43
 363 -627 363 -627 385 -627 c 2,44,-1
 1090 -627 l 2,45,46
 1106 -627 1106 -627 1122 -590 c 1,47,48
 1145 -553 1145 -553 1145 -496 c 2,49,-1
 1145 49 l 2,50,51
 1145 88 1145 88 1051 131 c 1,52,-1
 1237 297 l 1,53,54
 1284 272 1284 272 1315 250.5 c 128,-1,55
 1346 229 1346 229 1370 199 c 1,56,57
 1417 127 1417 127 1417 55 c 2,58,-1
 1427 -549 l 1,0,1
817 18 m 1,59,-1
 817 109 l 2,60,61
 817 132 817 132 809 158 c 128,-1,62
 801 184 801 184 782 203 c 1,63,64
 757 244 757 244 696 266 c 1,65,-1
 539 266 l 1,66,67
 488 235 488 235 457 199 c 1,68,69
 449 185 449 185 439.5 163 c 128,-1,70
 430 141 430 141 430 117 c 2,71,-1
 430 -20 l 2,72,73
 430 -43 430 -43 444 -51 c 2,74,-1
 471 -68 l 1,75,-1
 786 -66 l 2,76,77
 796 -66 796 -66 808.5 -42.5 c 128,-1,78
 821 -19 821 -19 817 18 c 1,59,-1
EndSplineSet
EndChar

StartChar: kha
Encoding: 130 3222 124
Width: 2009
Flags: W
LayerCount: 2
Fore
SplineSet
2087 231 m 2,0,1
 2087 145 2087 145 2040 70 c 1,2,3
 1974 -4 1974 -4 1909 -4 c 2,4,-1
 1595 -4 l 2,5,6
 1515 -4 1515 -4 1411 70 c 1,7,-1
 1260 166 l 1,8,9
 1244 129 1244 129 1222 103.5 c 128,-1,10
 1200 78 1200 78 1163 53 c 0,11,12
 1081 -4 1081 -4 985 -4 c 2,13,-1
 485 -4 l 1,14,15
 448 0 448 0 410.5 12.5 c 128,-1,16
 373 25 373 25 339 48.5 c 128,-1,17
 305 72 305 72 286.5 104.5 c 128,-1,18
 268 137 268 137 268 170 c 2,19,-1
 268 438 l 2,20,21
 268 524 268 524 328 582 c 1,22,23
 396 633 396 633 477 633 c 2,24,-1
 901 633 l 2,25,26
 981 633 981 633 1026 604 c 1,27,-1
 1026 1073 l 2,28,29
 1026 1110 1026 1110 1010 1141 c 1,30,31
 996 1157 996 1157 979 1157 c 2,32,-1
 713 1157 l 1,33,-1
 702 1149 l 1,34,35
 694 1133 694 1133 694 1090 c 2,36,-1
 694 864 l 1,37,-1
 414 864 l 1,38,-1
 414 1169 l 2,39,40
 414 1265 414 1265 487 1327 c 1,41,42
 548 1386 548 1386 668 1386 c 2,43,-1
 1034 1386 l 2,44,45
 1145 1386 1145 1386 1225 1305.5 c 128,-1,46
 1305 1225 1305 1225 1305 1114 c 2,47,-1
 1305 426 l 1,48,-1
 1499 268 l 1,49,50
 1558 217 1558 217 1630 217 c 2,51,-1
 1763 217 l 2,52,53
 1786 217 1786 217 1798 242.5 c 128,-1,54
 1810 268 1810 268 1810 305 c 2,55,-1
 1810 1094 l 2,56,57
 1810 1125 1810 1125 1788.5 1139 c 128,-1,58
 1767 1153 1767 1153 1735 1153 c 2,59,-1
 1462 1153 l 1,60,-1
 1462 1382 l 1,61,-1
 1831 1382 l 2,62,63
 1884 1382 1884 1382 1928 1368 c 128,-1,64
 1972 1354 1972 1354 2009 1317 c 1,65,66
 2089 1245 2089 1245 2089 1149 c 2,67,-1
 2087 231 l 2,0,1
1018 281 m 1,68,-1
 1018 338 l 1,69,70
 971 395 971 395 862 395 c 2,71,-1
 600 395 l 2,72,73
 567 395 567 395 551 387 c 1,74,-1
 537 383 l 1,75,-1
 537 256 l 1,76,77
 545 240 545 240 549 238 c 0,78,79
 567 224 567 224 586 223 c 2,80,-1
 940 223 l 2,81,82
 971 223 971 223 993 246 c 1,83,84
 1016 263 1016 263 1018 281 c 1,68,-1
EndSplineSet
LCarets2: 1 0
EndChar

StartChar: kha.base
Encoding: 131 -1 125
Width: 1662
Flags: W
LayerCount: 2
Fore
SplineSet
2091 231 m 2,0,1
 2091 137 2091 137 2036.5 66.5 c 128,-1,2
 1982 -4 1982 -4 1907 -4 c 1,3,-1
 1903 0 l 1,4,-1
 1593 0 l 2,5,6
 1513 0 1513 0 1409 74 c 1,7,-1
 1276 154 l 1,8,9
 1258 95 1258 95 1178 47.5 c 128,-1,10
 1098 0 1098 0 989 0 c 2,11,-1
 508 0 l 2,12,13
 412 0 412 0 340 47 c 1,14,15
 307 72 307 72 288.5 104.5 c 128,-1,16
 270 137 270 137 270 170 c 2,17,-1
 270 438 l 2,18,19
 270 524 270 524 332.5 578.5 c 128,-1,20
 395 633 395 633 492 633 c 2,21,-1
 903 633 l 2,22,23
 983 633 983 633 1028 604 c 1,24,-1
 1028 1102 l 2,25,26
 1028 1125 1028 1125 1013.5 1141 c 128,-1,27
 999 1157 999 1157 977 1157 c 2,28,-1
 743 1157 l 2,29,30
 720 1157 720 1157 707 1147 c 1,31,32
 693 1124 693 1124 692 1092 c 2,33,-1
 692 866 l 1,34,-1
 416 866 l 1,35,-1
 416 1171 l 2,36,37
 416 1267 416 1267 489 1329 c 1,38,39
 520 1358 520 1358 568 1373.5 c 128,-1,40
 616 1389 616 1389 668 1389 c 2,41,-1
 1036 1389 l 2,42,43
 1147 1389 1147 1389 1226 1309 c 128,-1,44
 1305 1229 1305 1229 1305 1114 c 2,45,-1
 1305 424 l 1,46,-1
 1499 299 l 1,47,48
 1587 219 1587 219 1632 219 c 2,49,-1
 1798 219 l 2,50,51
 1814 219 1814 219 1815 242 c 2,52,-1
 1815 948 l 2,53,54
 1815 1042 1815 1042 1749 1094 c 1,55,56
 1681 1153 1681 1153 1591 1153 c 2,57,-1
 1468 1153 l 1,58,-1
 1468 1382 l 1,59,-1
 1729 1382 l 1,60,61
 1838 1368 1838 1368 1923 1307 c 1,62,63
 2005 1239 2005 1239 2050 1153 c 1,64,65
 2073 1096 2073 1096 2084 1053 c 128,-1,66
 2095 1010 2095 1010 2095 950 c 2,67,-1
 2091 231 l 2,0,1
1024 283 m 1,68,-1
 1024 322 l 1,69,70
 938 396 938 396 827 395 c 2,71,-1
 573 395 l 2,72,73
 557 395 557 395 549 391 c 1,74,-1
 545 383 l 1,75,-1
 545 256 l 1,76,77
 549 240 549 240 553 238 c 0,78,79
 571 224 571 224 590 223 c 2,80,-1
 944 223 l 2,81,82
 969 223 969 223 994.5 241.5 c 128,-1,83
 1020 260 1020 260 1024 283 c 1,68,-1
EndSplineSet
EndChar

StartChar: kha.imathra
Encoding: 132 -1 126
Width: 2009
Flags: W
LayerCount: 2
Fore
SplineSet
2091 233 m 2,0,1
 2091 137 2091 137 2036.5 66.5 c 128,-1,2
 1982 -4 1982 -4 1907 -4 c 1,3,-1
 1903 0 l 1,4,-1
 1593 0 l 2,5,6
 1513 0 1513 0 1409 74 c 1,7,-1
 1257 168 l 1,8,9
 1228 100 1228 100 1171 55 c 1,10,11
 1089 2 1089 2 1008 2 c 2,12,-1
 508 2 l 2,13,14
 412 2 412 2 340 49 c 1,15,16
 307 74 307 74 288.5 106.5 c 128,-1,17
 270 139 270 139 270 172 c 2,18,-1
 270 444 l 2,19,20
 270 530 270 530 336 584 c 1,21,22
 393 637 393 637 494 637 c 2,23,-1
 905 637 l 2,24,25
 966 637 966 637 1028 584 c 1,26,-1
 1028 1081 l 2,27,28
 1028 1114 1028 1114 1006 1143 c 0,29,30
 996 1153 996 1153 983.5 1158 c 128,-1,31
 971 1163 971 1163 954 1163 c 2,32,-1
 745 1163 l 2,33,34
 729 1163 729 1163 711 1149 c 1,35,36
 697 1126 697 1126 696 1096 c 2,37,-1
 696 866 l 1,38,-1
 420 866 l 1,39,-1
 420 1176 l 2,40,41
 420 1276 420 1276 494 1333 c 1,42,43
 527 1366 527 1366 574 1380.5 c 128,-1,44
 621 1395 621 1395 672 1395 c 2,45,-1
 1040 1395 l 2,46,47
 1151 1395 1151 1395 1230 1315 c 128,-1,48
 1309 1235 1309 1235 1309 1118 c 2,49,-1
 1309 432 l 1,50,-1
 1470 301 l 1,51,52
 1599 221 1599 221 1696 221 c 2,53,-1
 1769 221 l 2,54,55
 1787 221 1787 221 1802 236.5 c 128,-1,56
 1817 252 1817 252 1817 270 c 2,57,-1
 1817 1278 l 2,58,59
 1817 1309 1817 1309 1804.5 1327.5 c 128,-1,60
 1792 1346 1792 1346 1769 1346 c 2,61,-1
 1696 1346 l 2,62,63
 1671 1346 1671 1346 1663 1343 c 1,64,-1
 1661 1333 l 1,65,-1
 1659 1294 l 1,66,67
 1663 1257 1663 1257 1671 1248 c 128,-1,68
 1679 1239 1679 1239 1684.5 1235 c 128,-1,69
 1690 1231 1690 1231 1694 1231 c 2,70,-1
 1804 1231 l 1,71,-1
 1804 999 l 1,72,-1
 1589 999 l 2,73,74
 1503 999 1503 999 1442 1065 c 1,75,76
 1381 1124 1381 1124 1380 1212 c 2,77,-1
 1380 1401 l 2,78,79
 1380 1481 1380 1481 1452 1532 c 128,-1,80
 1524 1583 1524 1583 1624 1583 c 2,81,-1
 1858 1583 l 2,82,83
 1958 1583 1958 1583 2027.5 1511.5 c 128,-1,84
 2097 1440 2097 1440 2097 1335 c 2,85,-1
 2091 233 l 2,0,1
1026 285 m 1,86,-1
 1026 315 l 1,87,88
 926 397 926 397 844 397 c 2,89,-1
 596 397 l 2,90,91
 563 397 563 397 553 393 c 1,92,-1
 549 385 l 1,93,-1
 549 274 l 1,94,-1
 557 238 l 1,95,-1
 571 223 l 1,96,-1
 954 223 l 2,97,98
 977 223 977 223 1003.5 242.5 c 128,-1,99
 1030 262 1030 262 1026 285 c 1,86,-1
EndSplineSet
LCarets2: 1 0
EndChar

StartChar: kha.sub
Encoding: 133 -1 127
Width: 333
Flags: W
AnchorPoint: "Sub" -621 592 mark 0
AnchorPoint: "Sub" 674 -821 basemark 0
LayerCount: 2
Fore
SplineSet
682 -475 m 2,0,1
 682 -534 682 -534 658.5 -589.5 c 128,-1,2
 635 -645 635 -645 592 -688 c 0,3,4
 498 -782 498 -782 367 -782 c 2,5,-1
 225 -782 l 2,6,7
 188 -782 188 -782 63 -739 c 1,8,9
 -76 -835 -76 -835 -158 -836 c 2,10,-1
 -467 -836 l 2,11,12
 -506 -836 -506 -836 -546 -821.5 c 128,-1,13
 -586 -807 -586 -807 -616 -784 c 0,14,15
 -677 -737 -677 -737 -678 -664 c 2,16,-1
 -678 -545 l 2,17,18
 -678 -465 -678 -465 -616 -406 c 0,19,20
 -587 -377 -587 -377 -550.5 -364.5 c 128,-1,21
 -514 -352 -514 -352 -467 -352 c 2,22,-1
 -233 -352 l 2,23,24
 -188 -352 -188 -352 -170 -367 c 2,25,-1
 -59 -438 l 1,26,-1
 -59 -313 l 2,27,28
 -59 -276 -59 -276 -84 -246 c 1,29,30
 -115 -221 -115 -221 -147 -221 c 1,31,-1
 -147 -326 l 1,32,-1
 -393 -326 l 1,33,-1
 -393 -27 l 1,34,-1
 -92 -27 l 2,35,36
 33 -27 33 -27 114 -114 c 128,-1,37
 195 -201 195 -201 195 -315 c 2,38,-1
 195 -578 l 1,39,40
 224 -594 224 -594 252 -594 c 2,41,-1
 369 -594 l 2,42,43
 398 -594 398 -594 412 -563 c 1,44,45
 437 -518 437 -518 436 -471 c 2,46,-1
 436 375 l 2,47,48
 436 400 436 400 406.5 423 c 128,-1,49
 377 446 377 446 319 446 c 2,50,-1
 182 446 l 1,51,-1
 182 659 l 1,52,-1
 338 659 l 2,53,54
 475 659 475 659 580 586 c 1,55,56
 682 500 682 500 682 389 c 2,57,-1
 682 -475 l 2,0,1
-145 -633 m 1,58,59
 -225 -576 -225 -576 -299 -575 c 2,60,-1
 -428 -575 l 2,61,62
 -436 -575 -436 -575 -441 -576.5 c 128,-1,63
 -446 -578 -446 -578 -449 -580 c 1,64,-1
 -449 -645 l 1,65,-1
 -426 -649 l 1,66,-1
 -188 -649 l 1,67,-1
 -145 -633 l 1,58,59
EndSplineSet
LCarets2: 1 0
EndChar

StartChar: ga.base
Encoding: 135 -1 129
Width: 1183
Flags: W
LayerCount: 2
Fore
SplineSet
1614 0 m 1,0,-1
 1339 0 l 1,1,-1
 1339 987 l 2,2,3
 1339 1010 1339 1010 1331 1030.5 c 128,-1,4
 1323 1051 1323 1051 1309 1073 c 0,5,6
 1278 1116 1278 1116 1227 1141 c 0,7,8
 1198 1155 1198 1155 1175.5 1157 c 128,-1,9
 1153 1159 1153 1159 1114 1159 c 2,10,-1
 895 1159 l 2,11,12
 805 1159 805 1159 746.5 1109 c 128,-1,13
 688 1059 688 1059 688 983 c 2,14,-1
 688 -4 l 1,15,-1
 408 -4 l 1,16,-1
 408 995 l 2,17,18
 408 1085 408 1085 483 1159 c 1,19,-1
 408 1159 l 1,20,-1
 408 1391 l 1,21,-1
 1251 1391 l 1,22,23
 1413 1358 1413 1358 1518 1243 c 1,24,25
 1618 1120 1618 1120 1618 983 c 2,26,-1
 1614 0 l 1,0,-1
EndSplineSet
EndChar

StartChar: ga.imathra
Encoding: 136 -1 130
Width: 1566
Flags: W
LayerCount: 2
Fore
SplineSet
1645 0 m 1,0,-1
 1368 0 l 1,1,-1
 1368 997 l 2,2,3
 1368 1071 1368 1071 1324 1122.5 c 128,-1,4
 1280 1174 1280 1174 1212 1174 c 2,5,-1
 831 1174 l 2,6,7
 763 1174 763 1174 727 1128 c 1,8,9
 684 1083 684 1083 684 1010 c 2,10,-1
 684 2 l 1,11,-1
 403 2 l 1,12,-1
 403 999 l 2,13,14
 403 1112 403 1112 455 1186 c 1,15,16
 488 1247 488 1247 547 1290 c 1,17,18
 494 1308 494 1308 455 1354 c 1,19,20
 430 1379 430 1379 418 1411.5 c 128,-1,21
 406 1444 406 1444 406 1481 c 2,22,-1
 406 1618 l 2,23,24
 406 1698 406 1698 477 1757 c 1,25,26
 547 1810 547 1810 647 1810 c 2,27,-1
 1038 1810 l 2,28,29
 1206 1810 1206 1810 1343.5 1726 c 128,-1,30
 1481 1642 1481 1642 1567 1491 c 1,31,32
 1647 1331 1647 1331 1647 1163 c 2,33,-1
 1645 0 l 1,0,-1
1346 1358 m 1,34,35
 1313 1438 1313 1438 1237 1497 c 1,36,37
 1122 1577 1122 1577 971 1577 c 2,38,-1
 766 1577 l 2,39,40
 715 1577 715 1577 700.5 1573 c 128,-1,41
 686 1569 686 1569 686 1546 c 2,42,-1
 686 1481 l 2,43,44
 686 1444 686 1444 697.5 1424.5 c 128,-1,45
 709 1405 709 1405 717 1403 c 1,46,-1
 1214 1403 l 2,47,48
 1295 1403 1295 1403 1346 1358 c 1,34,35
EndSplineSet
LCarets2: 1 0
EndChar

StartChar: ga.sub
Encoding: 137 -1 131
Width: 202
Flags: W
AnchorPoint: "Sub" -434 -119 mark 0
AnchorPoint: "Sub" 422 -856 basemark 0
LayerCount: 2
Fore
SplineSet
440 -840 m 1,0,-1
 193 -840 l 1,1,-1
 193 -395 l 2,2,3
 193 -379 193 -379 184.5 -364.5 c 128,-1,4
 176 -350 176 -350 162 -336 c 1,5,6
 133 -313 133 -313 96 -313 c 2,7,-1
 -78 -313 l 2,8,9
 -121 -313 -121 -313 -147 -332 c 1,10,11
 -170 -357 -170 -357 -170 -393 c 2,12,-1
 -170 -838 l 1,13,-1
 -422 -838 l 1,14,-1
 -422 -393 l 2,15,16
 -422 -270 -422 -270 -334 -190 c 1,17,18
 -254 -110 -254 -110 -127 -111 c 2,19,-1
 125 -111 l 2,20,21
 252 -111 252 -111 348 -182 c 0,22,23
 393 -215 393 -215 415.5 -263 c 128,-1,24
 438 -311 438 -311 438 -365 c 2,25,-1
 440 -840 l 1,0,-1
EndSplineSet
LCarets2: 1 0
EndChar

StartChar: gha.base
Encoding: 139 -1 133
Width: 2086
Flags: W
LayerCount: 2
Fore
SplineSet
2546 1165 m 1,0,-1
 1911 1165 l 1,1,2
 1977 1097 1977 1097 1987 999 c 1,3,4
 2081 856 2081 856 2154 856 c 1,5,6
 2191 858 2191 858 2214 877 c 1,7,8
 2237 906 2237 906 2236 913 c 2,9,-1
 2236 1124 l 1,10,-1
 2511 1124 l 1,11,-1
 2511 942 l 2,12,13
 2511 899 2511 899 2502.5 863 c 128,-1,14
 2494 827 2494 827 2478 782 c 1,15,16
 2441 708 2441 708 2388 666 c 1,17,18
 2363 650 2363 650 2334.5 637.5 c 128,-1,19
 2306 625 2306 625 2261 625 c 2,20,-1
 2144 627 l 2,21,22
 2062 627 2062 627 1995 678 c 1,23,-1
 1993 291 l 2,24,25
 1993 168 1993 168 1917 86 c 1,26,27
 1843 -4 1843 -4 1739 -4 c 2,28,-1
 1386 -4 l 2,29,30
 1296 -4 1296 -4 1235 57 c 0,31,32
 1219 73 1219 73 1193 99 c 128,-1,33
 1167 125 1167 125 1157 150 c 1,34,35
 1132 99 1132 99 1081 57 c 1,36,37
 1022 -4 1022 -4 942 -4 c 2,38,-1
 573 -2 l 2,39,40
 479 -2 479 -2 413.5 74 c 128,-1,41
 348 150 348 150 348 252 c 2,42,-1
 348 856 l 1,43,-1
 690 856 l 2,44,45
 756 856 756 856 801 840.5 c 128,-1,46
 846 825 846 825 889 782 c 1,47,48
 977 706 977 706 977 592 c 2,49,-1
 977 518 l 1,50,-1
 696 518 l 1,51,-1
 696 580 l 2,52,53
 696 596 696 596 685 610.5 c 128,-1,54
 674 625 674 625 645 625 c 2,55,-1
 623 625 l 1,56,-1
 623 311 l 2,57,58
 623 278 623 278 639 256 c 1,59,60
 664 231 664 231 674 231 c 2,61,-1
 907 231 l 2,62,63
 946 231 946 231 975 285 c 1,64,65
 1014 346 1014 346 1014 420 c 2,66,-1
 1014 582 l 1,67,-1
 1290 582 l 1,68,-1
 1290 420 l 2,69,70
 1290 361 1290 361 1334 295 c 128,-1,71
 1378 229 1378 229 1411 229 c 2,72,-1
 1645 229 l 2,73,74
 1663 229 1663 229 1692 252 c 1,75,76
 1710 275 1710 275 1710 311 c 2,77,-1
 1710 965 l 2,78,79
 1710 1047 1710 1047 1634.5 1108 c 128,-1,80
 1559 1169 1559 1169 1454 1169 c 2,81,-1
 332 1169 l 1,82,-1
 332 1401 l 1,83,-1
 2550 1401 l 1,84,-1
 2546 1165 l 1,0,-1
1286 815 m 1,85,-1
 1010 815 l 1,86,-1
 1010 1075 l 1,87,-1
 1286 1075 l 1,88,-1
 1286 815 l 1,85,-1
1286 -289 m 1,89,-1
 1010 -289 l 1,90,-1
 1010 25 l 1,91,-1
 1286 25 l 1,92,-1
 1286 -289 l 1,89,-1
EndSplineSet
EndChar

StartChar: gha.imathra
Encoding: 140 -1 134
Width: 2484
Flags: W
LayerCount: 2
Fore
SplineSet
1286 1223 m 2,0,1
 1286 1119 1286 1119 1219 1053 c 1,2,3
 1153 985 1153 985 1063 985 c 2,4,-1
 659 985 l 1,5,-1
 659 1217 l 1,6,-1
 969 1217 l 1,7,8
 987 1221 987 1221 997 1235 c 1,9,10
 1007 1258 1007 1258 1008 1276 c 2,11,-1
 1008 1509 l 2,12,13
 1008 1542 1008 1542 997 1565 c 1,14,15
 987 1579 987 1579 971 1579 c 2,16,-1
 866 1579 l 2,17,18
 850 1579 850 1579 850 1565 c 2,19,-1
 850 1507 l 1,20,-1
 852 1493 l 1,21,-1
 866 1485 l 1,22,-1
 995 1485 l 1,23,-1
 995 1251 l 1,24,-1
 780 1251 l 2,25,26
 700 1251 700 1251 635 1311 c 1,27,28
 574 1362 574 1362 573 1442 c 2,29,-1
 573 1593 l 2,30,31
 573 1644 573 1644 588.5 1681 c 128,-1,32
 604 1718 604 1718 643 1749 c 1,33,34
 704 1810 704 1810 807 1810 c 2,35,-1
 1087 1810 l 2,36,37
 1175 1810 1175 1810 1229 1749 c 1,38,39
 1286 1692 1286 1692 1286 1597 c 2,40,-1
 1286 1223 l 2,0,1
2572 942 m 1,41,42
 2572 825 2572 825 2506.5 749.5 c 128,-1,43
 2441 674 2441 674 2345 674 c 2,44,-1
 2142 674 l 2,45,46
 2062 674 2062 674 1991 731 c 1,47,-1
 1989 289 l 2,48,49
 1989 166 1989 166 1913 80 c 1,50,51
 1841 -8 1841 -8 1733 -8 c 1,52,-1
 1733 31 l 1,53,-1
 1737 -8 l 1,54,-1
 1384 -6 l 2,55,56
 1298 -6 1298 -6 1227 41 c 0,57,58
 1176 74 1176 74 1151 121 c 1,59,60
 1122 74 1122 74 1077 37 c 1,61,62
 1005 -10 1005 -10 930 -10 c 2,63,-1
 567 -8 l 2,64,65
 473 -8 473 -8 407.5 57.5 c 128,-1,66
 342 123 342 123 342 217 c 2,67,-1
 342 852 l 1,68,-1
 686 852 l 2,69,70
 809 852 809 852 885 784 c 1,71,72
 973 712 973 712 973 612 c 2,73,-1
 973 510 l 1,74,-1
 692 510 l 1,75,-1
 692 600 l 1,76,-1
 678 610 l 1,77,78
 668 614 668 614 637 614 c 2,79,-1
 621 614 l 1,80,-1
 621 299 l 2,81,82
 621 266 621 266 637 242.5 c 128,-1,83
 653 219 653 219 668 219 c 2,84,-1
 901 219 l 2,85,86
 946 219 946 219 975 272 c 1,87,88
 1014 329 1014 329 1014 410 c 2,89,-1
 1014 575 l 1,90,-1
 1290 575 l 1,91,-1
 1288 410 l 2,92,93
 1288 351 1288 351 1335 285 c 1,94,95
 1378 219 1378 219 1411 219 c 2,96,-1
 1645 219 l 2,97,98
 1670 219 1670 219 1691 245.5 c 128,-1,99
 1712 272 1712 272 1712 301 c 2,100,-1
 1712 1077 l 2,101,102
 1712 1108 1712 1108 1683 1141 c 1,103,104
 1660 1159 1660 1159 1616 1159 c 2,105,-1
 1430 1159 l 1,106,-1
 1430 1393 l 1,107,-1
 1688 1393 l 2,108,109
 1776 1393 1776 1393 1842.5 1342.5 c 128,-1,110
 1909 1292 1909 1292 1948 1219 c 1,111,112
 1987 1133 1987 1133 1987 1047 c 1,113,114
 2089 902 2089 902 2144 901 c 2,115,-1
 2249 901 l 2,116,117
 2259 901 2259 901 2273.5 924.5 c 128,-1,118
 2288 948 2288 948 2288 991 c 2,119,-1
 2288 1393 l 1,120,-1
 2562 1393 l 1,121,-1
 2572 942 l 1,41,42
1276 -350 m 1,122,-1
 999 -350 l 1,123,-1
 999 -37 l 1,124,-1
 1276 -37 l 1,125,-1
 1276 -350 l 1,122,-1
EndSplineSet
LCarets2: 1 0
EndChar

StartChar: gha.sub
Encoding: 141 -1 135
Width: 430
Flags: W
AnchorPoint: "Sub" -799 248 mark 0
AnchorPoint: "Sub" 803 -803 basemark 0
LayerCount: 2
Fore
SplineSet
879 -76 m 2,0,1
 879 -223 879 -223 733 -311 c 1,2,-1
 733 -477 l 2,3,4
 733 -522 733 -522 717.5 -562 c 128,-1,5
 702 -602 702 -602 672 -639 c 1,6,7
 604 -711 604 -711 508 -711 c 2,8,-1
 197 -711 l 2,9,10
 121 -711 121 -711 49 -664 c 0,11,12
 -8 -627 -8 -627 -51 -567 c 1,13,14
 -74 -598 -74 -598 -101.5 -626.5 c 128,-1,15
 -129 -655 -129 -655 -160 -672 c 1,16,17
 -242 -729 -242 -729 -324 -729 c 2,18,-1
 -629 -729 l 2,19,20
 -723 -729 -723 -729 -782 -670 c 1,21,22
 -850 -611 -850 -611 -850 -530 c 2,23,-1
 -850 -344 l 2,24,25
 -850 -246 -850 -246 -784 -193 c 1,26,27
 -723 -132 -723 -132 -629 -131 c 2,28,-1
 -311 -131 l 1,29,-1
 -311 -332 l 1,30,-1
 -555 -332 l 2,31,32
 -578 -332 -578 -332 -592 -344 c 128,-1,33
 -606 -356 -606 -356 -606 -375 c 2,34,-1
 -606 -494 l 1,35,-1
 -598 -516 l 1,36,37
 -575 -526 -575 -526 -571 -526 c 2,38,-1
 -305 -526 l 2,39,40
 -274 -526 -274 -526 -223 -467 c 128,-1,41
 -172 -408 -172 -408 -172 -360 c 2,42,-1
 -172 -264 l 1,43,-1
 80 -264 l 1,44,-1
 80 -375 l 2,45,46
 80 -414 80 -414 125 -457 c 1,47,48
 148 -473 148 -473 171.5 -487.5 c 128,-1,49
 195 -502 195 -502 217 -502 c 2,50,-1
 463 -502 l 2,51,52
 488 -502 488 -502 487 -469 c 2,53,-1
 487 -383 l 1,54,-1
 256 -383 l 1,55,-1
 256 -180 l 1,56,-1
 539 -180 l 2,57,58
 578 -180 578 -180 607.5 -145.5 c 128,-1,59
 637 -111 637 -111 637 -72 c 2,60,-1
 637 80 l 2,61,62
 637 94 637 94 518 168 c 1,63,-1
 662 330 l 1,64,65
 881 197 881 197 881 92 c 2,66,-1
 879 -76 l 2,0,1
74 -842 m 1,67,-1
 -178 -842 l 1,68,-1
 -178 -688 l 1,69,-1
 -53 -549 l 1,70,-1
 70 -688 l 1,71,-1
 74 -842 l 1,67,-1
EndSplineSet
LCarets2: 1 0
EndChar

StartChar: nga
Encoding: 142 3225 136
Width: 1873
Flags: W
LayerCount: 2
Fore
SplineSet
1962 238 m 1,0,1
 1962 142 1962 142 1895.5 72 c 128,-1,2
 1829 2 1829 2 1735 2 c 2,3,-1
 1323 4 l 2,4,5
 1251 4 1251 4 1186 47 c 1,6,7
 1147 76 1147 76 1122 119 c 1,8,9
 1118 105 1118 105 1102.5 83 c 128,-1,10
 1087 61 1087 61 1071 47 c 0,11,12
 1018 2 1018 2 952 2 c 2,13,-1
 557 4 l 2,14,15
 467 4 467 4 385 63 c 1,16,17
 313 124 313 124 313 211 c 2,18,-1
 313 512 l 1,19,-1
 752 852 l 2,20,21
 785 877 785 877 784 942 c 2,22,-1
 784 1104 l 2,23,24
 784 1127 784 1127 760 1145 c 1,25,26
 735 1159 735 1159 690 1159 c 2,27,-1
 596 1159 l 1,28,-1
 596 1102 l 2,29,30
 596 1071 596 1071 608.5 1060 c 128,-1,31
 621 1049 621 1049 623 1046.5 c 128,-1,32
 625 1044 625 1044 627 1042 c 1,33,-1
 680 1042 l 1,34,-1
 680 811 l 1,35,-1
 510 813 l 2,36,37
 430 813 430 813 371.5 878.5 c 128,-1,38
 313 944 313 944 313 1038 c 2,39,-1
 313 1393 l 1,40,-1
 733 1393 l 2,41,42
 837 1393 837 1393 918 1354 c 0,43,44
 979 1325 979 1325 1001 1268 c 1,45,46
 1134 1393 1134 1393 1286 1393 c 2,47,-1
 1726 1393 l 2,48,49
 1806 1393 1806 1393 1853 1346 c 1,50,51
 1878 1315 1878 1315 1890.5 1284 c 128,-1,52
 1903 1253 1903 1253 1903 1217 c 2,53,-1
 1903 1030 l 1,54,-1
 1626 1030 l 1,55,-1
 1626 1120 l 2,56,57
 1626 1136 1626 1136 1617 1148.5 c 128,-1,58
 1608 1161 1608 1161 1577 1161 c 2,59,-1
 1354 1161 l 2,60,61
 1295 1161 1295 1161 1251.5 1152 c 128,-1,62
 1208 1143 1208 1143 1165 1118 c 0,63,64
 1071 1067 1071 1067 1028 993 c 1,65,-1
 1028 883 l 2,66,67
 1028 738 1028 738 928 676 c 1,68,-1
 588 387 l 1,69,-1
 588 287 l 2,70,71
 588 271 588 271 610.5 254.5 c 128,-1,72
 633 238 633 238 670 238 c 2,73,-1
 856 238 l 2,74,75
 903 238 903 238 943 265.5 c 128,-1,76
 983 293 983 293 983 324 c 2,77,-1
 983 449 l 1,78,-1
 1260 449 l 1,79,-1
 1260 324 l 2,80,81
 1260 291 1260 291 1288 266 c 1,82,83
 1327 237 1327 237 1380 238 c 2,84,-1
 1642 238 l 2,85,86
 1660 238 1660 238 1664.5 243 c 128,-1,87
 1669 248 1669 248 1673 253 c 128,-1,88
 1677 258 1677 258 1677 268 c 2,89,-1
 1677 541 l 2,90,91
 1677 600 1677 600 1661 600 c 2,92,-1
 1475 600 l 1,93,-1
 1475 829 l 1,94,-1
 1729 829 l 2,95,96
 1797 829 1797 829 1843 799 c 1,97,98
 1896 774 1896 774 1925 727 c 1,99,100
 1954 670 1954 670 1954 612 c 2,101,-1
 1962 238 l 1,0,1
1249 522 m 1,102,-1
 973 522 l 1,103,-1
 973 782 l 1,104,-1
 1249 782 l 1,105,-1
 1249 522 l 1,102,-1
EndSplineSet
LCarets2: 1 0
EndChar

StartChar: nga.sub
Encoding: 143 -1 137
Width: 401
Flags: W
AnchorPoint: "Sub" -786 -61 mark 0
AnchorPoint: "Sub" 823 -821 basemark 0
LayerCount: 2
Fore
SplineSet
158 -467 m 1,0,-1
 -88 -467 l 1,1,-1
 -88 -295 l 1,2,-1
 158 -295 l 1,3,-1
 158 -467 l 1,0,-1
821 -643 m 2,4,5
 821 -725 821 -725 762 -776 c 1,6,7
 703 -835 703 -835 623 -836 c 2,8,-1
 213 -836 l 2,9,10
 180 -836 180 -836 151.5 -826.5 c 128,-1,11
 123 -817 123 -817 94.5 -797.5 c 128,-1,12
 66 -778 66 -778 41 -745 c 1,13,14
 27 -770 27 -770 -16 -799 c 0,15,16
 -75 -838 -75 -838 -135 -838 c 2,17,-1
 -575 -838 l 2,18,19
 -620 -838 -620 -838 -657 -825.5 c 128,-1,20
 -694 -813 -694 -813 -731 -788 c 1,21,22
 -799 -737 -799 -737 -799 -662 c 2,23,-1
 -799 -516 l 2,24,25
 -799 -444 -799 -444 -743.5 -399 c 128,-1,26
 -688 -354 -688 -354 -602 -354 c 2,27,-1
 -457 -354 l 1,28,-1
 -449 -346 l 1,29,-1
 -449 -299 l 1,30,-1
 -457 -291 l 1,31,-1
 -770 -291 l 1,32,-1
 -770 -94 l 1,33,-1
 -367 -94 l 2,34,35
 -306 -94 -306 -94 -268 -119 c 0,36,37
 -250 -129 -250 -129 -236 -154 c 1,38,39
 -177 -93 -177 -93 -78 -92 c 2,40,-1
 274 -92 l 2,41,42
 368 -92 368 -92 434 -139 c 128,-1,43
 500 -186 500 -186 500 -266 c 2,44,-1
 500 -393 l 1,45,-1
 254 -393 l 1,46,-1
 254 -293 l 2,47,48
 254 -270 254 -270 195 -270 c 2,49,-1
 -39 -270 l 2,50,51
 -90 -270 -90 -270 -131 -303 c 1,52,53
 -154 -317 -154 -317 -170 -336.5 c 128,-1,54
 -186 -356 -186 -356 -197 -381 c 1,55,-1
 -197 -446 l 2,56,57
 -197 -483 -197 -483 -245 -516 c 128,-1,58
 -293 -549 -293 -549 -352 -549 c 2,59,-1
 -514 -549 l 2,60,61
 -545 -549 -545 -549 -545 -563 c 2,62,-1
 -545 -614 l 1,63,-1
 -537 -625 l 1,64,-1
 -514 -635 l 1,65,-1
 -176 -635 l 2,66,67
 -137 -635 -137 -635 -107.5 -615.5 c 128,-1,68
 -78 -596 -78 -596 -78 -578 c 2,69,-1
 -78 -481 l 1,70,-1
 168 -481 l 1,71,-1
 168 -563 l 2,72,73
 168 -600 168 -600 193 -616 c 1,74,75
 230 -647 230 -647 260 -647 c 2,76,-1
 543 -647 l 2,77,78
 566 -647 566 -647 575 -631.5 c 128,-1,79
 584 -616 584 -616 585 -612 c 128,-1,80
 586 -608 586 -608 588 -606 c 1,81,-1
 588 -455 l 1,82,-1
 825 -455 l 1,83,-1
 821 -643 l 2,4,5
EndSplineSet
LCarets2: 1 0
EndChar

StartChar: ca.base
Encoding: 145 -1 139
Width: 1677
Flags: W
LayerCount: 2
Fore
SplineSet
2116 678 m 1,0,-1
 1913 678 l 1,1,2
 1942 641 1942 641 1942 594 c 2,3,-1
 1942 240 l 2,4,5
 1942 140 1942 140 1868 74 c 1,6,7
 1796 2 1796 2 1696 2 c 2,8,-1
 1272 4 l 2,9,10
 1206 4 1206 4 1155 37 c 0,11,12
 1130 53 1130 53 1114 78 c 1,13,14
 1098 53 1098 53 1067 37 c 1,15,16
 1010 0 1010 0 936 0 c 2,17,-1
 573 2 l 2,18,19
 464 2 464 2 397 76 c 1,20,21
 317 152 317 152 317 252 c 2,22,-1
 317 561 l 1,23,-1
 760 834 l 1,24,-1
 760 1094 l 2,25,26
 760 1125 760 1125 737.5 1143 c 128,-1,27
 715 1161 715 1161 676 1161 c 2,28,-1
 600 1161 l 1,29,-1
 598 1096 l 1,30,31
 600 1073 600 1073 618.5 1057.5 c 128,-1,32
 637 1042 637 1042 647 1042 c 2,33,-1
 715 1042 l 1,34,-1
 715 811 l 1,35,-1
 528 813 l 2,36,37
 442 813 442 813 379.5 874.5 c 128,-1,38
 317 936 317 936 317 1022 c 2,39,-1
 317 1393 l 1,40,-1
 793 1393 l 2,41,42
 895 1393 895 1393 966.5 1320 c 128,-1,43
 1038 1247 1038 1247 1038 1147 c 2,44,-1
 1038 702 l 1,45,-1
 598 414 l 1,46,-1
 596 319 l 1,47,48
 598 280 598 280 616.5 254.5 c 128,-1,49
 635 229 635 229 666 229 c 2,50,-1
 909 229 l 2,51,52
 946 229 946 229 969.5 248.5 c 128,-1,53
 993 268 993 268 993 291 c 2,54,-1
 993 442 l 1,55,-1
 1270 442 l 1,56,-1
 1270 317 l 2,57,58
 1270 280 1270 280 1288.5 254.5 c 128,-1,59
 1307 229 1307 229 1331 229 c 2,60,-1
 1577 229 l 2,61,62
 1616 229 1616 229 1639.5 248.5 c 128,-1,63
 1663 268 1663 268 1663 291 c 2,64,-1
 1663 578 l 2,65,66
 1663 623 1663 623 1632 645 c 1,67,68
 1607 674 1607 674 1569 674 c 2,69,-1
 1257 674 l 1,70,-1
 1257 905 l 1,71,-1
 1618 905 l 1,72,-1
 1618 1159 l 1,73,-1
 1257 1159 l 1,74,-1
 1257 1391 l 1,75,-1
 1755 1391 l 1,76,-1
 1892 1188 l 1,77,-1
 1894 905 l 1,78,-1
 2118 905 l 1,79,-1
 2116 678 l 1,0,-1
EndSplineSet
EndChar

StartChar: ca.imathra
Encoding: 146 -1 140
Width: 2039
Flags: W
LayerCount: 2
Fore
SplineSet
2126 682 m 1,0,-1
 1923 682 l 1,1,2
 1952 645 1952 645 1952 594 c 2,3,-1
 1952 242 l 2,4,5
 1952 148 1952 148 1896.5 75 c 128,-1,6
 1841 2 1841 2 1765 2 c 2,7,-1
 1282 4 l 2,8,9
 1221 4 1221 4 1174 41 c 1,10,-1
 1130 80 l 1,11,12
 1116 62 1116 62 1083 43 c 0,13,14
 1022 4 1022 4 954 4 c 2,15,-1
 559 4 l 2,16,17
 469 4 469 4 402.5 63.5 c 128,-1,18
 336 123 336 123 336 203 c 2,19,-1
 336 598 l 1,20,-1
 776 844 l 1,21,-1
 776 1104 l 2,22,23
 776 1135 776 1135 750.5 1153 c 128,-1,24
 725 1171 725 1171 692 1171 c 2,25,-1
 616 1171 l 1,26,-1
 616 1104 l 2,27,28
 616 1081 616 1081 627 1067 c 1,29,30
 650 1051 650 1051 664 1051 c 2,31,-1
 760 1051 l 1,32,-1
 760 819 l 1,33,-1
 545 819 l 2,34,35
 459 819 459 819 401 879 c 1,36,37
 335 932 335 932 336 1006 c 2,38,-1
 336 1403 l 1,39,-1
 827 1403 l 2,40,41
 927 1403 927 1403 990 1329 c 128,-1,42
 1053 1255 1053 1255 1053 1167 c 2,43,-1
 1053 709 l 1,44,-1
 612 449 l 1,45,-1
 610 301 l 1,46,47
 614 272 614 272 632.5 254 c 128,-1,48
 651 236 651 236 676 236 c 2,49,-1
 893 236 l 2,50,51
 938 236 938 236 972 255 c 128,-1,52
 1006 274 1006 274 1006 297 c 2,53,-1
 1006 506 l 1,54,-1
 1282 506 l 1,55,-1
 1282 324 l 2,56,57
 1282 287 1282 287 1303.5 261.5 c 128,-1,58
 1325 236 1325 236 1343 236 c 2,59,-1
 1620 236 l 2,60,61
 1643 236 1643 236 1657 254 c 1,62,63
 1675 272 1675 272 1675 295 c 2,64,-1
 1675 584 l 2,65,66
 1675 615 1675 615 1653 643 c 1,67,68
 1622 674 1622 674 1585 682 c 1,69,-1
 1266 680 l 1,70,-1
 1266 911 l 1,71,-1
 1599 911 l 1,72,73
 1675 948 1675 948 1675 1001 c 2,74,-1
 1675 1354 l 2,75,76
 1675 1358 1675 1358 1656.5 1357 c 128,-1,77
 1638 1356 1638 1356 1620 1356 c 2,78,-1
 1534 1356 l 1,79,80
 1542 1338 1542 1338 1542 1321 c 2,81,-1
 1542 1274 l 1,82,83
 1546 1258 1546 1258 1550 1255 c 0,84,85
 1573 1241 1573 1241 1583 1241 c 2,86,-1
 1686 1241 l 1,87,-1
 1686 1010 l 1,88,-1
 1454 1010 l 2,89,90
 1380 1010 1380 1010 1321 1065 c 128,-1,91
 1262 1120 1262 1120 1262 1194 c 2,92,-1
 1262 1411 l 2,93,94
 1262 1493 1262 1493 1317 1543 c 128,-1,95
 1372 1593 1372 1593 1454 1593 c 2,96,-1
 1731 1593 l 2,97,98
 1825 1593 1825 1593 1882 1528 c 1,99,100
 1948 1467 1948 1467 1948 1372 c 2,101,-1
 1948 1030 l 2,102,103
 1948 969 1948 969 1915 918 c 1,104,-1
 2124 918 l 1,105,-1
 2126 682 l 1,0,-1
EndSplineSet
LCarets2: 1 0
EndChar

StartChar: ca.sub
Encoding: 147 -1 141
Width: 401
Flags: W
AnchorPoint: "Sub" -795 438 mark 0
AnchorPoint: "Sub" 725 -821 basemark 0
LayerCount: 2
Fore
SplineSet
821 -324 m 1,0,-1
 692 -324 l 1,1,2
 731 -371 731 -371 731 -442 c 2,3,-1
 731 -631 l 2,4,5
 731 -713 731 -713 671.5 -771 c 128,-1,6
 612 -829 612 -829 537 -829 c 2,7,-1
 242 -829 l 2,8,9
 154 -829 154 -829 78 -784 c 1,10,11
 33 -753 33 -753 8 -709 c 1,12,13
 -21 -760 -21 -760 -66 -788 c 1,14,15
 -99 -804 -99 -804 -141.5 -816.5 c 128,-1,16
 -184 -829 -184 -829 -221 -829 c 2,17,-1
 -537 -829 l 1,18,19
 -603 -833 -603 -833 -639.5 -824 c 128,-1,20
 -676 -815 -676 -815 -727 -793 c 1,21,22
 -760 -775 -760 -775 -778.5 -744 c 128,-1,23
 -797 -713 -797 -713 -797 -682 c 2,24,-1
 -797 -506 l 2,25,26
 -797 -432 -797 -432 -745 -385 c 1,27,28
 -684 -342 -684 -342 -618 -342 c 2,29,-1
 -473 -342 l 2,30,31
 -455 -342 -455 -342 -432 -328 c 1,32,-1
 -422 -317 l 1,33,-1
 -422 -281 l 1,34,35
 -445 -277 -445 -277 -459 -276 c 2,36,-1
 -772 -276 l 1,37,-1
 -772 -76 l 1,38,-1
 -391 -76 l 2,39,40
 -305 -76 -305 -76 -238 -106 c 1,41,42
 -207 -131 -207 -131 -188.5 -156.5 c 128,-1,43
 -170 -182 -170 -182 -170 -211 c 2,44,-1
 -170 -387 l 2,45,46
 -170 -455 -170 -455 -236 -514 c 1,47,48
 -304 -567 -304 -567 -391 -567 c 2,49,-1
 -518 -567 l 1,50,-1
 -543 -571 l 1,51,-1
 -547 -582 l 1,52,-1
 -547 -610 l 1,53,-1
 -539 -618 l 1,54,-1
 -516 -629 l 1,55,-1
 -248 -629 l 2,56,57
 -197 -629 -197 -629 -154 -592 c 128,-1,58
 -111 -555 -111 -555 -111 -502 c 2,59,-1
 -111 -387 l 1,60,-1
 137 -387 l 1,61,-1
 137 -518 l 2,62,63
 137 -549 137 -549 175 -589 c 128,-1,64
 213 -629 213 -629 246 -629 c 2,65,-1
 434 -629 l 2,66,67
 442 -629 442 -629 471 -614 c 1,68,69
 487 -598 487 -598 487 -569 c 2,70,-1
 487 -408 l 2,71,72
 487 -375 487 -375 461.5 -349.5 c 128,-1,73
 436 -324 436 -324 391 -324 c 2,74,-1
 109 -324 l 1,75,-1
 109 -121 l 1,76,-1
 293 -121 l 1,77,78
 426 2 426 2 426 90 c 2,79,-1
 426 473 l 1,80,-1
 680 473 l 1,81,-1
 678 90 l 2,82,83
 678 -19 678 -19 584 -121 c 1,84,-1
 823 -121 l 1,85,-1
 821 -324 l 1,0,-1
EndSplineSet
LCarets2: 1 0
EndChar

StartChar: cha.base
Encoding: 149 -1 143
Width: 1492
Flags: W
LayerCount: 2
Fore
SplineSet
1929 248 m 2,0,1
 1929 144 1929 144 1853 70 c 1,2,3
 1779 -6 1779 -6 1675 -6 c 2,4,-1
 1380 -6 l 2,5,6
 1304 -6 1304 -6 1243 39 c 1,7,8
 1206 62 1206 62 1178 98 c 1,9,10
 1160 65 1160 65 1120 41 c 1,11,12
 1059 -4 1059 -4 993 -4 c 2,13,-1
 674 -2 l 2,14,15
 570 -2 570 -2 486.5 63.5 c 128,-1,16
 403 129 403 129 403 233 c 2,17,-1
 403 1122 l 2,18,19
 403 1202 403 1202 440 1268.5 c 128,-1,20
 477 1335 477 1335 539 1360 c 1,21,22
 596 1397 596 1397 672 1397 c 2,23,-1
 1116 1397 l 1,24,-1
 1116 1022 l 2,25,26
 1116 922 1116 922 1053.5 852 c 128,-1,27
 991 782 991 782 909 782 c 2,28,-1
 723 782 l 1,29,-1
 723 1016 l 1,30,-1
 799 1016 l 1,31,32
 815 1020 815 1020 826.5 1035.5 c 128,-1,33
 838 1051 838 1051 838 1075 c 2,34,-1
 838 1161 l 1,35,-1
 758 1161 l 2,36,37
 719 1161 719 1161 700 1145 c 1,38,39
 682 1122 682 1122 682 1094 c 2,40,-1
 682 301 l 2,41,42
 682 270 682 270 701.5 246.5 c 128,-1,43
 721 223 721 223 743 223 c 2,44,-1
 938 223 l 2,45,46
 961 223 961 223 977 230.5 c 128,-1,47
 993 238 993 238 1018 254 c 1,48,49
 1047 293 1047 293 1047 309 c 2,50,-1
 1047 467 l 1,51,-1
 1321 467 l 1,52,-1
 1321 309 l 2,53,54
 1321 284 1321 284 1346.5 253.5 c 128,-1,55
 1372 223 1372 223 1415 223 c 2,56,-1
 1589 223 l 2,57,58
 1618 223 1618 223 1639.5 252 c 128,-1,59
 1661 281 1661 281 1661 311 c 2,60,-1
 1661 1079 l 2,61,62
 1661 1138 1661 1138 1561 1161 c 1,63,-1
 1249 1159 l 1,64,-1
 1249 1391 l 1,65,-1
 1589 1391 l 1,66,67
 1736 1375 1736 1375 1837 1288 c 1,68,69
 1937 1194 1937 1194 1937 1079 c 2,70,-1
 1929 248 l 2,0,1
1319 -336 m 1,71,-1
 1044 -336 l 1,72,-1
 1044 -25 l 1,73,-1
 1319 -25 l 1,74,-1
 1319 -336 l 1,71,-1
EndSplineSet
EndChar

StartChar: cha.imathra
Encoding: 150 -1 144
Width: 1845
Flags: W
LayerCount: 2
Fore
SplineSet
1929 252 m 2,0,1
 1929 148 1929 148 1862.5 71 c 128,-1,2
 1796 -6 1796 -6 1700 -6 c 2,3,-1
 1380 -6 l 2,4,5
 1304 -6 1304 -6 1243 39 c 1,6,7
 1200 64 1200 64 1178 102 c 1,8,9
 1168 79 1168 79 1156.5 68 c 128,-1,10
 1145 57 1145 57 1120 35 c 1,11,12
 1063 -6 1063 -6 991 -6 c 2,13,-1
 672 -4 l 2,14,15
 568 -4 568 -4 484.5 64.5 c 128,-1,16
 401 133 401 133 401 236 c 2,17,-1
 401 1126 l 2,18,19
 401 1200 401 1200 434 1266 c 0,20,21
 452 1299 452 1299 476 1322.5 c 128,-1,22
 500 1346 500 1346 532 1362 c 1,23,24
 589 1399 589 1399 666 1399 c 2,25,-1
 1110 1399 l 1,26,-1
 1110 1024 l 2,27,28
 1110 922 1110 922 1047.5 852 c 128,-1,29
 985 782 985 782 903 782 c 2,30,-1
 717 782 l 1,31,-1
 717 1020 l 1,32,-1
 793 1020 l 1,33,-1
 821 1028 l 1,34,35
 825 1032 825 1032 826 1036 c 128,-1,36
 827 1040 827 1040 829 1049 c 1,37,-1
 829 1163 l 1,38,-1
 750 1163 l 2,39,40
 713 1163 713 1163 690 1149 c 1,41,42
 672 1126 672 1126 672 1096 c 2,43,-1
 672 303 l 2,44,45
 672 266 672 266 697.5 244.5 c 128,-1,46
 723 223 723 223 752 223 c 2,47,-1
 928 223 l 2,48,49
 946 223 946 223 962.5 230.5 c 128,-1,50
 979 238 979 238 1008 252 c 1,51,52
 1037 291 1037 291 1036 309 c 2,53,-1
 1036 465 l 1,54,-1
 1311 465 l 1,55,-1
 1311 309 l 2,56,57
 1311 280 1311 280 1337.5 250.5 c 128,-1,58
 1364 221 1364 221 1403 221 c 2,59,-1
 1577 221 l 2,60,61
 1606 221 1606 221 1627.5 247.5 c 128,-1,62
 1649 274 1649 274 1649 307 c 2,63,-1
 1649 1313 l 2,64,65
 1649 1338 1649 1338 1632.5 1359 c 128,-1,66
 1616 1380 1616 1380 1599 1380 c 2,67,-1
 1511 1380 l 2,68,69
 1486 1380 1486 1380 1473 1370 c 1,70,71
 1463 1354 1463 1354 1462 1339 c 2,72,-1
 1462 1257 l 2,73,74
 1462 1241 1462 1241 1473 1225 c 1,75,76
 1496 1209 1496 1209 1511 1208 c 2,77,-1
 1602 1208 l 1,78,-1
 1602 977 l 1,79,-1
 1436 979 l 2,80,81
 1332 979 1332 979 1257 1038 c 1,82,83
 1181 1106 1181 1106 1182 1202 c 2,84,-1
 1182 1393 l 2,85,86
 1182 1489 1182 1489 1247 1546 c 1,87,88
 1313 1612 1313 1612 1407 1612 c 2,89,-1
 1690 1612 l 2,90,91
 1756 1612 1756 1612 1812 1575 c 1,92,93
 1843 1550 1843 1550 1862.5 1527.5 c 128,-1,94
 1882 1505 1882 1505 1896.5 1474.5 c 128,-1,95
 1911 1444 1911 1444 1919 1411 c 128,-1,96
 1927 1378 1927 1378 1927 1341 c 2,97,-1
 1929 252 l 2,0,1
1309 -340 m 1,98,-1
 1034 -340 l 1,99,-1
 1034 -27 l 1,100,-1
 1309 -27 l 1,101,-1
 1309 -340 l 1,98,-1
EndSplineSet
LCarets2: 1 0
EndChar

StartChar: cha.sub
Encoding: 151 -1 145
Width: 319
Flags: W
AnchorPoint: "Sub" -635 299 mark 0
AnchorPoint: "Sub" 666 -762 basemark 0
LayerCount: 2
Fore
SplineSet
682 -475 m 2,0,1
 682 -600 682 -600 626.5 -688 c 128,-1,2
 571 -776 571 -776 496 -776 c 2,3,-1
 240 -776 l 2,4,5
 158 -776 158 -776 102 -733 c 1,6,7
 61 -708 61 -708 43 -672 c 1,8,9
 25 -705 25 -705 -12 -733 c 0,10,11
 -67 -776 -67 -776 -139 -776 c 2,12,-1
 -434 -774 l 1,13,-1
 -444 -772 l 1,14,15
 -526 -772 -526 -772 -588 -705 c 1,16,17
 -647 -631 -647 -631 -647 -551 c 2,18,-1
 -647 -334 l 2,19,20
 -647 -244 -647 -244 -588 -176 c 1,21,22
 -527 -115 -527 -115 -426 -115 c 2,23,-1
 -158 -115 l 1,24,-1
 -158 -344 l 1,25,-1
 -369 -344 l 1,26,27
 -392 -348 -392 -348 -396.5 -356.5 c 128,-1,28
 -401 -365 -401 -365 -401 -393 c 2,29,-1
 -401 -510 l 2,30,31
 -401 -539 -401 -539 -389 -548 c 128,-1,32
 -377 -557 -377 -557 -369 -557 c 2,33,-1
 -160 -557 l 2,34,35
 -127 -557 -127 -557 -109 -528 c 1,36,37
 -80 -497 -80 -497 -80 -444 c 2,38,-1
 -80 -358 l 1,39,-1
 154 -358 l 1,40,-1
 154 -455 l 2,41,42
 154 -502 154 -502 177.5 -528.5 c 128,-1,43
 201 -555 201 -555 233 -555 c 2,44,-1
 379 -555 l 2,45,46
 410 -555 410 -555 438 -532 c 1,47,48
 463 -501 463 -501 463 -471 c 2,49,-1
 463 -51 l 2,50,51
 463 49 463 49 407.5 118.5 c 128,-1,52
 352 188 352 188 238 211 c 1,53,-1
 324 412 l 1,54,55
 461 381 461 381 520 322 c 1,56,57
 602 256 602 256 645 153.5 c 128,-1,58
 688 51 688 51 688 -53 c 2,59,-1
 682 -475 l 2,0,1
162 -903 m 1,60,-1
 -86 -903 l 1,61,-1
 -86 -784 l 1,62,-1
 41 -639 l 1,63,-1
 158 -784 l 1,64,-1
 162 -903 l 1,60,-1
EndSplineSet
LCarets2: 1 0
EndChar

StartChar: ja
Encoding: 152 3228 146
Width: 1900
Flags: W
LayerCount: 2
Fore
SplineSet
1989 553 m 1,0,-1
 1987 238 l 2,1,2
 1987 179 1987 179 1956 121 c 1,3,4
 1946 96 1946 96 1920 73.5 c 128,-1,5
 1894 51 1894 51 1876 37 c 1,6,7
 1845 25 1845 25 1818.5 15.5 c 128,-1,8
 1792 6 1792 6 1763 6 c 2,9,-1
 1315 6 l 2,10,11
 1256 6 1256 6 1198 49 c 1,12,13
 1169 67 1169 67 1153 96 c 1,14,15
 1143 71 1143 71 1114 53 c 1,16,17
 1071 8 1071 8 1006 8 c 2,18,-1
 553 10 l 2,19,20
 463 10 463 10 381 70 c 1,21,22
 309 131 309 131 309 217 c 2,23,-1
 309 571 l 1,24,-1
 778 805 l 1,25,26
 837 852 837 852 838 895 c 2,27,-1
 838 1083 l 2,28,29
 838 1116 838 1116 807 1141.5 c 128,-1,30
 776 1167 776 1167 731 1167 c 2,31,-1
 621 1167 l 1,32,-1
 621 1071 l 2,33,34
 621 1063 621 1063 686 1063 c 2,35,-1
 766 1063 l 1,36,-1
 766 815 l 1,37,-1
 569 817 l 2,38,39
 473 817 473 817 412 879 c 1,40,41
 346 936 346 936 346 1024 c 2,42,-1
 346 1395 l 1,43,-1
 823 1395 l 2,44,45
 899 1395 899 1395 967 1372 c 1,46,47
 1043 1335 1043 1335 1071 1292 c 1,48,49
 1116 1247 1116 1247 1116 1188 c 1,50,51
 1188 1100 1188 1100 1260 1100 c 2,52,-1
 1554 1100 l 2,53,54
 1564 1100 1564 1100 1572.5 1105 c 128,-1,55
 1581 1110 1581 1110 1588 1115 c 128,-1,56
 1595 1120 1595 1120 1596 1124 c 128,-1,57
 1597 1128 1597 1128 1599 1130 c 1,58,-1
 1599 1176 l 1,59,60
 1585 1190 1585 1190 1577 1190 c 2,61,-1
 1511 1190 l 1,62,-1
 1511 1421 l 1,63,-1
 1636 1421 l 2,64,65
 1702 1421 1702 1421 1759.5 1392.5 c 128,-1,66
 1817 1364 1817 1364 1839 1317 c 1,67,68
 1876 1270 1876 1270 1876 1204 c 2,69,-1
 1876 1081 l 2,70,71
 1876 1040 1876 1040 1860.5 1004.5 c 128,-1,72
 1845 969 1845 969 1812 936 c 1,73,74
 1744 875 1744 875 1651 874 c 2,75,-1
 1288 874 l 2,76,77
 1206 874 1206 874 1118 932 c 1,78,-1
 1118 829 l 2,79,80
 1118 778 1118 778 1092.5 733 c 128,-1,81
 1067 688 1067 688 1022 651 c 1,82,-1
 592 440 l 1,83,-1
 592 322 l 2,84,85
 592 285 592 285 618.5 264.5 c 128,-1,86
 645 244 645 244 674 244 c 2,87,-1
 936 244 l 2,88,89
 959 244 959 244 987.5 269.5 c 128,-1,90
 1016 295 1016 295 1016 332 c 2,91,-1
 1016 434 l 1,92,-1
 1292 434 l 1,93,-1
 1292 346 l 2,94,95
 1292 315 1292 315 1323 279 c 1,96,97
 1362 246 1362 246 1401 246 c 2,98,-1
 1618 246 l 2,99,100
 1657 246 1657 246 1679 274 c 1,101,102
 1712 307 1712 307 1712 346 c 2,103,-1
 1712 522 l 2,104,105
 1712 545 1712 545 1689.5 561.5 c 128,-1,106
 1667 578 1667 578 1634 578 c 2,107,-1
 1481 578 l 1,108,-1
 1481 809 l 1,109,-1
 1784 809 l 2,110,111
 1868 809 1868 809 1930.5 733 c 128,-1,112
 1993 657 1993 657 1989 553 c 1,0,-1
EndSplineSet
LCarets2: 1 0
EndChar

StartChar: ja.base
Encoding: 153 -1 147
Width: 1548
Flags: W
LayerCount: 2
Fore
SplineSet
1991 266 m 2,0,1
 1991 166 1991 166 1915 83 c 128,-1,2
 1839 0 1839 0 1735 0 c 2,3,-1
 1305 2 l 2,4,5
 1248 2 1248 2 1196 41 c 0,6,7
 1165 66 1165 66 1151 90 c 1,8,9
 1135 61 1135 61 1104 39 c 0,10,11
 1049 -4 1049 -4 975 -4 c 2,12,-1
 549 -2 l 2,13,14
 455 -2 455 -2 382 59.5 c 128,-1,15
 309 121 309 121 309 207 c 2,16,-1
 309 561 l 1,17,-1
 739 793 l 1,18,19
 839 875 839 875 840 936 c 2,20,-1
 840 1069 l 2,21,22
 840 1102 840 1102 815 1133 c 1,23,24
 792 1151 792 1151 756 1151 c 2,25,-1
 623 1151 l 1,26,-1
 623 1108 l 2,27,28
 623 1085 623 1085 633 1067 c 1,29,30
 643 1059 643 1059 647 1055 c 128,-1,31
 651 1051 651 1051 655 1051 c 2,32,-1
 735 1051 l 1,33,-1
 735 803 l 1,34,-1
 567 805 l 2,35,36
 479 805 479 805 410.5 864.5 c 128,-1,37
 342 924 342 924 342 1012 c 2,38,-1
 342 1382 l 1,39,-1
 815 1382 l 2,40,41
 891 1382 891 1382 959.5 1352.5 c 128,-1,42
 1028 1323 1028 1323 1073 1262 c 1,43,44
 1116 1211 1116 1211 1116 1145 c 1,45,46
 1177 1088 1177 1088 1221 1087 c 2,47,-1
 1503 1087 l 2,48,49
 1507 1087 1507 1087 1523.5 1101.5 c 128,-1,50
 1540 1116 1540 1116 1540 1139 c 2,51,-1
 1540 1153 l 1,52,-1
 1217 1153 l 1,53,-1
 1217 1384 l 1,54,-1
 1565 1384 l 2,55,56
 1676 1384 1676 1384 1745.5 1325 c 128,-1,57
 1815 1266 1815 1266 1815 1178 c 2,58,-1
 1815 1069 l 2,59,60
 1815 987 1815 987 1745 924.5 c 128,-1,61
 1675 862 1675 862 1585 862 c 2,62,-1
 1276 862 l 2,63,64
 1194 862 1194 862 1112 920 c 1,65,-1
 1112 846 l 2,66,67
 1112 770 1112 770 983 668 c 1,68,-1
 586 428 l 1,69,-1
 586 309 l 2,70,71
 586 280 586 280 605.5 254.5 c 128,-1,72
 625 229 625 229 662 229 c 2,73,-1
 924 229 l 2,74,75
 953 229 953 229 983 254 c 1,76,77
 1008 285 1008 285 1008 315 c 2,78,-1
 1008 416 l 1,79,-1
 1284 416 l 1,80,-1
 1284 330 l 2,81,82
 1284 287 1284 287 1307.5 257 c 128,-1,83
 1331 227 1331 227 1360 227 c 2,84,-1
 1612 227 l 2,85,86
 1649 227 1649 227 1679 252 c 1,87,88
 1708 285 1708 285 1708 313 c 2,89,-1
 1708 518 l 2,90,91
 1708 532 1708 532 1686.5 546.5 c 128,-1,92
 1665 561 1665 561 1622 561 c 2,93,-1
 1475 561 l 1,94,-1
 1475 791 l 1,95,-1
 1757 791 l 2,96,97
 1859 791 1859 791 1919 729 c 1,98,99
 1985 672 1985 672 1985 575 c 2,100,-1
 1991 266 l 2,0,1
EndSplineSet
EndChar

StartChar: ja.imathra
Encoding: 154 -1 148
Width: 1923
Flags: W
LayerCount: 2
Fore
SplineSet
2009 240 m 2,0,1
 2009 140 2009 140 1932 70 c 128,-1,2
 1855 0 1855 0 1753 0 c 2,3,-1
 1294 2 l 2,4,5
 1228 2 1228 2 1186 41 c 1,6,7
 1161 55 1161 55 1143 88 c 1,8,9
 1127 57 1127 57 1104 41 c 1,10,11
 1057 -2 1057 -2 995 -2 c 2,12,-1
 569 -2 l 2,13,14
 518 -2 518 -2 470 16.5 c 128,-1,15
 422 35 422 35 383 68 c 0,16,17
 307 136 307 136 307 236 c 2,18,-1
 307 535 l 1,19,-1
 793 821 l 1,20,21
 832 864 832 864 831 911 c 2,22,-1
 831 1094 l 2,23,24
 831 1123 831 1123 815 1145 c 1,25,26
 792 1161 792 1161 768 1161 c 2,27,-1
 614 1161 l 1,28,-1
 612 1096 l 1,29,30
 620 1071 620 1071 624.5 1067 c 128,-1,31
 629 1063 629 1063 634 1061 c 128,-1,32
 639 1059 639 1059 649 1059 c 2,33,-1
 729 1059 l 1,34,-1
 729 811 l 1,35,-1
 561 813 l 2,36,37
 467 813 467 813 406 874 c 1,38,39
 338 931 338 931 338 1020 c 2,40,-1
 338 1395 l 1,41,-1
 809 1395 l 2,42,43
 934 1395 934 1395 1018 1343.5 c 128,-1,44
 1102 1292 1102 1292 1110 1219 c 1,45,46
 1219 1168 1219 1168 1323 1167 c 2,47,-1
 1391 1167 l 1,48,-1
 1391 1405 l 2,49,50
 1391 1495 1391 1495 1452 1554 c 0,51,52
 1481 1583 1481 1583 1525 1597.5 c 128,-1,53
 1569 1612 1569 1612 1612 1612 c 2,54,-1
 1757 1612 l 2,55,56
 1857 1612 1857 1612 1922 1542.5 c 128,-1,57
 1987 1473 1987 1473 1987 1376 c 2,58,-1
 1987 1159 l 2,59,60
 1987 1059 1987 1059 1907 993 c 1,61,62
 1839 919 1839 919 1731 920 c 2,63,-1
 1358 920 l 2,64,65
 1227 920 1227 920 1108 965 c 1,66,-1
 1108 834 l 2,67,68
 1108 740 1108 740 1040 696 c 1,69,-1
 582 430 l 1,70,-1
 582 291 l 2,71,72
 582 268 582 268 600 252 c 1,73,74
 614 229 614 229 645 229 c 2,75,-1
 920 229 l 2,76,77
 936 229 936 229 950.5 237.5 c 128,-1,78
 965 246 965 246 984.5 259 c 128,-1,79
 1004 272 1004 272 1004 305 c 2,80,-1
 1004 416 l 1,81,-1
 1280 416 l 1,82,-1
 1280 330 l 2,83,84
 1280 283 1280 283 1305.5 255 c 128,-1,85
 1331 227 1331 227 1354 227 c 2,86,-1
 1649 227 l 2,87,88
 1674 227 1674 227 1706 256 c 1,89,90
 1731 287 1731 287 1731 315 c 2,91,-1
 1731 496 l 2,92,93
 1731 527 1731 527 1702 546 c 128,-1,94
 1673 565 1673 565 1634 565 c 2,95,-1
 1468 565 l 1,96,-1
 1468 797 l 1,97,-1
 1751 797 l 2,98,99
 1827 797 1827 797 1870 774.5 c 128,-1,100
 1913 752 1913 752 1931.5 736.5 c 128,-1,101
 1950 721 1950 721 1966 690 c 1,102,103
 2005 639 2005 639 2005 580 c 2,104,-1
 2009 240 l 2,0,1
1729 1219 m 2,105,-1
 1729 1352 l 2,106,107
 1729 1383 1729 1383 1700 1382 c 2,108,-1
 1663 1382 l 1,109,-1
 1634 1374 l 2,110,111
 1630 1372 1630 1372 1628 1354 c 1,112,-1
 1628 1153 l 1,113,-1
 1694 1153 l 2,114,115
 1702 1153 1702 1153 1718 1169 c 1,116,117
 1729 1188 1729 1188 1729 1219 c 2,105,-1
EndSplineSet
LCarets2: 1 0
EndChar

StartChar: ja.sub
Encoding: 155 -1 149
Width: 387
Flags: W
AnchorPoint: "Sub" -729 66 mark 0
AnchorPoint: "Sub" 774 -840 basemark 0
LayerCount: 2
Fore
SplineSet
788 -246 m 1,0,1
 788 -328 788 -328 729 -379 c 1,2,3
 670 -438 670 -438 590 -438 c 2,4,-1
 150 -438 l 2,5,6
 -10 -438 -10 -438 -201 -276 c 1,7,-1
 -96 -131 l 1,8,9
 119 -242 119 -242 131 -242 c 2,10,-1
 483 -242 l 2,11,12
 501 -242 501 -242 524 -225 c 1,13,14
 532 -223 532 -223 534.5 -216 c 128,-1,15
 537 -209 537 -209 537 -207 c 2,16,-1
 537 -131 l 2,17,18
 537 -106 537 -106 465 -55 c 1,19,-1
 612 82 l 1,20,21
 784 -29 784 -29 784 -131 c 1,22,-1
 788 -246 l 1,0,1
807 -618 m 1,23,24
 807 -706 807 -706 750 -768 c 1,25,26
 699 -840 699 -840 608 -840 c 2,27,-1
 256 -840 l 2,28,29
 186 -840 186 -840 115 -797 c 1,30,31
 92 -781 92 -781 77.5 -766.5 c 128,-1,32
 63 -752 63 -752 53 -733 c 1,33,34
 -21 -842 -21 -842 -143 -842 c 2,35,-1
 -555 -842 l 2,36,37
 -643 -842 -643 -842 -717 -795 c 0,38,39
 -746 -779 -746 -779 -760 -756 c 0,40,41
 -785 -719 -785 -719 -784 -674 c 2,42,-1
 -784 -535 l 2,43,44
 -784 -453 -784 -453 -733 -410 c 1,45,46
 -686 -359 -686 -359 -606 -358 c 2,47,-1
 -461 -358 l 2,48,49
 -447 -358 -447 -358 -436 -348 c 1,50,-1
 -426 -334 l 1,51,-1
 -426 -301 l 1,52,-1
 -442 -297 l 1,53,-1
 -758 -297 l 1,54,-1
 -758 -80 l 1,55,-1
 -385 -80 l 2,56,57
 -303 -80 -303 -80 -238 -125 c 1,58,59
 -177 -182 -177 -182 -176 -248 c 2,60,-1
 -176 -416 l 2,61,62
 -176 -473 -176 -473 -232.5 -517 c 128,-1,63
 -289 -561 -289 -561 -356 -561 c 2,64,-1
 -502 -561 l 2,65,66
 -539 -561 -539 -561 -539 -571 c 2,67,-1
 -539 -625 l 1,68,-1
 -530 -635 l 2,69,70
 -520 -645 -520 -645 -504 -645 c 2,71,-1
 -184 -645 l 2,72,73
 -153 -645 -153 -645 -113 -614 c 1,74,75
 -80 -583 -80 -583 -80 -545 c 2,76,-1
 -80 -463 l 1,77,-1
 172 -463 l 1,78,-1
 172 -545 l 2,79,80
 172 -584 172 -584 209 -614.5 c 128,-1,81
 246 -645 246 -645 283 -645 c 2,82,-1
 520 -645 l 1,83,84
 536 -635 536 -635 541.5 -633 c 128,-1,85
 547 -631 547 -631 551 -616 c 1,86,-1
 551 -463 l 1,87,-1
 799 -463 l 1,88,-1
 807 -618 l 1,23,24
EndSplineSet
LCarets2: 1 0
EndChar

StartChar: jha.sub
Encoding: 160 -1 154
Width: 423
Flags: W
AnchorPoint: "Sub" -836 -72 mark 0
AnchorPoint: "Sub" 866 -762 basemark 0
LayerCount: 2
Fore
SplineSet
879 -535 m 2,0,1
 879 -639 879 -639 803 -707 c 1,2,3
 731 -781 731 -781 623 -780 c 2,4,-1
 420 -780 l 2,5,6
 352 -780 352 -780 309 -727 c 1,7,8
 256 -780 256 -780 166 -780 c 2,9,-1
 -10 -780 l 2,10,11
 -76 -780 -76 -780 -127 -737 c 1,12,13
 -188 -780 -188 -780 -262 -780 c 2,14,-1
 -582 -780 l 2,15,16
 -701 -780 -701 -780 -774 -707 c 1,17,18
 -850 -639 -850 -639 -850 -535 c 2,19,-1
 -850 -289 l 2,20,21
 -850 -193 -850 -193 -768 -127 c 1,22,23
 -725 -96 -725 -96 -677 -79.5 c 128,-1,24
 -629 -63 -629 -63 -569 -63 c 2,25,-1
 -303 -63 l 2,26,27
 -188 -63 -188 -63 -104 -135 c 128,-1,28
 -20 -207 -20 -207 -20 -303 c 2,29,-1
 -20 -528 l 2,30,31
 -20 -551 -20 -551 -2 -567 c 1,32,33
 31 -585 31 -585 45 -586 c 2,34,-1
 131 -586 l 2,35,36
 139 -586 139 -586 158.5 -571.5 c 128,-1,37
 178 -557 178 -557 178 -535 c 2,38,-1
 178 -326 l 2,39,40
 178 -295 178 -295 147.5 -264 c 128,-1,41
 117 -233 117 -233 14 -209 c 1,42,-1
 186 -61 l 1,43,44
 299 -92 299 -92 365 -162 c 1,45,46
 431 -248 431 -248 430 -315 c 2,47,-1
 430 -553 l 2,48,49
 430 -567 430 -567 438 -575 c 1,50,-1
 463 -586 l 1,51,-1
 567 -586 l 2,52,53
 590 -586 590 -586 613.5 -567.5 c 128,-1,54
 637 -549 637 -549 637 -526 c 2,55,-1
 637 -344 l 1,56,57
 635 -307 635 -307 595 -267 c 128,-1,58
 555 -227 555 -227 436 -197 c 1,59,-1
 602 -59 l 1,60,61
 668 -75 668 -75 716 -101 c 128,-1,62
 764 -127 764 -127 803 -164 c 0,63,64
 879 -232 879 -232 879 -313 c 2,65,-1
 879 -535 l 2,0,1
430 -838 m 1,66,-1
 178 -838 l 1,67,-1
 178 -776 l 1,68,-1
 309 -717 l 1,69,-1
 428 -776 l 1,70,-1
 430 -838 l 1,66,-1
-274 -514 m 2,71,-1
 -274 -342 l 2,72,73
 -274 -309 -274 -309 -307 -285 c 1,74,75
 -330 -262 -330 -262 -369 -262 c 2,76,-1
 -535 -262 l 2,77,78
 -572 -262 -572 -262 -588 -281 c 1,79,80
 -611 -295 -611 -295 -610 -328 c 2,81,-1
 -610 -514 l 2,82,83
 -610 -541 -610 -541 -579.5 -563.5 c 128,-1,84
 -549 -586 -549 -586 -518 -586 c 2,85,-1
 -358 -586 l 2,86,87
 -335 -586 -335 -586 -304.5 -563.5 c 128,-1,88
 -274 -541 -274 -541 -274 -514 c 2,71,-1
EndSplineSet
LCarets2: 1 0
EndChar

StartChar: jha.part
Encoding: 161 -1 155
Width: 882
Flags: W
LayerCount: 2
Fore
SplineSet
965 274 m 2,0,1
 965 221 965 221 946.5 174 c 128,-1,2
 928 127 928 127 891 80 c 1,3,4
 809 -6 809 -6 707 -6 c 2,5,-1
 354 -6 l 2,6,7
 180 -6 180 -6 14 217 c 1,8,-1
 14 535 l 1,9,-1
 53 543 l 1,10,11
 119 404 119 404 231.5 315.5 c 128,-1,12
 344 227 344 227 438 227 c 2,13,-1
 567 227 l 2,14,15
 620 227 620 227 645 260 c 1,16,17
 682 297 682 297 682 342 c 2,18,-1
 682 1069 l 2,19,20
 682 1087 682 1087 675 1101.5 c 128,-1,21
 668 1116 668 1116 651 1135 c 0,22,23
 626 1164 626 1164 588 1163 c 2,24,-1
 301 1163 l 1,25,-1
 301 1395 l 1,26,-1
 659 1395 l 2,27,28
 784 1395 784 1395 874 1300 c 1,29,30
 962 1198 962 1198 963 1067 c 2,31,-1
 965 274 l 2,0,1
963 -393 m 1,32,-1
 682 -393 l 1,33,-1
 682 -78 l 1,34,-1
 963 -78 l 1,35,-1
 963 -393 l 1,32,-1
EndSplineSet
EndChar

StartChar: nya
Encoding: 163 3230 157
Width: 2373
Flags: W
LayerCount: 2
Fore
SplineSet
2470 987 m 1,0,1
 2470 907 2470 907 2413 831 c 1,2,3
 2352 759 2352 759 2271 760 c 2,4,-1
 2103 760 l 1,5,-1
 2103 991 l 1,6,-1
 2154 991 l 2,7,8
 2191 991 2191 991 2191 1053 c 2,9,-1
 2191 1133 l 2,10,11
 2191 1164 2191 1164 2124 1163 c 2,12,-1
 2021 1163 l 2,13,14
 1974 1163 1974 1163 1950 1135 c 0,15,16
 1917 1096 1917 1096 1917 1053 c 2,17,-1
 1917 756 l 2,18,19
 1917 576 1917 576 1772 438 c 1,20,-1
 1772 295 l 2,21,22
 1772 277 1772 277 1790 256.5 c 128,-1,23
 1808 236 1808 236 1833 236 c 2,24,-1
 1948 236 l 1,25,-1
 1948 4 l 1,26,-1
 1747 6 l 2,27,28
 1643 6 1643 6 1569 72.5 c 128,-1,29
 1495 139 1495 139 1495 240 c 2,30,-1
 1495 354 l 1,31,-1
 1284 354 l 2,32,33
 1188 354 1188 354 1126 416 c 1,34,35
 1060 469 1060 469 1061 551 c 2,36,-1
 1061 696 l 2,37,38
 1061 725 1061 725 1069 751.5 c 128,-1,39
 1077 778 1077 778 1120 809 c 0,40,41
 1179 852 1179 852 1266 852 c 2,42,-1
 1518 852 l 2,43,44
 1565 852 1565 852 1610 815 c 1,45,-1
 1640 786 l 1,46,-1
 1640 1092 l 2,47,48
 1640 1123 1640 1123 1610.5 1141 c 128,-1,49
 1581 1159 1581 1159 1528 1159 c 2,50,-1
 1399 1159 l 2,51,52
 1342 1159 1342 1159 1305 1135 c 1,53,54
 1276 1110 1276 1110 1276 1077 c 2,55,-1
 1276 920 l 1,56,-1
 999 920 l 1,57,-1
 999 1067 l 2,58,59
 999 1083 999 1083 988 1101.5 c 128,-1,60
 977 1120 977 1120 963 1135 c 0,61,62
 934 1160 934 1160 872 1159 c 2,63,-1
 682 1159 l 2,64,65
 659 1159 659 1159 647 1148 c 128,-1,66
 635 1137 635 1137 635 1104 c 2,67,-1
 635 971 l 2,68,69
 635 942 635 942 651 926 c 1,70,71
 659 910 659 910 682 909 c 2,72,-1
 778 909 l 1,73,-1
 778 649 l 1,74,-1
 592 651 l 2,75,76
 492 651 492 651 423 728 c 128,-1,77
 354 805 354 805 354 901 c 2,78,-1
 354 1159 l 2,79,80
 354 1212 354 1212 369.5 1249 c 128,-1,81
 385 1286 385 1286 424 1323 c 1,82,83
 490 1391 490 1391 590 1391 c 2,84,-1
 930 1391 l 2,85,86
 1014 1391 1014 1391 1079 1348 c 1,87,88
 1118 1330 1118 1330 1137 1290 c 1,89,90
 1153 1315 1153 1315 1164.5 1327 c 128,-1,91
 1176 1339 1176 1339 1198 1348 c 1,92,93
 1255 1391 1255 1391 1331 1391 c 2,94,-1
 1608 1391 l 2,95,96
 1676 1391 1676 1391 1722 1354 c 1,97,98
 1755 1336 1755 1336 1780 1296 c 1,99,100
 1805 1339 1805 1339 1841 1356 c 1,101,102
 1888 1393 1888 1393 1968 1393 c 2,103,-1
 2243 1393 l 2,104,105
 2333 1393 2333 1393 2397.5 1328.5 c 128,-1,106
 2462 1264 2462 1264 2462 1174 c 1,107,-1
 2470 987 l 1,0,1
1473 600 m 1,108,-1
 1456 608 l 2,109,110
 1438 618 1438 618 1395 618 c 2,111,-1
 1307 618 l 2,112,113
 1299 618 1299 618 1290 629 c 1,114,-1
 1290 600 l 1,115,-1
 1300 592 l 1,116,117
 1314 578 1314 578 1331 578 c 2,118,-1
 1421 578 l 2,119,120
 1432 577 1432 577 1473 600 c 1,108,-1
EndSplineSet
LCarets2: 1 0
EndChar

